{"glyphs":{"0":{"ha":833,"x_min":94,"x_max":739,"o":"m 417 -14 q 246 24 318 -14 q 134 129 174 61 q 94 289 94 197 l 94 725 q 134 885 94 817 q 246 990 174 953 q 417 1028 318 1028 q 588 990 515 1028 q 699 885 660 953 q 739 725 739 817 l 739 289 q 699 129 739 197 q 588 24 660 61 q 417 -14 515 -14 m 417 136 q 532 178 489 136 q 575 289 575 219 l 575 725 q 533 836 575 794 q 417 878 490 878 q 301 836 343 878 q 258 725 258 794 l 258 289 q 301 178 258 219 q 417 136 344 136 m 417 417 q 350 443 375 417 q 325 511 325 469 q 350 578 325 553 q 417 603 375 603 q 483 578 458 603 q 508 511 508 553 q 483 443 508 469 q 417 417 458 417 z "},"1":{"ha":833,"x_min":115,"x_max":767,"o":"m 117 0 l 117 153 l 381 153 l 381 860 l 115 663 l 115 846 l 349 1014 l 554 1014 l 554 153 l 767 153 l 767 0 l 117 0 z "},"2":{"ha":833,"x_min":82,"x_max":743,"o":"m 110 0 l 110 158 l 426 486 q 525 609 493 554 q 557 722 557 664 q 518 832 557 792 q 413 872 479 872 q 297 830 339 872 q 256 713 256 788 l 82 713 q 124 880 83 810 q 240 989 165 950 q 415 1028 315 1028 q 582 992 511 1028 q 692 890 653 956 q 731 735 731 824 q 683 554 731 642 q 529 364 635 467 l 321 157 l 743 157 l 743 0 l 110 0 z "},"3":{"ha":833,"x_min":82,"x_max":733,"o":"m 407 -14 q 235 22 308 -14 q 122 124 163 58 q 82 278 82 189 l 257 278 q 297 172 257 210 q 408 133 336 133 q 519 172 481 133 q 558 278 558 211 l 558 354 q 519 460 558 422 q 408 499 479 499 l 289 499 l 289 638 l 513 865 l 128 865 l 128 1014 l 697 1014 l 697 871 l 471 644 q 663 551 593 628 q 733 354 733 475 l 733 278 q 693 124 733 189 q 579 22 653 58 q 407 -14 506 -14 z "},"4":{"ha":833,"x_min":90,"x_max":715,"o":"m 542 0 l 542 201 l 90 201 l 90 453 l 467 1014 l 658 1014 l 257 408 l 257 354 l 542 354 l 542 583 l 715 583 l 715 0 l 542 0 z "},"5":{"ha":833,"x_min":97,"x_max":736,"o":"m 415 -14 q 190 56 275 -14 q 97 247 106 126 l 271 247 q 313 167 276 196 q 415 138 350 138 q 525 175 488 138 q 563 282 563 213 l 563 381 q 526 486 563 449 q 415 524 489 524 q 290 456 325 524 l 121 456 l 128 1014 l 699 1014 l 699 857 l 292 857 l 289 563 l 292 563 q 353 638 306 611 q 475 665 401 665 q 667 591 599 667 q 736 381 736 515 l 736 282 q 651 65 736 144 q 415 -14 565 -14 z "},"6":{"ha":833,"x_min":74,"x_max":760,"o":"m 417 -14 q 237 28 314 -14 q 117 147 160 71 q 74 325 74 224 q 98 461 74 389 q 169 617 122 533 l 397 1014 l 586 1014 l 306 538 l 314 532 q 385 597 342 574 q 489 621 429 621 q 631 583 569 621 q 726 476 692 544 q 760 314 760 407 q 717 142 760 217 q 597 27 674 68 q 417 -14 519 -14 m 417 133 q 542 183 494 133 q 589 311 589 232 q 542 442 589 392 q 417 492 494 492 q 292 442 339 492 q 244 311 244 392 q 292 183 244 232 q 417 133 339 133 z "},"7":{"ha":833,"x_min":72,"x_max":760,"o":"m 210 0 l 579 853 l 247 853 l 247 696 l 72 696 l 72 1014 l 760 1014 l 760 853 l 396 0 l 210 0 z "},"8":{"ha":833,"x_min":75,"x_max":758,"o":"m 417 -14 q 238 21 314 -14 q 118 117 161 56 q 75 261 75 179 q 126 415 75 347 q 265 524 178 482 q 141 625 185 565 q 97 761 97 685 q 137 898 97 838 q 249 993 176 958 q 417 1028 321 1028 q 584 993 513 1028 q 695 898 656 958 q 735 761 735 838 q 692 624 735 685 q 568 524 649 564 q 709 412 660 479 q 758 261 758 344 q 715 116 758 178 q 596 20 672 54 q 417 -14 519 -14 m 383 601 l 417 588 l 449 600 q 533 663 500 622 q 565 751 565 703 q 524 845 565 808 q 417 882 483 882 q 308 845 350 882 q 267 751 267 808 q 299 663 267 703 q 383 601 332 624 m 417 133 q 540 174 492 133 q 589 278 589 215 q 553 372 589 328 q 464 439 518 415 l 417 458 l 368 438 q 279 372 314 415 q 244 279 244 328 q 293 174 244 215 q 417 133 342 133 z "},"9":{"ha":833,"x_min":74,"x_max":760,"o":"m 251 0 l 529 472 l 521 478 q 449 411 493 435 q 344 388 404 388 q 203 427 264 388 q 108 536 142 467 q 74 697 74 606 q 117 869 74 794 q 238 986 161 944 q 417 1028 315 1028 q 595 985 518 1028 q 716 866 672 942 q 760 692 760 790 q 735 553 760 626 q 664 399 710 481 l 444 0 l 251 0 m 417 518 q 541 568 493 518 q 589 700 589 618 q 541 830 589 779 q 417 881 493 881 q 292 830 340 881 q 244 700 244 779 q 292 568 244 618 q 417 518 340 518 z "},"A":{"ha":833,"x_min":49,"x_max":785,"o":"m 49 0 l 304 1014 l 528 1014 l 785 0 l 607 0 l 551 246 l 282 246 l 226 0 l 49 0 m 314 388 l 519 388 l 458 660 q 432 783 443 728 q 417 863 421 838 q 401 783 413 838 q 375 661 390 728 l 314 388 z "},"Á":{"ha":833,"x_min":49,"x_max":785,"o":"m 49 0 l 304 1014 l 528 1014 l 785 0 l 607 0 l 551 246 l 282 246 l 226 0 l 49 0 m 314 388 l 519 388 l 458 660 q 432 783 443 728 q 417 863 421 838 q 401 783 413 838 q 375 661 390 728 l 314 388 m 311 1125 l 458 1319 l 644 1319 l 486 1125 l 311 1125 z "},"Ă":{"ha":833,"x_min":49,"x_max":785,"o":"m 49 0 l 304 1014 l 528 1014 l 785 0 l 607 0 l 551 246 l 282 246 l 226 0 l 49 0 m 314 388 l 519 388 l 458 660 q 432 783 443 728 q 417 863 421 838 q 401 783 413 838 q 375 661 390 728 l 314 388 m 417 1114 q 242 1170 308 1114 q 175 1319 175 1226 l 310 1319 q 339 1246 310 1274 q 417 1218 368 1218 q 495 1246 465 1218 q 525 1319 525 1274 l 660 1319 q 593 1170 660 1226 q 417 1114 526 1114 z "},"Ắ":{"ha":833,"x_min":49,"x_max":785,"o":"m 324 1254 l 468 1417 l 629 1417 l 474 1254 l 324 1254 m 374 1083 q 216 1133 274 1083 q 158 1268 158 1183 l 276 1268 q 301 1206 276 1229 q 374 1183 326 1183 l 458 1183 q 531 1206 504 1183 q 557 1268 557 1229 l 674 1268 q 616 1133 674 1183 q 458 1083 558 1083 l 374 1083 m 49 0 l 304 1014 l 528 1014 l 785 0 l 607 0 l 551 246 l 282 246 l 226 0 l 49 0 m 314 388 l 519 388 l 458 660 q 432 783 443 728 q 417 863 421 838 q 401 783 413 838 q 375 661 390 728 l 314 388 z "},"Ặ":{"ha":833,"x_min":49,"x_max":785,"o":"m 417 1114 q 242 1170 308 1114 q 175 1319 175 1226 l 310 1319 q 339 1246 310 1274 q 417 1218 368 1218 q 495 1246 465 1218 q 525 1319 525 1274 l 660 1319 q 593 1170 660 1226 q 417 1114 526 1114 m 49 0 l 304 1014 l 528 1014 l 785 0 l 607 0 l 551 246 l 282 246 l 226 0 l 49 0 m 314 388 l 519 388 l 458 660 q 432 783 443 728 q 417 863 421 838 q 401 783 413 838 q 375 661 390 728 l 314 388 m 417 -312 q 333 -285 364 -312 q 303 -212 303 -258 q 333 -138 303 -165 q 417 -111 364 -111 q 500 -138 469 -111 q 531 -212 531 -165 q 500 -285 531 -258 q 417 -312 469 -312 z "},"Ằ":{"ha":833,"x_min":49,"x_max":785,"o":"m 49 0 l 304 1014 l 528 1014 l 785 0 l 607 0 l 551 246 l 282 246 l 226 0 l 49 0 m 314 388 l 519 388 l 458 660 q 432 783 443 728 q 417 863 421 838 q 401 783 413 838 q 375 661 390 728 l 314 388 m 365 1254 l 231 1417 l 383 1417 l 507 1254 l 365 1254 m 374 1083 q 216 1133 274 1083 q 158 1268 158 1183 l 276 1268 q 301 1206 276 1229 q 374 1183 326 1183 l 458 1183 q 531 1206 504 1183 q 557 1268 557 1229 l 674 1268 q 616 1133 674 1183 q 458 1083 558 1083 l 374 1083 z "},"Ẳ":{"ha":833,"x_min":49,"x_max":785,"o":"m 49 0 l 304 1014 l 528 1014 l 785 0 l 607 0 l 551 246 l 282 246 l 226 0 l 49 0 m 314 388 l 519 388 l 458 660 q 432 783 443 728 q 417 863 421 838 q 401 783 413 838 q 375 661 390 728 l 314 388 m 349 1231 l 396 1288 q 407 1311 407 1300 q 390 1325 407 1325 l 292 1325 l 292 1417 l 429 1417 q 504 1395 478 1417 q 531 1335 531 1374 q 522 1296 531 1314 q 503 1263 514 1278 l 478 1231 l 349 1231 m 374 1083 q 216 1133 274 1083 q 158 1268 158 1183 l 276 1268 q 301 1206 276 1229 q 374 1183 326 1183 l 458 1183 q 531 1206 504 1183 q 557 1268 557 1229 l 674 1268 q 616 1133 674 1183 q 458 1083 558 1083 l 374 1083 z "},"Ẵ":{"ha":833,"x_min":49,"x_max":785,"o":"m 49 0 l 304 1014 l 528 1014 l 785 0 l 607 0 l 551 246 l 282 246 l 226 0 l 49 0 m 314 388 l 519 388 l 458 660 q 432 783 443 728 q 417 863 421 838 q 401 783 413 838 q 375 661 390 728 l 314 388 m 526 1269 q 436 1283 471 1269 q 375 1311 401 1297 q 319 1325 349 1325 q 282 1288 282 1325 l 282 1279 l 175 1279 l 175 1288 q 211 1382 175 1347 q 308 1417 247 1417 q 398 1403 364 1417 q 458 1375 432 1389 q 514 1361 485 1361 q 551 1399 551 1361 l 551 1407 l 658 1407 l 658 1399 q 622 1304 658 1339 q 526 1269 586 1269 m 367 1083 q 227 1124 279 1083 q 175 1242 175 1165 l 293 1242 q 312 1198 293 1213 q 363 1183 331 1183 l 471 1183 q 522 1198 503 1183 q 540 1242 540 1213 l 658 1242 q 606 1124 658 1165 q 467 1083 554 1083 l 367 1083 z "},"Ǎ":{"ha":833,"x_min":49,"x_max":785,"o":"m 49 0 l 304 1014 l 528 1014 l 785 0 l 607 0 l 551 246 l 282 246 l 226 0 l 49 0 m 314 388 l 519 388 l 458 660 q 432 783 443 728 q 417 863 421 838 q 401 783 413 838 q 375 661 390 728 l 314 388 m 336 1125 l 146 1319 l 313 1319 l 418 1218 l 519 1319 l 688 1319 l 497 1125 l 336 1125 z "},"Â":{"ha":833,"x_min":49,"x_max":785,"o":"m 49 0 l 304 1014 l 528 1014 l 785 0 l 607 0 l 551 246 l 282 246 l 226 0 l 49 0 m 314 388 l 519 388 l 458 660 q 432 783 443 728 q 417 863 421 838 q 401 783 413 838 q 375 661 390 728 l 314 388 m 146 1125 l 336 1319 l 497 1319 l 688 1125 l 521 1125 l 415 1226 l 314 1125 l 146 1125 z "},"Ấ":{"ha":833,"x_min":49,"x_max":899,"o":"m 49 0 l 304 1014 l 528 1014 l 785 0 l 607 0 l 551 246 l 282 246 l 226 0 l 49 0 m 314 388 l 519 388 l 458 660 q 432 783 443 728 q 417 863 421 838 q 401 783 413 838 q 375 661 390 728 l 314 388 m 576 1254 l 722 1417 l 899 1417 l 742 1254 l 576 1254 m 146 1083 l 336 1278 l 497 1278 l 688 1083 l 519 1083 l 417 1185 l 314 1083 l 146 1083 z "},"Ậ":{"ha":833,"x_min":49,"x_max":785,"o":"m 146 1125 l 336 1319 l 497 1319 l 688 1125 l 521 1125 l 415 1226 l 314 1125 l 146 1125 m 49 0 l 304 1014 l 528 1014 l 785 0 l 607 0 l 551 246 l 282 246 l 226 0 l 49 0 m 314 388 l 519 388 l 458 660 q 432 783 443 728 q 417 863 421 838 q 401 783 413 838 q 375 661 390 728 l 314 388 m 417 -312 q 333 -285 364 -312 q 303 -212 303 -258 q 333 -138 303 -165 q 417 -111 364 -111 q 500 -138 469 -111 q 531 -212 531 -165 q 500 -285 531 -258 q 417 -312 469 -312 z "},"Ầ":{"ha":833,"x_min":49,"x_max":790,"o":"m 49 0 l 304 1014 l 528 1014 l 785 0 l 607 0 l 551 246 l 282 246 l 226 0 l 49 0 m 314 388 l 519 388 l 458 660 q 432 783 443 728 q 417 863 421 838 q 401 783 413 838 q 375 661 390 728 l 314 388 m 626 1254 l 464 1417 l 639 1417 l 790 1254 l 626 1254 m 146 1083 l 336 1278 l 497 1278 l 688 1083 l 519 1083 l 417 1185 l 314 1083 l 146 1083 z "},"Ẩ":{"ha":833,"x_min":49,"x_max":797,"o":"m 49 0 l 304 1014 l 528 1014 l 785 0 l 607 0 l 551 246 l 282 246 l 226 0 l 49 0 m 314 388 l 519 388 l 458 660 q 432 783 443 728 q 417 863 421 838 q 401 783 413 838 q 375 661 390 728 l 314 388 m 599 1214 l 653 1269 q 668 1299 668 1283 q 639 1321 668 1321 l 544 1321 l 544 1417 l 671 1417 q 763 1390 728 1417 q 797 1314 797 1363 q 768 1247 797 1272 l 732 1214 l 599 1214 m 146 1083 l 336 1278 l 497 1278 l 688 1083 l 519 1083 l 417 1185 l 314 1083 l 146 1083 z "},"Ẫ":{"ha":833,"x_min":49,"x_max":785,"o":"m 49 0 l 304 1014 l 528 1014 l 785 0 l 607 0 l 551 246 l 282 246 l 226 0 l 49 0 m 314 388 l 519 388 l 458 660 q 432 783 443 728 q 417 863 421 838 q 401 783 413 838 q 375 661 390 728 l 314 388 m 526 1269 q 436 1283 471 1269 q 375 1311 401 1297 q 319 1325 349 1325 q 282 1288 282 1325 l 282 1279 l 175 1279 l 175 1288 q 211 1382 175 1347 q 308 1417 247 1417 q 398 1403 364 1417 q 458 1375 432 1389 q 514 1361 485 1361 q 551 1399 551 1361 l 551 1407 l 658 1407 l 658 1399 q 622 1304 658 1339 q 526 1269 586 1269 m 146 1083 l 290 1231 l 543 1231 l 688 1083 l 518 1083 l 417 1186 l 314 1083 l 146 1083 z "},"Ä":{"ha":833,"x_min":49,"x_max":785,"o":"m 49 0 l 304 1014 l 528 1014 l 785 0 l 607 0 l 551 246 l 282 246 l 226 0 l 49 0 m 314 388 l 519 388 l 458 660 q 432 783 443 728 q 417 863 421 838 q 401 783 413 838 q 375 661 390 728 l 314 388 m 579 1122 q 506 1149 533 1122 q 478 1222 478 1176 q 506 1297 478 1269 q 579 1324 533 1324 q 654 1297 626 1324 q 682 1222 682 1269 q 654 1149 682 1176 q 579 1122 626 1122 m 254 1122 q 179 1149 207 1122 q 151 1222 151 1176 q 179 1297 151 1269 q 254 1324 207 1324 q 328 1297 300 1324 q 356 1222 356 1269 q 328 1149 356 1176 q 254 1122 300 1122 z "},"Ạ":{"ha":833,"x_min":49,"x_max":785,"o":"m 49 0 l 304 1014 l 528 1014 l 785 0 l 607 0 l 551 246 l 282 246 l 226 0 l 49 0 m 314 388 l 519 388 l 458 660 q 432 783 443 728 q 417 863 421 838 q 401 783 413 838 q 375 661 390 728 l 314 388 m 417 -312 q 333 -285 364 -312 q 303 -212 303 -258 q 333 -138 303 -165 q 417 -111 364 -111 q 500 -138 469 -111 q 531 -212 531 -165 q 500 -285 531 -258 q 417 -312 469 -312 z "},"À":{"ha":833,"x_min":49,"x_max":785,"o":"m 49 0 l 304 1014 l 528 1014 l 785 0 l 607 0 l 551 246 l 282 246 l 226 0 l 49 0 m 314 388 l 519 388 l 458 660 q 432 783 443 728 q 417 863 421 838 q 401 783 413 838 q 375 661 390 728 l 314 388 m 346 1125 l 185 1319 l 376 1319 l 525 1125 l 346 1125 z "},"Ả":{"ha":833,"x_min":49,"x_max":785,"o":"m 49 0 l 304 1014 l 528 1014 l 785 0 l 607 0 l 551 246 l 282 246 l 226 0 l 49 0 m 314 388 l 519 388 l 458 660 q 432 783 443 728 q 417 863 421 838 q 401 783 413 838 q 375 661 390 728 l 314 388 m 346 1108 l 413 1192 q 432 1233 432 1217 q 392 1258 432 1258 l 283 1258 l 283 1365 l 415 1365 q 521 1334 481 1365 q 561 1251 561 1303 q 533 1172 561 1208 l 485 1108 l 346 1108 z "},"Ā":{"ha":833,"x_min":49,"x_max":785,"o":"m 49 0 l 304 1014 l 528 1014 l 785 0 l 607 0 l 551 246 l 282 246 l 226 0 l 49 0 m 314 388 l 519 388 l 458 660 q 432 783 443 728 q 417 863 421 838 q 401 783 413 838 q 375 661 390 728 l 314 388 m 178 1150 l 178 1283 l 656 1283 l 656 1150 l 178 1150 z "},"Ą":{"ha":833,"x_min":49,"x_max":801,"o":"m 49 0 l 304 1014 l 528 1014 l 785 0 l 728 0 l 713 -14 q 642 -121 642 -75 q 660 -163 642 -146 q 711 -181 679 -181 l 801 -181 l 801 -300 l 669 -300 q 540 -260 588 -300 q 493 -157 493 -219 q 607 0 493 -71 l 551 246 l 282 246 l 226 0 l 49 0 m 314 388 l 519 388 l 458 660 q 432 783 443 728 q 417 863 421 838 q 401 783 413 838 q 375 661 390 728 l 314 388 z "},"Å":{"ha":833,"x_min":49,"x_max":785,"o":"m 49 0 l 304 1014 l 528 1014 l 785 0 l 607 0 l 551 246 l 282 246 l 226 0 l 49 0 m 314 388 l 519 388 l 458 660 q 432 783 443 728 q 417 863 421 838 q 401 783 413 838 q 375 661 390 728 l 314 388 m 417 1053 q 284 1099 335 1053 q 233 1222 233 1146 q 284 1345 233 1299 q 417 1392 335 1392 q 549 1345 499 1392 q 600 1222 600 1299 q 549 1099 600 1146 q 417 1053 499 1053 m 417 1140 q 477 1163 454 1140 q 500 1222 500 1186 q 477 1281 500 1258 q 417 1304 454 1304 q 356 1281 379 1304 q 333 1222 333 1258 q 356 1163 333 1186 q 417 1140 379 1140 z "},"Ã":{"ha":833,"x_min":49,"x_max":785,"o":"m 49 0 l 304 1014 l 528 1014 l 785 0 l 607 0 l 551 246 l 282 246 l 226 0 l 49 0 m 314 388 l 519 388 l 458 660 q 432 783 443 728 q 417 863 421 838 q 401 783 413 838 q 375 661 390 728 l 314 388 m 514 1119 q 444 1133 471 1119 q 399 1165 417 1147 q 365 1195 381 1182 q 326 1208 349 1208 q 285 1163 285 1208 l 285 1126 l 178 1126 l 178 1172 q 217 1283 178 1240 q 319 1325 256 1325 q 390 1311 363 1325 q 435 1280 417 1297 q 469 1249 453 1263 q 507 1236 485 1236 q 549 1279 549 1236 l 549 1318 l 656 1318 l 656 1272 q 617 1162 656 1204 q 514 1119 578 1119 z "},"Æ":{"ha":833,"x_min":17,"x_max":800,"o":"m 17 0 l 213 1014 l 800 1014 l 800 865 l 561 865 l 561 596 l 765 596 l 765 443 l 561 443 l 561 150 l 800 150 l 800 0 l 411 0 l 411 251 l 231 251 l 186 0 l 17 0 m 251 379 l 411 379 l 411 865 l 339 865 l 251 379 z "},"Ǽ":{"ha":833,"x_min":17,"x_max":800,"o":"m 17 0 l 213 1014 l 800 1014 l 800 865 l 561 865 l 561 596 l 765 596 l 765 443 l 561 443 l 561 150 l 800 150 l 800 0 l 411 0 l 411 251 l 231 251 l 186 0 l 17 0 m 251 379 l 411 379 l 411 865 l 339 865 l 251 379 m 311 1125 l 458 1319 l 644 1319 l 486 1125 l 311 1125 z "},"B":{"ha":833,"x_min":107,"x_max":761,"o":"m 107 0 l 107 1014 l 418 1014 q 651 944 565 1014 q 738 753 738 874 q 685 604 738 663 q 551 532 633 546 q 702 458 643 521 q 761 289 761 394 q 673 78 761 157 q 433 0 585 0 l 107 0 m 276 596 l 415 596 q 524 633 483 596 q 564 733 564 669 q 524 833 564 796 q 415 869 485 869 l 276 869 l 276 596 m 276 144 l 422 144 q 542 185 499 144 q 586 297 586 226 q 542 412 586 368 q 422 456 499 456 l 276 456 l 276 144 z "},"C":{"ha":833,"x_min":100,"x_max":744,"o":"m 422 -14 q 251 23 324 -14 q 140 127 179 60 q 100 286 100 194 l 100 728 q 140 887 100 819 q 251 991 179 954 q 422 1028 324 1028 q 592 991 519 1028 q 704 887 664 954 q 744 728 744 819 l 569 728 q 531 837 569 799 q 422 875 493 875 q 313 838 351 875 q 274 729 274 800 l 274 286 q 313 177 274 215 q 422 139 351 139 q 531 177 493 139 q 569 286 569 215 l 744 286 q 704 127 744 194 q 592 23 664 60 q 422 -14 519 -14 z "},"Ć":{"ha":833,"x_min":100,"x_max":744,"o":"m 422 -14 q 251 23 324 -14 q 140 127 179 60 q 100 286 100 194 l 100 728 q 140 887 100 819 q 251 991 179 954 q 422 1028 324 1028 q 592 991 519 1028 q 704 887 664 954 q 744 728 744 819 l 569 728 q 531 837 569 799 q 422 875 493 875 q 313 838 351 875 q 274 729 274 800 l 274 286 q 313 177 274 215 q 422 139 351 139 q 531 177 493 139 q 569 286 569 215 l 744 286 q 704 127 744 194 q 592 23 664 60 q 422 -14 519 -14 m 318 1125 l 465 1319 l 651 1319 l 493 1125 l 318 1125 z "},"Č":{"ha":833,"x_min":100,"x_max":744,"o":"m 422 -14 q 251 23 324 -14 q 140 127 179 60 q 100 286 100 194 l 100 728 q 140 887 100 819 q 251 991 179 954 q 422 1028 324 1028 q 592 991 519 1028 q 704 887 664 954 q 744 728 744 819 l 569 728 q 531 837 569 799 q 422 875 493 875 q 313 838 351 875 q 274 729 274 800 l 274 286 q 313 177 274 215 q 422 139 351 139 q 531 177 493 139 q 569 286 569 215 l 744 286 q 704 127 744 194 q 592 23 664 60 q 422 -14 519 -14 m 343 1125 l 153 1319 l 319 1319 l 425 1218 l 526 1319 l 694 1319 l 504 1125 l 343 1125 z "},"Ç":{"ha":833,"x_min":100,"x_max":744,"o":"m 283 -300 l 283 -211 l 389 -211 q 442 -195 422 -211 q 463 -161 463 -179 q 422 -114 463 -132 q 307 -96 381 -96 l 342 -7 q 165 91 229 14 q 100 286 100 168 l 100 728 q 140 887 100 819 q 251 991 179 954 q 422 1028 324 1028 q 592 991 519 1028 q 704 887 664 954 q 744 728 744 819 l 569 728 q 531 837 569 799 q 422 875 493 875 q 313 838 351 875 q 274 729 274 800 l 274 286 q 313 177 274 215 q 422 139 351 139 q 531 177 493 139 q 569 286 569 215 l 744 286 q 660 70 744 151 q 433 -14 575 -11 l 421 -51 q 503 -70 460 -56 q 575 -111 546 -85 q 604 -178 604 -137 q 554 -263 604 -226 q 422 -300 504 -300 l 283 -300 z "},"Ĉ":{"ha":833,"x_min":100,"x_max":744,"o":"m 422 -14 q 251 23 324 -14 q 140 127 179 60 q 100 286 100 194 l 100 728 q 140 887 100 819 q 251 991 179 954 q 422 1028 324 1028 q 592 991 519 1028 q 704 887 664 954 q 744 728 744 819 l 569 728 q 531 837 569 799 q 422 875 493 875 q 313 838 351 875 q 274 729 274 800 l 274 286 q 313 177 274 215 q 422 139 351 139 q 531 177 493 139 q 569 286 569 215 l 744 286 q 704 127 744 194 q 592 23 664 60 q 422 -14 519 -14 m 153 1125 l 343 1319 l 504 1319 l 694 1125 l 528 1125 l 422 1226 l 321 1125 l 153 1125 z "},"Ċ":{"ha":833,"x_min":100,"x_max":744,"o":"m 422 -14 q 251 23 324 -14 q 140 127 179 60 q 100 286 100 194 l 100 728 q 140 887 100 819 q 251 991 179 954 q 422 1028 324 1028 q 592 991 519 1028 q 704 887 664 954 q 744 728 744 819 l 569 728 q 531 837 569 799 q 422 875 493 875 q 313 838 351 875 q 274 729 274 800 l 274 286 q 313 177 274 215 q 422 139 351 139 q 531 177 493 139 q 569 286 569 215 l 744 286 q 704 127 744 194 q 592 23 664 60 q 422 -14 519 -14 m 424 1122 q 340 1149 371 1122 q 310 1222 310 1176 q 340 1295 310 1268 q 424 1322 371 1322 q 507 1295 476 1322 q 538 1222 538 1268 q 507 1149 538 1176 q 424 1122 476 1122 z "},"D":{"ha":833,"x_min":104,"x_max":743,"o":"m 104 0 l 104 1014 l 406 1014 q 584 974 508 1014 q 701 864 660 935 q 743 697 743 793 l 743 318 q 701 151 743 222 q 584 40 660 79 q 406 0 508 0 l 104 0 m 278 160 l 406 160 q 525 202 481 160 q 569 318 569 244 l 569 697 q 525 812 569 769 q 406 854 481 854 l 278 854 l 278 160 z "},"Ð":{"ha":833,"x_min":14,"x_max":743,"o":"m 104 0 l 104 457 l 14 457 l 14 578 l 104 578 l 104 1014 l 406 1014 q 584 974 508 1014 q 701 864 660 935 q 743 697 743 793 l 743 318 q 701 151 743 222 q 584 40 660 79 q 406 0 508 0 l 104 0 m 278 160 l 406 160 q 525 202 481 160 q 569 318 569 244 l 569 697 q 525 812 569 769 q 406 854 481 854 l 278 854 l 278 578 l 403 578 l 403 457 l 278 457 l 278 160 z "},"Ď":{"ha":833,"x_min":104,"x_max":743,"o":"m 104 0 l 104 1014 l 406 1014 q 584 974 508 1014 q 701 864 660 935 q 743 697 743 793 l 743 318 q 701 151 743 222 q 584 40 660 79 q 406 0 508 0 l 104 0 m 278 160 l 406 160 q 525 202 481 160 q 569 318 569 244 l 569 697 q 525 812 569 769 q 406 854 481 854 l 278 854 l 278 160 m 336 1125 l 146 1319 l 313 1319 l 418 1218 l 519 1319 l 688 1319 l 497 1125 l 336 1125 z "},"Đ":{"ha":833,"x_min":14,"x_max":743,"o":"m 104 0 l 104 457 l 14 457 l 14 578 l 104 578 l 104 1014 l 406 1014 q 584 974 508 1014 q 701 864 660 935 q 743 697 743 793 l 743 318 q 701 151 743 222 q 584 40 660 79 q 406 0 508 0 l 104 0 m 278 160 l 406 160 q 525 202 481 160 q 569 318 569 244 l 569 697 q 525 812 569 769 q 406 854 481 854 l 278 854 l 278 578 l 403 578 l 403 457 l 278 457 l 278 160 z "},"E":{"ha":833,"x_min":122,"x_max":731,"o":"m 122 0 l 122 1014 l 731 1014 l 731 863 l 293 863 l 293 599 l 682 599 l 682 449 l 293 449 l 293 151 l 731 151 l 731 0 l 122 0 z "},"É":{"ha":833,"x_min":122,"x_max":731,"o":"m 122 0 l 122 1014 l 731 1014 l 731 863 l 293 863 l 293 599 l 682 599 l 682 449 l 293 449 l 293 151 l 731 151 l 731 0 l 122 0 m 339 1125 l 486 1319 l 672 1319 l 514 1125 l 339 1125 z "},"Ĕ":{"ha":833,"x_min":122,"x_max":731,"o":"m 122 0 l 122 1014 l 731 1014 l 731 863 l 293 863 l 293 599 l 682 599 l 682 449 l 293 449 l 293 151 l 731 151 l 731 0 l 122 0 m 444 1114 q 269 1170 336 1114 q 203 1319 203 1226 l 338 1319 q 367 1246 338 1274 q 444 1218 396 1218 q 523 1246 493 1218 q 553 1319 553 1274 l 688 1319 q 621 1170 688 1226 q 444 1114 554 1114 z "},"Ě":{"ha":833,"x_min":122,"x_max":731,"o":"m 122 0 l 122 1014 l 731 1014 l 731 863 l 293 863 l 293 599 l 682 599 l 682 449 l 293 449 l 293 151 l 731 151 l 731 0 l 122 0 m 364 1125 l 174 1319 l 340 1319 l 446 1218 l 547 1319 l 715 1319 l 525 1125 l 364 1125 z "},"Ê":{"ha":833,"x_min":122,"x_max":731,"o":"m 122 0 l 122 1014 l 731 1014 l 731 863 l 293 863 l 293 599 l 682 599 l 682 449 l 293 449 l 293 151 l 731 151 l 731 0 l 122 0 m 174 1125 l 364 1319 l 525 1319 l 715 1125 l 549 1125 l 443 1226 l 342 1125 l 174 1125 z "},"Ế":{"ha":833,"x_min":122,"x_max":926,"o":"m 122 0 l 122 1014 l 731 1014 l 731 863 l 293 863 l 293 599 l 682 599 l 682 449 l 293 449 l 293 151 l 731 151 l 731 0 l 122 0 m 604 1254 l 750 1417 l 926 1417 l 769 1254 l 604 1254 m 174 1083 l 364 1278 l 525 1278 l 715 1083 l 547 1083 l 444 1185 l 342 1083 l 174 1083 z "},"Ệ":{"ha":833,"x_min":122,"x_max":731,"o":"m 122 0 l 122 1014 l 731 1014 l 731 863 l 293 863 l 293 599 l 682 599 l 682 449 l 293 449 l 293 151 l 731 151 l 731 0 l 122 0 m 444 -312 q 361 -285 392 -312 q 331 -212 331 -258 q 361 -138 331 -165 q 444 -111 392 -111 q 528 -138 497 -111 q 558 -212 558 -165 q 528 -285 558 -258 q 444 -312 497 -312 m 174 1125 l 364 1319 l 525 1319 l 715 1125 l 549 1125 l 443 1226 l 342 1125 l 174 1125 z "},"Ề":{"ha":833,"x_min":122,"x_max":818,"o":"m 122 0 l 122 1014 l 731 1014 l 731 863 l 293 863 l 293 599 l 682 599 l 682 449 l 293 449 l 293 151 l 731 151 l 731 0 l 122 0 m 654 1254 l 492 1417 l 667 1417 l 818 1254 l 654 1254 m 174 1083 l 364 1278 l 525 1278 l 715 1083 l 547 1083 l 444 1185 l 342 1083 l 174 1083 z "},"Ể":{"ha":833,"x_min":122,"x_max":825,"o":"m 122 0 l 122 1014 l 731 1014 l 731 863 l 293 863 l 293 599 l 682 599 l 682 449 l 293 449 l 293 151 l 731 151 l 731 0 l 122 0 m 626 1214 l 681 1269 q 696 1299 696 1283 q 667 1321 696 1321 l 572 1321 l 572 1417 l 699 1417 q 790 1390 756 1417 q 825 1314 825 1363 q 796 1247 825 1272 l 760 1214 l 626 1214 m 174 1083 l 364 1278 l 525 1278 l 715 1083 l 547 1083 l 444 1185 l 342 1083 l 174 1083 z "},"Ễ":{"ha":833,"x_min":122,"x_max":731,"o":"m 122 0 l 122 1014 l 731 1014 l 731 863 l 293 863 l 293 599 l 682 599 l 682 449 l 293 449 l 293 151 l 731 151 l 731 0 l 122 0 m 554 1269 q 464 1283 499 1269 q 403 1311 429 1297 q 347 1325 376 1325 q 310 1288 310 1325 l 310 1279 l 203 1279 l 203 1288 q 239 1382 203 1347 q 336 1417 275 1417 q 426 1403 392 1417 q 486 1375 460 1389 q 542 1361 513 1361 q 579 1399 579 1361 l 579 1407 l 686 1407 l 686 1399 q 650 1304 686 1339 q 554 1269 614 1269 m 174 1083 l 318 1231 l 571 1231 l 715 1083 l 546 1083 l 444 1186 l 342 1083 l 174 1083 z "},"Ë":{"ha":833,"x_min":122,"x_max":731,"o":"m 122 0 l 122 1014 l 731 1014 l 731 863 l 293 863 l 293 599 l 682 599 l 682 449 l 293 449 l 293 151 l 731 151 l 731 0 l 122 0 m 607 1122 q 533 1149 561 1122 q 506 1222 506 1176 q 533 1297 506 1269 q 607 1324 561 1324 q 682 1297 654 1324 q 710 1222 710 1269 q 682 1149 710 1176 q 607 1122 654 1122 m 282 1122 q 207 1149 235 1122 q 179 1222 179 1176 q 207 1297 179 1269 q 282 1324 235 1324 q 356 1297 328 1324 q 383 1222 383 1269 q 356 1149 383 1176 q 282 1122 328 1122 z "},"Ė":{"ha":833,"x_min":122,"x_max":731,"o":"m 122 0 l 122 1014 l 731 1014 l 731 863 l 293 863 l 293 599 l 682 599 l 682 449 l 293 449 l 293 151 l 731 151 l 731 0 l 122 0 m 444 1122 q 361 1149 392 1122 q 331 1222 331 1176 q 361 1295 331 1268 q 444 1322 392 1322 q 528 1295 497 1322 q 558 1222 558 1268 q 528 1149 558 1176 q 444 1122 497 1122 z "},"Ẹ":{"ha":833,"x_min":122,"x_max":731,"o":"m 122 0 l 122 1014 l 731 1014 l 731 863 l 293 863 l 293 599 l 682 599 l 682 449 l 293 449 l 293 151 l 731 151 l 731 0 l 122 0 m 444 -312 q 361 -285 392 -312 q 331 -212 331 -258 q 361 -138 331 -165 q 444 -111 392 -111 q 528 -138 497 -111 q 558 -212 558 -165 q 528 -285 558 -258 q 444 -312 497 -312 z "},"È":{"ha":833,"x_min":122,"x_max":731,"o":"m 122 0 l 122 1014 l 731 1014 l 731 863 l 293 863 l 293 599 l 682 599 l 682 449 l 293 449 l 293 151 l 731 151 l 731 0 l 122 0 m 374 1125 l 213 1319 l 404 1319 l 553 1125 l 374 1125 z "},"Ẻ":{"ha":833,"x_min":122,"x_max":731,"o":"m 122 0 l 122 1014 l 731 1014 l 731 863 l 293 863 l 293 599 l 682 599 l 682 449 l 293 449 l 293 151 l 731 151 l 731 0 l 122 0 m 374 1108 l 440 1192 q 460 1233 460 1217 q 419 1258 460 1258 l 311 1258 l 311 1365 l 443 1365 q 549 1334 508 1365 q 589 1251 589 1303 q 561 1172 589 1208 l 513 1108 l 374 1108 z "},"Ē":{"ha":833,"x_min":122,"x_max":731,"o":"m 122 0 l 122 1014 l 731 1014 l 731 863 l 293 863 l 293 599 l 682 599 l 682 449 l 293 449 l 293 151 l 731 151 l 731 0 l 122 0 m 206 1150 l 206 1283 l 683 1283 l 683 1150 l 206 1150 z "},"Ę":{"ha":833,"x_min":122,"x_max":736,"o":"m 122 0 l 122 1014 l 731 1014 l 731 863 l 293 863 l 293 599 l 682 599 l 682 449 l 293 449 l 293 151 l 731 151 l 731 0 l 663 0 l 647 -14 q 576 -121 576 -75 q 595 -163 576 -146 q 646 -181 614 -181 l 736 -181 l 736 -300 l 604 -300 q 474 -260 522 -300 q 426 -157 426 -219 q 540 0 426 -71 l 122 0 z "},"Ẽ":{"ha":833,"x_min":122,"x_max":731,"o":"m 122 0 l 122 1014 l 731 1014 l 731 863 l 293 863 l 293 599 l 682 599 l 682 449 l 293 449 l 293 151 l 731 151 l 731 0 l 122 0 m 542 1119 q 472 1133 499 1119 q 426 1165 444 1147 q 392 1195 408 1182 q 354 1208 376 1208 q 313 1163 313 1208 l 313 1126 l 206 1126 l 206 1172 q 244 1283 206 1240 q 347 1325 283 1325 q 417 1311 390 1325 q 463 1280 444 1297 q 497 1249 481 1263 q 535 1236 513 1236 q 576 1279 576 1236 l 576 1318 l 683 1318 l 683 1272 q 644 1162 683 1204 q 542 1119 606 1119 z "},"F":{"ha":833,"x_min":111,"x_max":742,"o":"m 111 0 l 111 1014 l 742 1014 l 742 853 l 282 853 l 282 582 l 706 582 l 706 421 l 285 421 l 285 0 l 111 0 z "},"G":{"ha":833,"x_min":100,"x_max":744,"o":"m 422 -14 q 251 23 324 -14 q 140 127 179 60 q 100 286 100 194 l 100 728 q 140 887 100 819 q 251 991 179 954 q 422 1028 324 1028 q 592 991 519 1028 q 704 887 664 954 q 744 728 744 819 l 569 728 q 531 837 569 799 q 422 875 493 875 q 313 838 351 875 q 274 729 274 800 l 274 286 q 313 176 274 215 q 422 138 351 138 q 531 176 493 138 q 569 286 569 215 l 569 389 l 397 389 l 397 539 l 744 539 l 744 286 q 704 127 744 194 q 592 23 664 60 q 422 -14 519 -14 z "},"Ǵ":{"ha":833,"x_min":100,"x_max":744,"o":"m 422 -14 q 251 23 324 -14 q 140 127 179 60 q 100 286 100 194 l 100 728 q 140 887 100 819 q 251 991 179 954 q 422 1028 324 1028 q 592 991 519 1028 q 704 887 664 954 q 744 728 744 819 l 569 728 q 531 837 569 799 q 422 875 493 875 q 313 838 351 875 q 274 729 274 800 l 274 286 q 313 176 274 215 q 422 138 351 138 q 531 176 493 138 q 569 286 569 215 l 569 389 l 397 389 l 397 539 l 744 539 l 744 286 q 704 127 744 194 q 592 23 664 60 q 422 -14 519 -14 m 311 1125 l 458 1319 l 644 1319 l 486 1125 l 311 1125 z "},"Ğ":{"ha":833,"x_min":100,"x_max":744,"o":"m 422 -14 q 251 23 324 -14 q 140 127 179 60 q 100 286 100 194 l 100 728 q 140 887 100 819 q 251 991 179 954 q 422 1028 324 1028 q 592 991 519 1028 q 704 887 664 954 q 744 728 744 819 l 569 728 q 531 837 569 799 q 422 875 493 875 q 313 838 351 875 q 274 729 274 800 l 274 286 q 313 176 274 215 q 422 138 351 138 q 531 176 493 138 q 569 286 569 215 l 569 389 l 397 389 l 397 539 l 744 539 l 744 286 q 704 127 744 194 q 592 23 664 60 q 422 -14 519 -14 m 417 1114 q 242 1170 308 1114 q 175 1319 175 1226 l 310 1319 q 339 1246 310 1274 q 417 1218 368 1218 q 495 1246 465 1218 q 525 1319 525 1274 l 660 1319 q 593 1170 660 1226 q 417 1114 526 1114 z "},"Ǧ":{"ha":833,"x_min":100,"x_max":744,"o":"m 422 -14 q 251 23 324 -14 q 140 127 179 60 q 100 286 100 194 l 100 728 q 140 887 100 819 q 251 991 179 954 q 422 1028 324 1028 q 592 991 519 1028 q 704 887 664 954 q 744 728 744 819 l 569 728 q 531 837 569 799 q 422 875 493 875 q 313 838 351 875 q 274 729 274 800 l 274 286 q 313 176 274 215 q 422 138 351 138 q 531 176 493 138 q 569 286 569 215 l 569 389 l 397 389 l 397 539 l 744 539 l 744 286 q 704 127 744 194 q 592 23 664 60 q 422 -14 519 -14 m 336 1125 l 146 1319 l 313 1319 l 418 1218 l 519 1319 l 688 1319 l 497 1125 l 336 1125 z "},"Ĝ":{"ha":833,"x_min":100,"x_max":744,"o":"m 422 -14 q 251 23 324 -14 q 140 127 179 60 q 100 286 100 194 l 100 728 q 140 887 100 819 q 251 991 179 954 q 422 1028 324 1028 q 592 991 519 1028 q 704 887 664 954 q 744 728 744 819 l 569 728 q 531 837 569 799 q 422 875 493 875 q 313 838 351 875 q 274 729 274 800 l 274 286 q 313 176 274 215 q 422 138 351 138 q 531 176 493 138 q 569 286 569 215 l 569 389 l 397 389 l 397 539 l 744 539 l 744 286 q 704 127 744 194 q 592 23 664 60 q 422 -14 519 -14 m 146 1125 l 336 1319 l 497 1319 l 688 1125 l 521 1125 l 415 1226 l 314 1125 l 146 1125 z "},"Ģ":{"ha":833,"x_min":100,"x_max":744,"o":"m 422 -14 q 251 23 324 -14 q 140 127 179 60 q 100 286 100 194 l 100 728 q 140 887 100 819 q 251 991 179 954 q 422 1028 324 1028 q 592 991 519 1028 q 704 887 664 954 q 744 728 744 819 l 569 728 q 531 837 569 799 q 422 875 493 875 q 313 838 351 875 q 274 729 274 800 l 274 286 q 313 176 274 215 q 422 138 351 138 q 531 176 493 138 q 569 286 569 215 l 569 389 l 397 389 l 397 539 l 744 539 l 744 286 q 704 127 744 194 q 592 23 664 60 q 422 -14 519 -14 m 257 -333 l 389 -132 l 572 -132 l 418 -333 l 257 -333 z "},"Ġ":{"ha":833,"x_min":100,"x_max":744,"o":"m 422 -14 q 251 23 324 -14 q 140 127 179 60 q 100 286 100 194 l 100 728 q 140 887 100 819 q 251 991 179 954 q 422 1028 324 1028 q 592 991 519 1028 q 704 887 664 954 q 744 728 744 819 l 569 728 q 531 837 569 799 q 422 875 493 875 q 313 838 351 875 q 274 729 274 800 l 274 286 q 313 176 274 215 q 422 138 351 138 q 531 176 493 138 q 569 286 569 215 l 569 389 l 397 389 l 397 539 l 744 539 l 744 286 q 704 127 744 194 q 592 23 664 60 q 422 -14 519 -14 m 417 1122 q 333 1149 364 1122 q 303 1222 303 1176 q 333 1295 303 1268 q 417 1322 364 1322 q 500 1295 469 1322 q 531 1222 531 1268 q 500 1149 531 1176 q 417 1122 469 1122 z "},"H":{"ha":833,"x_min":107,"x_max":726,"o":"m 107 0 l 107 1014 l 281 1014 l 281 607 l 553 607 l 553 1014 l 726 1014 l 726 0 l 553 0 l 553 446 l 281 446 l 281 0 l 107 0 z "},"Ħ":{"ha":833,"x_min":14,"x_max":819,"o":"m 107 0 l 107 729 l 14 729 l 14 850 l 107 850 l 107 1014 l 281 1014 l 281 850 l 553 850 l 553 1014 l 726 1014 l 726 850 l 819 850 l 819 729 l 726 729 l 726 0 l 553 0 l 553 446 l 281 446 l 281 0 l 107 0 m 281 607 l 553 607 l 553 729 l 281 729 l 281 607 z "},"Ĥ":{"ha":833,"x_min":107,"x_max":726,"o":"m 107 0 l 107 1014 l 281 1014 l 281 607 l 553 607 l 553 1014 l 726 1014 l 726 0 l 553 0 l 553 446 l 281 446 l 281 0 l 107 0 m 146 1125 l 336 1319 l 497 1319 l 688 1125 l 521 1125 l 415 1226 l 314 1125 l 146 1125 z "},"I":{"ha":833,"x_min":125,"x_max":708,"o":"m 125 0 l 125 153 l 329 153 l 329 861 l 125 861 l 125 1014 l 708 1014 l 708 861 l 504 861 l 504 153 l 708 153 l 708 0 l 125 0 z "},"Í":{"ha":833,"x_min":125,"x_max":708,"o":"m 125 0 l 125 153 l 329 153 l 329 861 l 125 861 l 125 1014 l 708 1014 l 708 861 l 504 861 l 504 153 l 708 153 l 708 0 l 125 0 m 311 1125 l 458 1319 l 644 1319 l 486 1125 l 311 1125 z "},"Ĭ":{"ha":833,"x_min":125,"x_max":708,"o":"m 125 0 l 125 153 l 329 153 l 329 861 l 125 861 l 125 1014 l 708 1014 l 708 861 l 504 861 l 504 153 l 708 153 l 708 0 l 125 0 m 417 1114 q 242 1170 308 1114 q 175 1319 175 1226 l 310 1319 q 339 1246 310 1274 q 417 1218 368 1218 q 495 1246 465 1218 q 525 1319 525 1274 l 660 1319 q 593 1170 660 1226 q 417 1114 526 1114 z "},"Î":{"ha":833,"x_min":125,"x_max":708,"o":"m 125 0 l 125 153 l 329 153 l 329 861 l 125 861 l 125 1014 l 708 1014 l 708 861 l 504 861 l 504 153 l 708 153 l 708 0 l 125 0 m 146 1125 l 336 1319 l 497 1319 l 688 1125 l 521 1125 l 415 1226 l 314 1125 l 146 1125 z "},"Ï":{"ha":833,"x_min":125,"x_max":708,"o":"m 125 0 l 125 153 l 329 153 l 329 861 l 125 861 l 125 1014 l 708 1014 l 708 861 l 504 861 l 504 153 l 708 153 l 708 0 l 125 0 m 579 1122 q 506 1149 533 1122 q 478 1222 478 1176 q 506 1297 478 1269 q 579 1324 533 1324 q 654 1297 626 1324 q 682 1222 682 1269 q 654 1149 682 1176 q 579 1122 626 1122 m 254 1122 q 179 1149 207 1122 q 151 1222 151 1176 q 179 1297 151 1269 q 254 1324 207 1324 q 328 1297 300 1324 q 356 1222 356 1269 q 328 1149 356 1176 q 254 1122 300 1122 z "},"İ":{"ha":833,"x_min":125,"x_max":708,"o":"m 125 0 l 125 153 l 329 153 l 329 861 l 125 861 l 125 1014 l 708 1014 l 708 861 l 504 861 l 504 153 l 708 153 l 708 0 l 125 0 m 417 1122 q 333 1149 364 1122 q 303 1222 303 1176 q 333 1295 303 1268 q 417 1322 364 1322 q 500 1295 469 1322 q 531 1222 531 1268 q 500 1149 531 1176 q 417 1122 469 1122 z "},"Ị":{"ha":833,"x_min":125,"x_max":708,"o":"m 125 0 l 125 153 l 329 153 l 329 861 l 125 861 l 125 1014 l 708 1014 l 708 861 l 504 861 l 504 153 l 708 153 l 708 0 l 125 0 m 417 -312 q 333 -285 364 -312 q 303 -212 303 -258 q 333 -138 303 -165 q 417 -111 364 -111 q 500 -138 469 -111 q 531 -212 531 -165 q 500 -285 531 -258 q 417 -312 469 -312 z "},"Ì":{"ha":833,"x_min":125,"x_max":708,"o":"m 125 0 l 125 153 l 329 153 l 329 861 l 125 861 l 125 1014 l 708 1014 l 708 861 l 504 861 l 504 153 l 708 153 l 708 0 l 125 0 m 346 1125 l 185 1319 l 376 1319 l 525 1125 l 346 1125 z "},"Ỉ":{"ha":833,"x_min":125,"x_max":708,"o":"m 125 0 l 125 153 l 329 153 l 329 861 l 125 861 l 125 1014 l 708 1014 l 708 861 l 504 861 l 504 153 l 708 153 l 708 0 l 125 0 m 346 1108 l 413 1192 q 432 1233 432 1217 q 392 1258 432 1258 l 283 1258 l 283 1365 l 415 1365 q 521 1334 481 1365 q 561 1251 561 1303 q 533 1172 561 1208 l 485 1108 l 346 1108 z "},"Ī":{"ha":833,"x_min":125,"x_max":708,"o":"m 125 0 l 125 153 l 329 153 l 329 861 l 125 861 l 125 1014 l 708 1014 l 708 861 l 504 861 l 504 153 l 708 153 l 708 0 l 125 0 m 178 1150 l 178 1283 l 656 1283 l 656 1150 l 178 1150 z "},"Į":{"ha":833,"x_min":125,"x_max":708,"o":"m 125 0 l 125 153 l 329 153 l 329 861 l 125 861 l 125 1014 l 708 1014 l 708 861 l 504 861 l 504 153 l 708 153 l 708 0 l 476 0 l 461 -14 q 390 -121 390 -75 q 409 -163 390 -146 q 460 -181 428 -181 l 550 -181 l 550 -300 l 418 -300 q 288 -260 336 -300 q 240 -157 240 -219 q 354 0 240 -71 l 125 0 z "},"Ĩ":{"ha":833,"x_min":125,"x_max":708,"o":"m 125 0 l 125 153 l 329 153 l 329 861 l 125 861 l 125 1014 l 708 1014 l 708 861 l 504 861 l 504 153 l 708 153 l 708 0 l 125 0 m 514 1119 q 444 1133 471 1119 q 399 1165 417 1147 q 365 1195 381 1182 q 326 1208 349 1208 q 285 1163 285 1208 l 285 1126 l 178 1126 l 178 1172 q 217 1283 178 1240 q 319 1325 256 1325 q 390 1311 363 1325 q 435 1280 417 1297 q 469 1249 453 1263 q 507 1236 485 1236 q 549 1279 549 1236 l 549 1318 l 656 1318 l 656 1272 q 617 1162 656 1204 q 514 1119 578 1119 z "},"J":{"ha":833,"x_min":42,"x_max":708,"o":"m 375 -15 q 131 69 221 -15 q 42 300 42 154 l 215 300 q 258 181 215 224 q 375 138 300 138 q 492 180 449 138 q 535 299 535 222 l 535 853 l 250 853 l 250 1014 l 708 1014 l 708 299 q 619 69 708 153 q 375 -15 529 -15 z "},"Ĵ":{"ha":833,"x_min":42,"x_max":771,"o":"m 375 -15 q 131 69 221 -15 q 42 300 42 154 l 215 300 q 258 181 215 224 q 375 138 300 138 q 492 180 449 138 q 535 299 535 222 l 535 853 l 250 853 l 250 1014 l 708 1014 l 708 299 q 619 69 708 153 q 375 -15 529 -15 m 229 1125 l 419 1319 l 581 1319 l 771 1125 l 604 1125 l 499 1226 l 397 1125 l 229 1125 z "},"K":{"ha":833,"x_min":106,"x_max":790,"o":"m 106 0 l 106 1014 l 279 1014 l 279 604 l 400 604 l 590 1014 l 779 1014 l 553 528 l 790 0 l 597 0 l 397 446 l 279 446 l 279 0 l 106 0 z "},"Ķ":{"ha":833,"x_min":106,"x_max":790,"o":"m 106 0 l 106 1014 l 279 1014 l 279 604 l 400 604 l 590 1014 l 779 1014 l 553 528 l 790 0 l 597 0 l 397 446 l 279 446 l 279 0 l 106 0 m 251 -333 l 383 -132 l 567 -132 l 413 -333 l 251 -333 z "},"L":{"ha":833,"x_min":143,"x_max":747,"o":"m 143 0 l 143 1014 l 317 1014 l 317 161 l 747 161 l 747 0 l 143 0 z "},"Ĺ":{"ha":833,"x_min":125,"x_max":747,"o":"m 143 0 l 143 1014 l 317 1014 l 317 161 l 747 161 l 747 0 l 143 0 m 125 1125 l 272 1319 l 458 1319 l 300 1125 l 125 1125 z "},"Ľ":{"ha":833,"x_min":143,"x_max":747,"o":"m 143 0 l 143 1014 l 317 1014 l 317 161 l 747 161 l 747 0 l 143 0 m 485 764 l 499 1014 l 661 1014 l 633 764 l 485 764 z "},"Ļ":{"ha":833,"x_min":143,"x_max":747,"o":"m 143 0 l 143 1014 l 317 1014 l 317 161 l 747 161 l 747 0 l 143 0 m 279 -333 l 411 -132 l 594 -132 l 440 -333 l 279 -333 z "},"Ŀ":{"ha":833,"x_min":143,"x_max":768,"o":"m 143 0 l 143 1014 l 317 1014 l 317 161 l 747 161 l 747 0 l 143 0 m 638 368 q 542 403 578 368 q 507 497 507 438 q 542 592 507 557 q 638 628 578 628 q 733 592 697 628 q 768 497 768 557 q 733 403 768 438 q 638 368 697 368 z "},"Ł":{"ha":833,"x_min":28,"x_max":756,"o":"m 151 0 l 151 390 l 28 319 l 28 479 l 151 550 l 151 1014 l 325 1014 l 325 650 l 550 778 l 550 618 l 325 490 l 325 161 l 756 161 l 756 0 l 151 0 z "},"M":{"ha":833,"x_min":78,"x_max":756,"o":"m 78 0 l 78 1014 l 283 1014 l 383 692 q 406 603 397 643 q 418 544 415 564 q 430 603 421 564 q 454 692 439 643 l 550 1014 l 756 1014 l 756 0 l 593 0 l 593 315 q 597 467 593 385 q 606 631 600 549 q 617 786 611 713 q 629 915 624 860 l 492 436 l 340 436 l 200 915 q 214 791 207 863 q 226 638 221 719 q 236 473 232 556 q 240 315 240 390 l 240 0 l 78 0 z "},"N":{"ha":833,"x_min":100,"x_max":733,"o":"m 100 0 l 100 1014 l 313 1014 l 594 194 q 586 299 590 239 q 578 422 582 360 q 575 533 575 485 l 575 1014 l 733 1014 l 733 0 l 521 0 l 242 819 q 249 722 244 779 q 256 606 253 665 q 258 496 258 546 l 258 0 l 100 0 z "},"Ń":{"ha":833,"x_min":100,"x_max":733,"o":"m 100 0 l 100 1014 l 313 1014 l 594 194 q 586 299 590 239 q 578 422 582 360 q 575 533 575 485 l 575 1014 l 733 1014 l 733 0 l 521 0 l 242 819 q 249 722 244 779 q 256 606 253 665 q 258 496 258 546 l 258 0 l 100 0 m 311 1125 l 458 1319 l 644 1319 l 486 1125 l 311 1125 z "},"Ň":{"ha":833,"x_min":100,"x_max":733,"o":"m 100 0 l 100 1014 l 313 1014 l 594 194 q 586 299 590 239 q 578 422 582 360 q 575 533 575 485 l 575 1014 l 733 1014 l 733 0 l 521 0 l 242 819 q 249 722 244 779 q 256 606 253 665 q 258 496 258 546 l 258 0 l 100 0 m 336 1125 l 146 1319 l 313 1319 l 418 1218 l 519 1319 l 688 1319 l 497 1125 l 336 1125 z "},"Ņ":{"ha":833,"x_min":100,"x_max":733,"o":"m 100 0 l 100 1014 l 313 1014 l 594 194 q 586 299 590 239 q 578 422 582 360 q 575 533 575 485 l 575 1014 l 733 1014 l 733 0 l 521 0 l 242 819 q 249 722 244 779 q 256 606 253 665 q 258 496 258 546 l 258 0 l 100 0 m 251 -333 l 383 -132 l 567 -132 l 413 -333 l 251 -333 z "},"Ŋ":{"ha":833,"x_min":100,"x_max":733,"o":"m 342 -250 l 342 -85 l 428 -85 q 524 -51 489 -85 q 558 42 558 -18 l 242 819 q 249 722 244 779 q 256 606 253 665 q 258 496 258 546 l 258 0 l 100 0 l 100 1014 l 313 1014 l 594 317 q 586 422 590 361 q 578 544 582 482 q 575 656 575 607 l 575 1014 l 733 1014 l 733 29 q 694 -117 733 -54 q 583 -215 654 -179 q 419 -250 513 -250 l 342 -250 z "},"Ñ":{"ha":833,"x_min":100,"x_max":733,"o":"m 100 0 l 100 1014 l 313 1014 l 594 194 q 586 299 590 239 q 578 422 582 360 q 575 533 575 485 l 575 1014 l 733 1014 l 733 0 l 521 0 l 242 819 q 249 722 244 779 q 256 606 253 665 q 258 496 258 546 l 258 0 l 100 0 m 514 1119 q 444 1133 471 1119 q 399 1165 417 1147 q 365 1195 381 1182 q 326 1208 349 1208 q 285 1163 285 1208 l 285 1126 l 178 1126 l 178 1172 q 217 1283 178 1240 q 319 1325 256 1325 q 390 1311 363 1325 q 435 1280 417 1297 q 469 1249 453 1263 q 507 1236 485 1236 q 549 1279 549 1236 l 549 1318 l 656 1318 l 656 1272 q 617 1162 656 1204 q 514 1119 578 1119 z "},"O":{"ha":833,"x_min":100,"x_max":733,"o":"m 417 -14 q 185 67 271 -14 q 100 286 100 149 l 100 728 q 185 947 100 865 q 417 1028 271 1028 q 648 947 563 1028 q 733 729 733 865 l 733 286 q 648 67 733 149 q 417 -14 563 -14 m 417 139 q 524 177 488 139 q 560 286 560 215 l 560 728 q 524 837 560 799 q 417 875 488 875 q 310 837 346 875 q 274 728 274 799 l 274 286 q 310 177 274 215 q 417 139 346 139 z "},"Ó":{"ha":833,"x_min":100,"x_max":733,"o":"m 417 -14 q 185 67 271 -14 q 100 286 100 149 l 100 728 q 185 947 100 865 q 417 1028 271 1028 q 648 947 563 1028 q 733 729 733 865 l 733 286 q 648 67 733 149 q 417 -14 563 -14 m 417 139 q 524 177 488 139 q 560 286 560 215 l 560 728 q 524 837 560 799 q 417 875 488 875 q 310 837 346 875 q 274 728 274 799 l 274 286 q 310 177 274 215 q 417 139 346 139 m 311 1125 l 458 1319 l 644 1319 l 486 1125 l 311 1125 z "},"Ŏ":{"ha":833,"x_min":100,"x_max":733,"o":"m 417 -14 q 185 67 271 -14 q 100 286 100 149 l 100 728 q 185 947 100 865 q 417 1028 271 1028 q 648 947 563 1028 q 733 729 733 865 l 733 286 q 648 67 733 149 q 417 -14 563 -14 m 417 139 q 524 177 488 139 q 560 286 560 215 l 560 728 q 524 837 560 799 q 417 875 488 875 q 310 837 346 875 q 274 728 274 799 l 274 286 q 310 177 274 215 q 417 139 346 139 m 417 1114 q 242 1170 308 1114 q 175 1319 175 1226 l 310 1319 q 339 1246 310 1274 q 417 1218 368 1218 q 495 1246 465 1218 q 525 1319 525 1274 l 660 1319 q 593 1170 660 1226 q 417 1114 526 1114 z "},"Ô":{"ha":833,"x_min":100,"x_max":733,"o":"m 417 -14 q 185 67 271 -14 q 100 286 100 149 l 100 728 q 185 947 100 865 q 417 1028 271 1028 q 648 947 563 1028 q 733 729 733 865 l 733 286 q 648 67 733 149 q 417 -14 563 -14 m 417 139 q 524 177 488 139 q 560 286 560 215 l 560 728 q 524 837 560 799 q 417 875 488 875 q 310 837 346 875 q 274 728 274 799 l 274 286 q 310 177 274 215 q 417 139 346 139 m 146 1125 l 336 1319 l 497 1319 l 688 1125 l 521 1125 l 415 1226 l 314 1125 l 146 1125 z "},"Ố":{"ha":833,"x_min":100,"x_max":899,"o":"m 417 -14 q 185 67 271 -14 q 100 286 100 149 l 100 728 q 185 947 100 865 q 417 1028 271 1028 q 648 947 563 1028 q 733 729 733 865 l 733 286 q 648 67 733 149 q 417 -14 563 -14 m 417 139 q 524 177 488 139 q 560 286 560 215 l 560 728 q 524 837 560 799 q 417 875 488 875 q 310 837 346 875 q 274 728 274 799 l 274 286 q 310 177 274 215 q 417 139 346 139 m 576 1254 l 722 1417 l 899 1417 l 742 1254 l 576 1254 m 146 1083 l 336 1278 l 497 1278 l 688 1083 l 519 1083 l 417 1185 l 314 1083 l 146 1083 z "},"Ộ":{"ha":833,"x_min":100,"x_max":733,"o":"m 417 -14 q 185 67 271 -14 q 100 286 100 149 l 100 728 q 185 947 100 865 q 417 1028 271 1028 q 648 947 563 1028 q 733 729 733 865 l 733 286 q 648 67 733 149 q 417 -14 563 -14 m 417 139 q 524 177 488 139 q 560 286 560 215 l 560 728 q 524 837 560 799 q 417 875 488 875 q 310 837 346 875 q 274 728 274 799 l 274 286 q 310 177 274 215 q 417 139 346 139 m 417 -312 q 333 -285 364 -312 q 303 -212 303 -258 q 333 -138 303 -165 q 417 -111 364 -111 q 500 -138 469 -111 q 531 -212 531 -165 q 500 -285 531 -258 q 417 -312 469 -312 m 146 1125 l 336 1319 l 497 1319 l 688 1125 l 521 1125 l 415 1226 l 314 1125 l 146 1125 z "},"Ồ":{"ha":833,"x_min":100,"x_max":790,"o":"m 417 -14 q 185 67 271 -14 q 100 286 100 149 l 100 728 q 185 947 100 865 q 417 1028 271 1028 q 648 947 563 1028 q 733 729 733 865 l 733 286 q 648 67 733 149 q 417 -14 563 -14 m 417 139 q 524 177 488 139 q 560 286 560 215 l 560 728 q 524 837 560 799 q 417 875 488 875 q 310 837 346 875 q 274 728 274 799 l 274 286 q 310 177 274 215 q 417 139 346 139 m 626 1254 l 464 1417 l 639 1417 l 790 1254 l 626 1254 m 146 1083 l 336 1278 l 497 1278 l 688 1083 l 519 1083 l 417 1185 l 314 1083 l 146 1083 z "},"Ổ":{"ha":833,"x_min":100,"x_max":797,"o":"m 417 -14 q 185 67 271 -14 q 100 286 100 149 l 100 728 q 185 947 100 865 q 417 1028 271 1028 q 648 947 563 1028 q 733 729 733 865 l 733 286 q 648 67 733 149 q 417 -14 563 -14 m 417 139 q 524 177 488 139 q 560 286 560 215 l 560 728 q 524 837 560 799 q 417 875 488 875 q 310 837 346 875 q 274 728 274 799 l 274 286 q 310 177 274 215 q 417 139 346 139 m 599 1214 l 653 1269 q 668 1299 668 1283 q 639 1321 668 1321 l 544 1321 l 544 1417 l 671 1417 q 763 1390 728 1417 q 797 1314 797 1363 q 768 1247 797 1272 l 732 1214 l 599 1214 m 146 1083 l 336 1278 l 497 1278 l 688 1083 l 519 1083 l 417 1185 l 314 1083 l 146 1083 z "},"Ỗ":{"ha":833,"x_min":100,"x_max":733,"o":"m 417 -14 q 185 67 271 -14 q 100 286 100 149 l 100 728 q 185 947 100 865 q 417 1028 271 1028 q 648 947 563 1028 q 733 729 733 865 l 733 286 q 648 67 733 149 q 417 -14 563 -14 m 417 139 q 524 177 488 139 q 560 286 560 215 l 560 728 q 524 837 560 799 q 417 875 488 875 q 310 837 346 875 q 274 728 274 799 l 274 286 q 310 177 274 215 q 417 139 346 139 m 526 1269 q 436 1283 471 1269 q 375 1311 401 1297 q 319 1325 349 1325 q 282 1288 282 1325 l 282 1279 l 175 1279 l 175 1288 q 211 1382 175 1347 q 308 1417 247 1417 q 398 1403 364 1417 q 458 1375 432 1389 q 514 1361 485 1361 q 551 1399 551 1361 l 551 1407 l 658 1407 l 658 1399 q 622 1304 658 1339 q 526 1269 586 1269 m 146 1083 l 290 1231 l 543 1231 l 688 1083 l 518 1083 l 417 1186 l 314 1083 l 146 1083 z "},"Ö":{"ha":833,"x_min":100,"x_max":733,"o":"m 417 -14 q 185 67 271 -14 q 100 286 100 149 l 100 728 q 185 947 100 865 q 417 1028 271 1028 q 648 947 563 1028 q 733 729 733 865 l 733 286 q 648 67 733 149 q 417 -14 563 -14 m 417 139 q 524 177 488 139 q 560 286 560 215 l 560 728 q 524 837 560 799 q 417 875 488 875 q 310 837 346 875 q 274 728 274 799 l 274 286 q 310 177 274 215 q 417 139 346 139 m 579 1122 q 506 1149 533 1122 q 478 1222 478 1176 q 506 1297 478 1269 q 579 1324 533 1324 q 654 1297 626 1324 q 682 1222 682 1269 q 654 1149 682 1176 q 579 1122 626 1122 m 254 1122 q 179 1149 207 1122 q 151 1222 151 1176 q 179 1297 151 1269 q 254 1324 207 1324 q 328 1297 300 1324 q 356 1222 356 1269 q 328 1149 356 1176 q 254 1122 300 1122 z "},"Ọ":{"ha":833,"x_min":100,"x_max":733,"o":"m 417 -14 q 185 67 271 -14 q 100 286 100 149 l 100 728 q 185 947 100 865 q 417 1028 271 1028 q 648 947 563 1028 q 733 729 733 865 l 733 286 q 648 67 733 149 q 417 -14 563 -14 m 417 139 q 524 177 488 139 q 560 286 560 215 l 560 728 q 524 837 560 799 q 417 875 488 875 q 310 837 346 875 q 274 728 274 799 l 274 286 q 310 177 274 215 q 417 139 346 139 m 417 -312 q 333 -285 364 -312 q 303 -212 303 -258 q 333 -138 303 -165 q 417 -111 364 -111 q 500 -138 469 -111 q 531 -212 531 -165 q 500 -285 531 -258 q 417 -312 469 -312 z "},"Ò":{"ha":833,"x_min":100,"x_max":733,"o":"m 417 -14 q 185 67 271 -14 q 100 286 100 149 l 100 728 q 185 947 100 865 q 417 1028 271 1028 q 648 947 563 1028 q 733 729 733 865 l 733 286 q 648 67 733 149 q 417 -14 563 -14 m 417 139 q 524 177 488 139 q 560 286 560 215 l 560 728 q 524 837 560 799 q 417 875 488 875 q 310 837 346 875 q 274 728 274 799 l 274 286 q 310 177 274 215 q 417 139 346 139 m 346 1125 l 185 1319 l 376 1319 l 525 1125 l 346 1125 z "},"Ỏ":{"ha":833,"x_min":100,"x_max":733,"o":"m 417 -14 q 185 67 271 -14 q 100 286 100 149 l 100 728 q 185 947 100 865 q 417 1028 271 1028 q 648 947 563 1028 q 733 729 733 865 l 733 286 q 648 67 733 149 q 417 -14 563 -14 m 417 139 q 524 177 488 139 q 560 286 560 215 l 560 728 q 524 837 560 799 q 417 875 488 875 q 310 837 346 875 q 274 728 274 799 l 274 286 q 310 177 274 215 q 417 139 346 139 m 346 1108 l 413 1192 q 432 1233 432 1217 q 392 1258 432 1258 l 283 1258 l 283 1365 l 415 1365 q 521 1334 481 1365 q 561 1251 561 1303 q 533 1172 561 1208 l 485 1108 l 346 1108 z "},"Ơ":{"ha":833,"x_min":100,"x_max":782,"o":"m 417 -14 q 185 67 271 -14 q 100 286 100 149 l 100 728 q 185 947 100 865 q 417 1028 271 1028 q 613 975 532 1028 q 640 1021 640 986 l 640 1125 l 782 1125 l 782 1018 q 760 933 782 969 q 701 876 739 896 q 733 729 733 811 l 733 286 q 648 67 733 149 q 417 -14 563 -14 m 417 139 q 524 177 488 139 q 560 286 560 215 l 560 728 q 524 837 560 799 q 417 875 488 875 q 310 837 346 875 q 274 728 274 799 l 274 286 q 310 177 274 215 q 417 139 346 139 z "},"Ớ":{"ha":833,"x_min":100,"x_max":782,"o":"m 417 -14 q 185 67 271 -14 q 100 286 100 149 l 100 728 q 185 947 100 865 q 417 1028 271 1028 q 613 975 532 1028 q 640 1021 640 986 l 640 1125 l 782 1125 l 782 1018 q 760 933 782 969 q 701 876 739 896 q 733 729 733 811 l 733 286 q 648 67 733 149 q 417 -14 563 -14 m 417 139 q 524 177 488 139 q 560 286 560 215 l 560 728 q 524 837 560 799 q 417 875 488 875 q 310 837 346 875 q 274 728 274 799 l 274 286 q 310 177 274 215 q 417 139 346 139 m 297 1125 l 444 1319 l 631 1319 l 472 1125 l 297 1125 z "},"Ợ":{"ha":833,"x_min":100,"x_max":782,"o":"m 417 -14 q 185 67 271 -14 q 100 286 100 149 l 100 728 q 185 947 100 865 q 417 1028 271 1028 q 613 975 532 1028 q 640 1021 640 986 l 640 1125 l 782 1125 l 782 1018 q 760 933 782 969 q 701 876 739 896 q 733 729 733 811 l 733 286 q 648 67 733 149 q 417 -14 563 -14 m 417 139 q 524 177 488 139 q 560 286 560 215 l 560 728 q 524 837 560 799 q 417 875 488 875 q 310 837 346 875 q 274 728 274 799 l 274 286 q 310 177 274 215 q 417 139 346 139 m 417 -312 q 333 -285 364 -312 q 303 -212 303 -258 q 333 -138 303 -165 q 417 -111 364 -111 q 500 -138 469 -111 q 531 -212 531 -165 q 500 -285 531 -258 q 417 -312 469 -312 z "},"Ờ":{"ha":833,"x_min":100,"x_max":782,"o":"m 417 -14 q 185 67 271 -14 q 100 286 100 149 l 100 728 q 185 947 100 865 q 417 1028 271 1028 q 613 975 532 1028 q 640 1021 640 986 l 640 1125 l 782 1125 l 782 1018 q 760 933 782 969 q 701 876 739 896 q 733 729 733 811 l 733 286 q 648 67 733 149 q 417 -14 563 -14 m 417 139 q 524 177 488 139 q 560 286 560 215 l 560 728 q 524 837 560 799 q 417 875 488 875 q 310 837 346 875 q 274 728 274 799 l 274 286 q 310 177 274 215 q 417 139 346 139 m 332 1125 l 171 1319 l 363 1319 l 511 1125 l 332 1125 z "},"Ở":{"ha":833,"x_min":100,"x_max":782,"o":"m 417 -14 q 185 67 271 -14 q 100 286 100 149 l 100 728 q 185 947 100 865 q 417 1028 271 1028 q 613 975 532 1028 q 640 1021 640 986 l 640 1125 l 782 1125 l 782 1018 q 760 933 782 969 q 701 876 739 896 q 733 729 733 811 l 733 286 q 648 67 733 149 q 417 -14 563 -14 m 417 139 q 524 177 488 139 q 560 286 560 215 l 560 728 q 524 837 560 799 q 417 875 488 875 q 310 837 346 875 q 274 728 274 799 l 274 286 q 310 177 274 215 q 417 139 346 139 m 332 1108 l 399 1192 q 418 1233 418 1217 q 378 1258 418 1258 l 269 1258 l 269 1365 l 401 1365 q 507 1334 467 1365 q 547 1251 547 1303 q 519 1172 547 1208 l 471 1108 l 332 1108 z "},"Ỡ":{"ha":833,"x_min":100,"x_max":782,"o":"m 417 -14 q 185 67 271 -14 q 100 286 100 149 l 100 728 q 185 947 100 865 q 417 1028 271 1028 q 613 975 532 1028 q 640 1021 640 986 l 640 1125 l 782 1125 l 782 1018 q 760 933 782 969 q 701 876 739 896 q 733 729 733 811 l 733 286 q 648 67 733 149 q 417 -14 563 -14 m 417 139 q 524 177 488 139 q 560 286 560 215 l 560 728 q 524 837 560 799 q 417 875 488 875 q 310 837 346 875 q 274 728 274 799 l 274 286 q 310 177 274 215 q 417 139 346 139 m 500 1119 q 430 1133 457 1119 q 385 1165 403 1147 q 351 1195 367 1182 q 313 1208 335 1208 q 271 1163 271 1208 l 271 1126 l 164 1126 l 164 1172 q 203 1283 164 1240 q 306 1325 242 1325 q 376 1311 349 1325 q 421 1280 403 1297 q 455 1249 439 1263 q 493 1236 471 1236 q 535 1279 535 1236 l 535 1318 l 642 1318 l 642 1272 q 603 1162 642 1204 q 500 1119 564 1119 z "},"Ő":{"ha":833,"x_min":100,"x_max":768,"o":"m 417 -14 q 185 67 271 -14 q 100 286 100 149 l 100 728 q 185 947 100 865 q 417 1028 271 1028 q 648 947 563 1028 q 733 729 733 865 l 733 286 q 648 67 733 149 q 417 -14 563 -14 m 417 139 q 524 177 488 139 q 560 286 560 215 l 560 728 q 524 837 560 799 q 417 875 488 875 q 310 837 346 875 q 274 728 274 799 l 274 286 q 310 177 274 215 q 417 139 346 139 m 450 1125 l 599 1319 l 768 1319 l 608 1125 l 450 1125 m 169 1125 l 319 1319 l 488 1319 l 328 1125 l 169 1125 z "},"Ō":{"ha":833,"x_min":100,"x_max":733,"o":"m 417 -14 q 185 67 271 -14 q 100 286 100 149 l 100 728 q 185 947 100 865 q 417 1028 271 1028 q 648 947 563 1028 q 733 729 733 865 l 733 286 q 648 67 733 149 q 417 -14 563 -14 m 417 139 q 524 177 488 139 q 560 286 560 215 l 560 728 q 524 837 560 799 q 417 875 488 875 q 310 837 346 875 q 274 728 274 799 l 274 286 q 310 177 274 215 q 417 139 346 139 m 178 1150 l 178 1283 l 656 1283 l 656 1150 l 178 1150 z "},"Ǫ":{"ha":833,"x_min":100,"x_max":733,"o":"m 506 -300 q 377 -260 425 -300 q 329 -157 329 -219 q 356 -85 329 -124 q 426 -12 383 -46 l 417 -14 q 185 67 271 -14 q 100 286 100 149 l 100 728 q 185 947 100 865 q 417 1028 271 1028 q 648 947 563 1028 q 733 729 733 865 l 733 286 q 698 135 733 201 q 600 32 663 69 l 544 -14 q 494 -69 510 -42 q 479 -121 479 -97 q 497 -163 479 -146 q 549 -181 515 -181 l 639 -181 l 639 -300 l 506 -300 m 417 139 q 524 177 488 139 q 560 286 560 215 l 560 728 q 524 837 560 799 q 417 875 488 875 q 310 837 346 875 q 274 728 274 799 l 274 286 q 310 177 274 215 q 417 139 346 139 z "},"Ø":{"ha":833,"x_min":32,"x_max":801,"o":"m 32 -56 l 138 129 q 100 286 100 196 l 100 728 q 185 947 100 865 q 417 1028 271 1028 q 617 972 536 1028 l 657 1042 l 801 1042 l 704 871 q 733 729 733 808 l 733 286 q 648 67 733 149 q 417 -14 563 -14 q 228 35 306 -14 l 176 -56 l 32 -56 m 269 728 l 269 361 l 535 828 q 417 875 497 875 q 308 837 346 875 q 269 728 269 799 m 417 139 q 526 177 488 139 q 564 286 564 215 l 564 625 l 308 176 q 417 139 346 139 z "},"Ǿ":{"ha":833,"x_min":32,"x_max":801,"o":"m 32 -56 l 138 129 q 100 286 100 196 l 100 728 q 185 947 100 865 q 417 1028 271 1028 q 617 972 536 1028 l 657 1042 l 801 1042 l 704 871 q 733 729 733 808 l 733 286 q 648 67 733 149 q 417 -14 563 -14 q 228 35 306 -14 l 176 -56 l 32 -56 m 269 728 l 269 361 l 535 828 q 417 875 497 875 q 308 837 346 875 q 269 728 269 799 m 417 139 q 526 177 488 139 q 564 286 564 215 l 564 625 l 308 176 q 417 139 346 139 m 311 1125 l 458 1319 l 644 1319 l 486 1125 l 311 1125 z "},"Õ":{"ha":833,"x_min":100,"x_max":733,"o":"m 417 -14 q 185 67 271 -14 q 100 286 100 149 l 100 728 q 185 947 100 865 q 417 1028 271 1028 q 648 947 563 1028 q 733 729 733 865 l 733 286 q 648 67 733 149 q 417 -14 563 -14 m 417 139 q 524 177 488 139 q 560 286 560 215 l 560 728 q 524 837 560 799 q 417 875 488 875 q 310 837 346 875 q 274 728 274 799 l 274 286 q 310 177 274 215 q 417 139 346 139 m 514 1119 q 444 1133 471 1119 q 399 1165 417 1147 q 365 1195 381 1182 q 326 1208 349 1208 q 285 1163 285 1208 l 285 1126 l 178 1126 l 178 1172 q 217 1283 178 1240 q 319 1325 256 1325 q 390 1311 363 1325 q 435 1280 417 1297 q 469 1249 453 1263 q 507 1236 485 1236 q 549 1279 549 1236 l 549 1318 l 656 1318 l 656 1272 q 617 1162 656 1204 q 514 1119 578 1119 z "},"Œ":{"ha":833,"x_min":47,"x_max":803,"o":"m 254 -8 q 102 64 157 -8 q 47 263 47 136 l 47 757 q 102 956 47 883 q 254 1028 157 1028 q 337 1008 304 1028 q 387 959 369 988 q 407 903 404 931 l 414 903 l 414 1014 l 803 1014 l 803 865 l 569 865 l 569 596 l 768 596 l 768 446 l 569 446 l 569 150 l 803 150 l 803 0 l 414 0 l 414 117 l 407 117 q 387 60 404 89 q 337 11 369 31 q 254 -8 304 -8 m 311 139 q 383 172 357 139 q 410 263 410 204 l 410 757 q 383 848 410 815 q 311 881 357 881 q 239 847 265 881 q 213 757 213 814 l 213 263 q 239 172 213 204 q 311 139 265 139 z "},"P":{"ha":833,"x_min":107,"x_max":781,"o":"m 107 0 l 107 1014 l 444 1014 q 622 975 546 1014 q 739 866 697 936 q 781 701 781 796 q 739 537 781 607 q 622 428 697 467 q 444 389 546 389 l 281 389 l 281 0 l 107 0 m 281 546 l 444 546 q 561 588 518 546 q 604 701 604 631 q 561 815 604 772 q 444 857 518 857 l 281 857 l 281 546 z "},"Þ":{"ha":833,"x_min":108,"x_max":781,"o":"m 108 0 l 108 1014 l 282 1014 l 282 818 l 468 818 q 697 740 613 818 q 781 528 781 663 q 697 315 781 393 q 468 238 613 238 l 282 238 l 282 0 l 108 0 m 282 386 l 447 386 q 563 424 522 386 q 604 528 604 461 q 563 632 604 594 q 447 669 522 669 l 282 669 l 282 386 z "},"Q":{"ha":833,"x_min":94,"x_max":756,"o":"m 568 -250 l 425 -14 q 417 -14 421 -14 q 247 24 319 -14 q 135 129 175 61 q 94 289 94 197 l 94 725 q 134 885 94 817 q 247 990 174 953 q 417 1028 319 1028 q 586 990 514 1028 q 699 885 658 953 q 739 725 739 817 l 739 289 q 699 128 739 197 q 588 24 660 60 l 756 -250 l 568 -250 m 417 139 q 527 178 489 139 q 565 289 565 218 l 565 725 q 526 836 565 796 q 417 876 486 876 q 308 836 347 876 q 268 725 268 796 l 268 289 q 306 178 268 218 q 417 139 344 139 z "},"R":{"ha":833,"x_min":106,"x_max":774,"o":"m 106 0 l 106 1014 l 426 1014 q 602 976 528 1014 q 718 872 676 939 q 760 713 760 804 q 709 535 760 611 q 572 428 658 460 l 774 0 l 579 0 l 403 403 l 279 403 l 279 0 l 106 0 m 279 556 l 426 556 q 542 596 500 556 q 583 707 583 636 q 541 819 583 778 q 426 861 499 861 l 279 861 l 279 556 z "},"Ŕ":{"ha":833,"x_min":106,"x_max":774,"o":"m 106 0 l 106 1014 l 426 1014 q 602 976 528 1014 q 718 872 676 939 q 760 713 760 804 q 709 535 760 611 q 572 428 658 460 l 774 0 l 579 0 l 403 403 l 279 403 l 279 0 l 106 0 m 279 556 l 426 556 q 542 596 500 556 q 583 707 583 636 q 541 819 583 778 q 426 861 499 861 l 279 861 l 279 556 m 311 1125 l 458 1319 l 644 1319 l 486 1125 l 311 1125 z "},"Ř":{"ha":833,"x_min":106,"x_max":774,"o":"m 106 0 l 106 1014 l 426 1014 q 602 976 528 1014 q 718 872 676 939 q 760 713 760 804 q 709 535 760 611 q 572 428 658 460 l 774 0 l 579 0 l 403 403 l 279 403 l 279 0 l 106 0 m 279 556 l 426 556 q 542 596 500 556 q 583 707 583 636 q 541 819 583 778 q 426 861 499 861 l 279 861 l 279 556 m 336 1125 l 146 1319 l 313 1319 l 418 1218 l 519 1319 l 688 1319 l 497 1125 l 336 1125 z "},"Ŗ":{"ha":833,"x_min":106,"x_max":774,"o":"m 106 0 l 106 1014 l 426 1014 q 602 976 528 1014 q 718 872 676 939 q 760 713 760 804 q 709 535 760 611 q 572 428 658 460 l 774 0 l 579 0 l 403 403 l 279 403 l 279 0 l 106 0 m 279 556 l 426 556 q 542 596 500 556 q 583 707 583 636 q 541 819 583 778 q 426 861 499 861 l 279 861 l 279 556 m 251 -333 l 383 -132 l 567 -132 l 413 -333 l 251 -333 z "},"S":{"ha":833,"x_min":79,"x_max":754,"o":"m 419 -14 q 172 63 264 -14 q 79 272 81 140 l 253 272 q 298 174 253 210 q 421 139 343 139 q 538 174 496 139 q 581 269 581 208 q 550 358 581 321 q 465 411 519 396 l 349 443 q 165 553 229 474 q 100 744 100 632 q 139 894 100 831 q 249 993 178 958 q 418 1028 321 1028 q 651 952 565 1028 q 739 749 738 876 l 565 749 q 526 842 565 808 q 417 876 488 876 q 310 844 347 876 q 274 754 274 811 q 302 665 274 701 q 385 613 331 628 l 506 579 q 690 470 626 549 q 754 276 754 392 q 713 124 754 190 q 595 22 671 58 q 419 -14 519 -14 z "},"Ś":{"ha":833,"x_min":79,"x_max":754,"o":"m 419 -14 q 172 63 264 -14 q 79 272 81 140 l 253 272 q 298 174 253 210 q 421 139 343 139 q 538 174 496 139 q 581 269 581 208 q 550 358 581 321 q 465 411 519 396 l 349 443 q 165 553 229 474 q 100 744 100 632 q 139 894 100 831 q 249 993 178 958 q 418 1028 321 1028 q 651 952 565 1028 q 739 749 738 876 l 565 749 q 526 842 565 808 q 417 876 488 876 q 310 844 347 876 q 274 754 274 811 q 302 665 274 701 q 385 613 331 628 l 506 579 q 690 470 626 549 q 754 276 754 392 q 713 124 754 190 q 595 22 671 58 q 419 -14 519 -14 m 311 1125 l 458 1319 l 644 1319 l 486 1125 l 311 1125 z "},"Š":{"ha":833,"x_min":79,"x_max":754,"o":"m 419 -14 q 172 63 264 -14 q 79 272 81 140 l 253 272 q 298 174 253 210 q 421 139 343 139 q 538 174 496 139 q 581 269 581 208 q 550 358 581 321 q 465 411 519 396 l 349 443 q 165 553 229 474 q 100 744 100 632 q 139 894 100 831 q 249 993 178 958 q 418 1028 321 1028 q 651 952 565 1028 q 739 749 738 876 l 565 749 q 526 842 565 808 q 417 876 488 876 q 310 844 347 876 q 274 754 274 811 q 302 665 274 701 q 385 613 331 628 l 506 579 q 690 470 626 549 q 754 276 754 392 q 713 124 754 190 q 595 22 671 58 q 419 -14 519 -14 m 336 1125 l 146 1319 l 313 1319 l 418 1218 l 519 1319 l 688 1319 l 497 1125 l 336 1125 z "},"Ş":{"ha":833,"x_min":79,"x_max":754,"o":"m 276 -300 l 276 -211 l 382 -211 q 435 -195 415 -211 q 456 -161 456 -179 q 415 -114 456 -132 q 300 -96 374 -96 l 335 -7 q 149 86 217 13 q 79 272 81 160 l 253 272 q 298 174 253 210 q 421 139 343 139 q 538 174 496 139 q 581 269 581 208 q 550 358 581 321 q 465 411 519 396 l 349 443 q 165 553 229 474 q 100 744 100 632 q 139 894 100 831 q 249 993 178 958 q 418 1028 321 1028 q 651 952 565 1028 q 739 749 738 876 l 565 749 q 526 842 565 808 q 417 876 488 876 q 310 844 347 876 q 274 754 274 811 q 302 665 274 701 q 385 613 331 628 l 506 579 q 690 470 626 549 q 754 276 754 392 q 713 124 754 190 q 597 22 671 58 q 426 -14 524 -14 l 414 -51 q 496 -70 453 -56 q 568 -111 539 -85 q 597 -178 597 -137 q 547 -263 597 -226 q 415 -300 497 -300 l 276 -300 z "},"Ŝ":{"ha":833,"x_min":79,"x_max":754,"o":"m 419 -14 q 172 63 264 -14 q 79 272 81 140 l 253 272 q 298 174 253 210 q 421 139 343 139 q 538 174 496 139 q 581 269 581 208 q 550 358 581 321 q 465 411 519 396 l 349 443 q 165 553 229 474 q 100 744 100 632 q 139 894 100 831 q 249 993 178 958 q 418 1028 321 1028 q 651 952 565 1028 q 739 749 738 876 l 565 749 q 526 842 565 808 q 417 876 488 876 q 310 844 347 876 q 274 754 274 811 q 302 665 274 701 q 385 613 331 628 l 506 579 q 690 470 626 549 q 754 276 754 392 q 713 124 754 190 q 595 22 671 58 q 419 -14 519 -14 m 146 1125 l 336 1319 l 497 1319 l 688 1125 l 521 1125 l 415 1226 l 314 1125 l 146 1125 z "},"Ș":{"ha":833,"x_min":79,"x_max":754,"o":"m 419 -14 q 172 63 264 -14 q 79 272 81 140 l 253 272 q 298 174 253 210 q 421 139 343 139 q 538 174 496 139 q 581 269 581 208 q 550 358 581 321 q 465 411 519 396 l 349 443 q 165 553 229 474 q 100 744 100 632 q 139 894 100 831 q 249 993 178 958 q 418 1028 321 1028 q 651 952 565 1028 q 739 749 738 876 l 565 749 q 526 842 565 808 q 417 876 488 876 q 310 844 347 876 q 274 754 274 811 q 302 665 274 701 q 385 613 331 628 l 506 579 q 690 470 626 549 q 754 276 754 392 q 713 124 754 190 q 595 22 671 58 q 419 -14 519 -14 m 251 -333 l 383 -132 l 567 -132 l 413 -333 l 251 -333 z "},"ẞ":{"ha":833,"x_min":101,"x_max":765,"o":"m 101 0 l 101 717 q 140 874 101 807 q 250 977 179 940 q 414 1014 321 1014 l 749 1014 l 749 849 l 528 586 q 701 495 638 572 q 765 299 765 418 q 725 141 765 208 q 612 37 685 74 q 440 0 539 0 l 360 0 l 360 149 l 431 149 q 546 192 504 149 q 588 308 588 236 q 545 422 588 379 q 431 465 503 465 l 367 465 l 367 600 l 585 865 l 414 865 q 304 825 344 865 q 264 717 264 785 l 264 0 l 101 0 z "},"Ə":{"ha":833,"x_min":100,"x_max":733,"o":"m 418 -14 q 249 24 321 -14 q 139 128 178 61 q 100 286 100 196 l 100 568 l 558 568 l 558 729 q 523 838 558 800 q 418 876 488 876 q 312 838 347 876 q 276 728 276 799 l 103 728 q 188 947 103 865 q 418 1028 272 1028 q 649 947 564 1028 q 733 728 733 865 l 733 286 q 694 128 733 196 q 585 24 656 61 q 418 -14 515 -14 m 418 122 q 526 165 493 122 q 558 286 558 207 l 558 439 l 275 439 l 275 286 q 418 122 275 122 z "},"T":{"ha":833,"x_min":64,"x_max":769,"o":"m 329 0 l 329 853 l 64 853 l 64 1014 l 769 1014 l 769 853 l 504 853 l 504 0 l 329 0 z "},"Ŧ":{"ha":833,"x_min":64,"x_max":769,"o":"m 329 0 l 329 393 l 144 393 l 144 531 l 329 531 l 329 853 l 64 853 l 64 1014 l 769 1014 l 769 853 l 504 853 l 504 531 l 689 531 l 689 393 l 504 393 l 504 0 l 329 0 z "},"Ť":{"ha":833,"x_min":64,"x_max":769,"o":"m 329 0 l 329 853 l 64 853 l 64 1014 l 769 1014 l 769 853 l 504 853 l 504 0 l 329 0 m 336 1125 l 146 1319 l 313 1319 l 418 1218 l 519 1319 l 688 1319 l 497 1125 l 336 1125 z "},"Ţ":{"ha":833,"x_min":64,"x_max":769,"o":"m 329 0 l 329 853 l 64 853 l 64 1014 l 769 1014 l 769 853 l 504 853 l 504 0 l 486 -51 q 569 -70 526 -56 q 641 -111 611 -85 q 671 -178 671 -137 q 620 -263 671 -226 q 488 -300 569 -300 l 350 -300 l 350 -211 l 454 -211 q 508 -195 488 -211 q 528 -161 528 -179 q 487 -114 528 -132 q 372 -96 446 -96 l 411 0 l 329 0 z "},"Ț":{"ha":833,"x_min":64,"x_max":769,"o":"m 329 0 l 329 853 l 64 853 l 64 1014 l 769 1014 l 769 853 l 504 853 l 504 0 l 329 0 m 251 -333 l 383 -132 l 567 -132 l 413 -333 l 251 -333 z "},"U":{"ha":833,"x_min":100,"x_max":733,"o":"m 417 -14 q 184 67 268 -14 q 100 289 100 149 l 100 1014 l 275 1014 l 275 290 q 311 178 275 218 q 417 138 347 138 q 522 178 485 138 q 558 290 558 218 l 558 1014 l 733 1014 l 733 289 q 650 67 733 149 q 417 -14 567 -14 z "},"Ú":{"ha":833,"x_min":100,"x_max":733,"o":"m 417 -14 q 184 67 268 -14 q 100 289 100 149 l 100 1014 l 275 1014 l 275 290 q 311 178 275 218 q 417 138 347 138 q 522 178 485 138 q 558 290 558 218 l 558 1014 l 733 1014 l 733 289 q 650 67 733 149 q 417 -14 567 -14 m 311 1125 l 458 1319 l 644 1319 l 486 1125 l 311 1125 z "},"Ŭ":{"ha":833,"x_min":100,"x_max":733,"o":"m 417 -14 q 184 67 268 -14 q 100 289 100 149 l 100 1014 l 275 1014 l 275 290 q 311 178 275 218 q 417 138 347 138 q 522 178 485 138 q 558 290 558 218 l 558 1014 l 733 1014 l 733 289 q 650 67 733 149 q 417 -14 567 -14 m 417 1114 q 242 1170 308 1114 q 175 1319 175 1226 l 310 1319 q 339 1246 310 1274 q 417 1218 368 1218 q 495 1246 465 1218 q 525 1319 525 1274 l 660 1319 q 593 1170 660 1226 q 417 1114 526 1114 z "},"Û":{"ha":833,"x_min":100,"x_max":733,"o":"m 417 -14 q 184 67 268 -14 q 100 289 100 149 l 100 1014 l 275 1014 l 275 290 q 311 178 275 218 q 417 138 347 138 q 522 178 485 138 q 558 290 558 218 l 558 1014 l 733 1014 l 733 289 q 650 67 733 149 q 417 -14 567 -14 m 146 1125 l 336 1319 l 497 1319 l 688 1125 l 521 1125 l 415 1226 l 314 1125 l 146 1125 z "},"Ü":{"ha":833,"x_min":100,"x_max":733,"o":"m 417 -14 q 184 67 268 -14 q 100 289 100 149 l 100 1014 l 275 1014 l 275 290 q 311 178 275 218 q 417 138 347 138 q 522 178 485 138 q 558 290 558 218 l 558 1014 l 733 1014 l 733 289 q 650 67 733 149 q 417 -14 567 -14 m 579 1122 q 506 1149 533 1122 q 478 1222 478 1176 q 506 1297 478 1269 q 579 1324 533 1324 q 654 1297 626 1324 q 682 1222 682 1269 q 654 1149 682 1176 q 579 1122 626 1122 m 254 1122 q 179 1149 207 1122 q 151 1222 151 1176 q 179 1297 151 1269 q 254 1324 207 1324 q 328 1297 300 1324 q 356 1222 356 1269 q 328 1149 356 1176 q 254 1122 300 1122 z "},"Ụ":{"ha":833,"x_min":100,"x_max":733,"o":"m 417 -14 q 184 67 268 -14 q 100 289 100 149 l 100 1014 l 275 1014 l 275 290 q 311 178 275 218 q 417 138 347 138 q 522 178 485 138 q 558 290 558 218 l 558 1014 l 733 1014 l 733 289 q 650 67 733 149 q 417 -14 567 -14 m 417 -312 q 333 -285 364 -312 q 303 -212 303 -258 q 333 -138 303 -165 q 417 -111 364 -111 q 500 -138 469 -111 q 531 -212 531 -165 q 500 -285 531 -258 q 417 -312 469 -312 z "},"Ù":{"ha":833,"x_min":100,"x_max":733,"o":"m 417 -14 q 184 67 268 -14 q 100 289 100 149 l 100 1014 l 275 1014 l 275 290 q 311 178 275 218 q 417 138 347 138 q 522 178 485 138 q 558 290 558 218 l 558 1014 l 733 1014 l 733 289 q 650 67 733 149 q 417 -14 567 -14 m 346 1125 l 185 1319 l 376 1319 l 525 1125 l 346 1125 z "},"Ủ":{"ha":833,"x_min":100,"x_max":733,"o":"m 417 -14 q 184 67 268 -14 q 100 289 100 149 l 100 1014 l 275 1014 l 275 290 q 311 178 275 218 q 417 138 347 138 q 522 178 485 138 q 558 290 558 218 l 558 1014 l 733 1014 l 733 289 q 650 67 733 149 q 417 -14 567 -14 m 346 1108 l 413 1192 q 432 1233 432 1217 q 392 1258 432 1258 l 283 1258 l 283 1365 l 415 1365 q 521 1334 481 1365 q 561 1251 561 1303 q 533 1172 561 1208 l 485 1108 l 346 1108 z "},"Ư":{"ha":833,"x_min":100,"x_max":872,"o":"m 417 -14 q 184 67 268 -14 q 100 289 100 149 l 100 1014 l 275 1014 l 275 290 q 311 178 275 218 q 417 138 347 138 q 522 178 485 138 q 558 290 558 218 l 558 1014 l 682 1014 q 731 1063 731 1014 l 731 1167 l 872 1167 l 872 1060 q 835 951 872 994 q 733 899 797 908 l 733 289 q 650 67 733 149 q 417 -14 567 -14 z "},"Ứ":{"ha":833,"x_min":100,"x_max":872,"o":"m 417 -14 q 184 67 268 -14 q 100 289 100 149 l 100 1014 l 275 1014 l 275 290 q 311 178 275 218 q 417 138 347 138 q 522 178 485 138 q 558 290 558 218 l 558 1014 l 682 1014 q 731 1063 731 1014 l 731 1167 l 872 1167 l 872 1060 q 835 951 872 994 q 733 899 797 908 l 733 289 q 650 67 733 149 q 417 -14 567 -14 m 311 1125 l 458 1319 l 644 1319 l 486 1125 l 311 1125 z "},"Ự":{"ha":833,"x_min":100,"x_max":872,"o":"m 417 -14 q 184 67 268 -14 q 100 289 100 149 l 100 1014 l 275 1014 l 275 290 q 311 178 275 218 q 417 138 347 138 q 522 178 485 138 q 558 290 558 218 l 558 1014 l 682 1014 q 731 1063 731 1014 l 731 1167 l 872 1167 l 872 1060 q 835 951 872 994 q 733 899 797 908 l 733 289 q 650 67 733 149 q 417 -14 567 -14 m 417 -312 q 333 -285 364 -312 q 303 -212 303 -258 q 333 -138 303 -165 q 417 -111 364 -111 q 500 -138 469 -111 q 531 -212 531 -165 q 500 -285 531 -258 q 417 -312 469 -312 z "},"Ừ":{"ha":833,"x_min":100,"x_max":872,"o":"m 417 -14 q 184 67 268 -14 q 100 289 100 149 l 100 1014 l 275 1014 l 275 290 q 311 178 275 218 q 417 138 347 138 q 522 178 485 138 q 558 290 558 218 l 558 1014 l 682 1014 q 731 1063 731 1014 l 731 1167 l 872 1167 l 872 1060 q 835 951 872 994 q 733 899 797 908 l 733 289 q 650 67 733 149 q 417 -14 567 -14 m 346 1125 l 185 1319 l 376 1319 l 525 1125 l 346 1125 z "},"Ử":{"ha":833,"x_min":100,"x_max":872,"o":"m 417 -14 q 184 67 268 -14 q 100 289 100 149 l 100 1014 l 275 1014 l 275 290 q 311 178 275 218 q 417 138 347 138 q 522 178 485 138 q 558 290 558 218 l 558 1014 l 682 1014 q 731 1063 731 1014 l 731 1167 l 872 1167 l 872 1060 q 835 951 872 994 q 733 899 797 908 l 733 289 q 650 67 733 149 q 417 -14 567 -14 m 346 1108 l 413 1192 q 432 1233 432 1217 q 392 1258 432 1258 l 283 1258 l 283 1365 l 415 1365 q 521 1334 481 1365 q 561 1251 561 1303 q 533 1172 561 1208 l 485 1108 l 346 1108 z "},"Ữ":{"ha":833,"x_min":100,"x_max":872,"o":"m 417 -14 q 184 67 268 -14 q 100 289 100 149 l 100 1014 l 275 1014 l 275 290 q 311 178 275 218 q 417 138 347 138 q 522 178 485 138 q 558 290 558 218 l 558 1014 l 682 1014 q 731 1063 731 1014 l 731 1167 l 872 1167 l 872 1060 q 835 951 872 994 q 733 899 797 908 l 733 289 q 650 67 733 149 q 417 -14 567 -14 m 514 1119 q 444 1133 471 1119 q 399 1165 417 1147 q 365 1195 381 1182 q 326 1208 349 1208 q 285 1163 285 1208 l 285 1126 l 178 1126 l 178 1172 q 217 1283 178 1240 q 319 1325 256 1325 q 390 1311 363 1325 q 435 1280 417 1297 q 469 1249 453 1263 q 507 1236 485 1236 q 549 1279 549 1236 l 549 1318 l 656 1318 l 656 1272 q 617 1162 656 1204 q 514 1119 578 1119 z "},"Ű":{"ha":833,"x_min":100,"x_max":768,"o":"m 417 -14 q 184 67 268 -14 q 100 289 100 149 l 100 1014 l 275 1014 l 275 290 q 311 178 275 218 q 417 138 347 138 q 522 178 485 138 q 558 290 558 218 l 558 1014 l 733 1014 l 733 289 q 650 67 733 149 q 417 -14 567 -14 m 450 1125 l 599 1319 l 768 1319 l 608 1125 l 450 1125 m 169 1125 l 319 1319 l 488 1319 l 328 1125 l 169 1125 z "},"Ū":{"ha":833,"x_min":100,"x_max":733,"o":"m 417 -14 q 184 67 268 -14 q 100 289 100 149 l 100 1014 l 275 1014 l 275 290 q 311 178 275 218 q 417 138 347 138 q 522 178 485 138 q 558 290 558 218 l 558 1014 l 733 1014 l 733 289 q 650 67 733 149 q 417 -14 567 -14 m 178 1150 l 178 1283 l 656 1283 l 656 1150 l 178 1150 z "},"Ų":{"ha":833,"x_min":100,"x_max":733,"o":"m 506 -300 q 377 -260 425 -300 q 329 -157 329 -219 q 356 -85 329 -124 q 426 -12 383 -46 l 417 -14 q 185 67 271 -14 q 100 286 100 149 l 100 1014 l 275 1014 l 275 286 q 310 177 275 215 q 417 139 346 139 q 523 177 488 139 q 558 286 558 215 l 558 1014 l 733 1014 l 733 286 q 698 135 733 201 q 600 32 663 69 l 544 -14 q 494 -69 510 -42 q 479 -121 479 -97 q 497 -163 479 -146 q 549 -181 515 -181 l 639 -181 l 639 -300 l 506 -300 z "},"Ů":{"ha":833,"x_min":100,"x_max":733,"o":"m 417 -14 q 184 67 268 -14 q 100 289 100 149 l 100 1014 l 275 1014 l 275 290 q 311 178 275 218 q 417 138 347 138 q 522 178 485 138 q 558 290 558 218 l 558 1014 l 733 1014 l 733 289 q 650 67 733 149 q 417 -14 567 -14 m 417 1053 q 284 1099 335 1053 q 233 1222 233 1146 q 284 1345 233 1299 q 417 1392 335 1392 q 549 1345 499 1392 q 600 1222 600 1299 q 549 1099 600 1146 q 417 1053 499 1053 m 417 1140 q 477 1163 454 1140 q 500 1222 500 1186 q 477 1281 500 1258 q 417 1304 454 1304 q 356 1281 379 1304 q 333 1222 333 1258 q 356 1163 333 1186 q 417 1140 379 1140 z "},"Ũ":{"ha":833,"x_min":100,"x_max":733,"o":"m 417 -14 q 184 67 268 -14 q 100 289 100 149 l 100 1014 l 275 1014 l 275 290 q 311 178 275 218 q 417 138 347 138 q 522 178 485 138 q 558 290 558 218 l 558 1014 l 733 1014 l 733 289 q 650 67 733 149 q 417 -14 567 -14 m 514 1119 q 444 1133 471 1119 q 399 1165 417 1147 q 365 1195 381 1182 q 326 1208 349 1208 q 285 1163 285 1208 l 285 1126 l 178 1126 l 178 1172 q 217 1283 178 1240 q 319 1325 256 1325 q 390 1311 363 1325 q 435 1280 417 1297 q 469 1249 453 1263 q 507 1236 485 1236 q 549 1279 549 1236 l 549 1318 l 656 1318 l 656 1272 q 617 1162 656 1204 q 514 1119 578 1119 z "},"V":{"ha":833,"x_min":49,"x_max":785,"o":"m 304 0 l 49 1014 l 229 1014 l 382 353 q 406 248 394 304 q 422 158 417 192 q 438 248 428 192 q 458 354 447 304 l 610 1014 l 785 1014 l 529 0 l 304 0 z "},"W":{"ha":833,"x_min":22,"x_max":811,"o":"m 126 0 l 22 1014 l 172 1014 l 233 306 q 240 213 236 269 q 244 118 243 157 q 253 213 247 157 q 263 306 258 269 l 346 1014 l 492 1014 l 569 306 q 580 213 574 269 q 592 118 586 157 q 596 213 593 157 q 603 306 599 269 l 663 1014 l 811 1014 l 701 0 l 510 0 l 435 711 q 426 809 431 751 q 418 904 421 867 q 410 809 415 867 q 401 711 406 751 l 319 0 l 126 0 z "},"Ẃ":{"ha":833,"x_min":22,"x_max":811,"o":"m 126 0 l 22 1014 l 172 1014 l 233 306 q 240 213 236 269 q 244 118 243 157 q 253 213 247 157 q 263 306 258 269 l 346 1014 l 492 1014 l 569 306 q 580 213 574 269 q 592 118 586 157 q 596 213 593 157 q 603 306 599 269 l 663 1014 l 811 1014 l 701 0 l 510 0 l 435 711 q 426 809 431 751 q 418 904 421 867 q 410 809 415 867 q 401 711 406 751 l 319 0 l 126 0 m 311 1125 l 458 1319 l 644 1319 l 486 1125 l 311 1125 z "},"Ŵ":{"ha":833,"x_min":22,"x_max":811,"o":"m 126 0 l 22 1014 l 172 1014 l 233 306 q 240 213 236 269 q 244 118 243 157 q 253 213 247 157 q 263 306 258 269 l 346 1014 l 492 1014 l 569 306 q 580 213 574 269 q 592 118 586 157 q 596 213 593 157 q 603 306 599 269 l 663 1014 l 811 1014 l 701 0 l 510 0 l 435 711 q 426 809 431 751 q 418 904 421 867 q 410 809 415 867 q 401 711 406 751 l 319 0 l 126 0 m 146 1125 l 336 1319 l 497 1319 l 688 1125 l 521 1125 l 415 1226 l 314 1125 l 146 1125 z "},"Ẅ":{"ha":833,"x_min":22,"x_max":811,"o":"m 126 0 l 22 1014 l 172 1014 l 233 306 q 240 213 236 269 q 244 118 243 157 q 253 213 247 157 q 263 306 258 269 l 346 1014 l 492 1014 l 569 306 q 580 213 574 269 q 592 118 586 157 q 596 213 593 157 q 603 306 599 269 l 663 1014 l 811 1014 l 701 0 l 510 0 l 435 711 q 426 809 431 751 q 418 904 421 867 q 410 809 415 867 q 401 711 406 751 l 319 0 l 126 0 m 579 1122 q 506 1149 533 1122 q 478 1222 478 1176 q 506 1297 478 1269 q 579 1324 533 1324 q 654 1297 626 1324 q 682 1222 682 1269 q 654 1149 682 1176 q 579 1122 626 1122 m 254 1122 q 179 1149 207 1122 q 151 1222 151 1176 q 179 1297 151 1269 q 254 1324 207 1324 q 328 1297 300 1324 q 356 1222 356 1269 q 328 1149 356 1176 q 254 1122 300 1122 z "},"Ẁ":{"ha":833,"x_min":22,"x_max":811,"o":"m 126 0 l 22 1014 l 172 1014 l 233 306 q 240 213 236 269 q 244 118 243 157 q 253 213 247 157 q 263 306 258 269 l 346 1014 l 492 1014 l 569 306 q 580 213 574 269 q 592 118 586 157 q 596 213 593 157 q 603 306 599 269 l 663 1014 l 811 1014 l 701 0 l 510 0 l 435 711 q 426 809 431 751 q 418 904 421 867 q 410 809 415 867 q 401 711 406 751 l 319 0 l 126 0 m 346 1125 l 185 1319 l 376 1319 l 525 1125 l 346 1125 z "},"X":{"ha":833,"x_min":39,"x_max":794,"o":"m 39 0 l 319 519 l 56 1014 l 250 1014 l 378 760 q 403 706 392 732 q 419 667 414 681 q 435 706 424 681 q 460 760 446 732 l 589 1014 l 778 1014 l 514 524 l 794 0 l 600 0 l 457 281 q 431 334 443 307 q 414 376 419 361 q 397 335 408 361 q 372 281 386 308 l 228 0 l 39 0 z "},"Y":{"ha":833,"x_min":32,"x_max":801,"o":"m 329 0 l 329 368 l 32 1014 l 214 1014 l 372 663 q 403 581 390 621 q 419 518 415 540 q 437 581 425 540 q 467 663 449 621 l 621 1014 l 801 1014 l 504 368 l 504 0 l 329 0 z "},"Ý":{"ha":833,"x_min":32,"x_max":801,"o":"m 329 0 l 329 368 l 32 1014 l 214 1014 l 372 663 q 403 581 390 621 q 419 518 415 540 q 437 581 425 540 q 467 663 449 621 l 621 1014 l 801 1014 l 504 368 l 504 0 l 329 0 m 311 1125 l 458 1319 l 644 1319 l 486 1125 l 311 1125 z "},"Ŷ":{"ha":833,"x_min":32,"x_max":801,"o":"m 329 0 l 329 368 l 32 1014 l 214 1014 l 372 663 q 403 581 390 621 q 419 518 415 540 q 437 581 425 540 q 467 663 449 621 l 621 1014 l 801 1014 l 504 368 l 504 0 l 329 0 m 146 1125 l 336 1319 l 497 1319 l 688 1125 l 521 1125 l 415 1226 l 314 1125 l 146 1125 z "},"Ÿ":{"ha":833,"x_min":32,"x_max":801,"o":"m 329 0 l 329 368 l 32 1014 l 214 1014 l 372 663 q 403 581 390 621 q 419 518 415 540 q 437 581 425 540 q 467 663 449 621 l 621 1014 l 801 1014 l 504 368 l 504 0 l 329 0 m 579 1122 q 506 1149 533 1122 q 478 1222 478 1176 q 506 1297 478 1269 q 579 1324 533 1324 q 654 1297 626 1324 q 682 1222 682 1269 q 654 1149 682 1176 q 579 1122 626 1122 m 254 1122 q 179 1149 207 1122 q 151 1222 151 1176 q 179 1297 151 1269 q 254 1324 207 1324 q 328 1297 300 1324 q 356 1222 356 1269 q 328 1149 356 1176 q 254 1122 300 1122 z "},"Ỵ":{"ha":833,"x_min":32,"x_max":801,"o":"m 329 0 l 329 368 l 32 1014 l 214 1014 l 372 663 q 403 581 390 621 q 419 518 415 540 q 437 581 425 540 q 467 663 449 621 l 621 1014 l 801 1014 l 504 368 l 504 0 l 329 0 m 417 -312 q 333 -285 364 -312 q 303 -212 303 -258 q 333 -138 303 -165 q 417 -111 364 -111 q 500 -138 469 -111 q 531 -212 531 -165 q 500 -285 531 -258 q 417 -312 469 -312 z "},"Ỳ":{"ha":833,"x_min":32,"x_max":801,"o":"m 329 0 l 329 368 l 32 1014 l 214 1014 l 372 663 q 403 581 390 621 q 419 518 415 540 q 437 581 425 540 q 467 663 449 621 l 621 1014 l 801 1014 l 504 368 l 504 0 l 329 0 m 346 1125 l 185 1319 l 376 1319 l 525 1125 l 346 1125 z "},"Ỷ":{"ha":833,"x_min":32,"x_max":801,"o":"m 329 0 l 329 368 l 32 1014 l 214 1014 l 372 663 q 403 581 390 621 q 419 518 415 540 q 437 581 425 540 q 467 663 449 621 l 621 1014 l 801 1014 l 504 368 l 504 0 l 329 0 m 346 1108 l 413 1192 q 432 1233 432 1217 q 392 1258 432 1258 l 283 1258 l 283 1365 l 415 1365 q 521 1334 481 1365 q 561 1251 561 1303 q 533 1172 561 1208 l 485 1108 l 346 1108 z "},"Ȳ":{"ha":833,"x_min":32,"x_max":801,"o":"m 329 0 l 329 368 l 32 1014 l 214 1014 l 372 663 q 403 581 390 621 q 419 518 415 540 q 437 581 425 540 q 467 663 449 621 l 621 1014 l 801 1014 l 504 368 l 504 0 l 329 0 m 178 1150 l 178 1283 l 656 1283 l 656 1150 l 178 1150 z "},"Ỹ":{"ha":833,"x_min":32,"x_max":801,"o":"m 329 0 l 329 368 l 32 1014 l 214 1014 l 372 663 q 403 581 390 621 q 419 518 415 540 q 437 581 425 540 q 467 663 449 621 l 621 1014 l 801 1014 l 504 368 l 504 0 l 329 0 m 514 1119 q 444 1133 471 1119 q 399 1165 417 1147 q 365 1195 381 1182 q 326 1208 349 1208 q 285 1163 285 1208 l 285 1126 l 178 1126 l 178 1172 q 217 1283 178 1240 q 319 1325 256 1325 q 390 1311 363 1325 q 435 1280 417 1297 q 469 1249 453 1263 q 507 1236 485 1236 q 549 1279 549 1236 l 549 1318 l 656 1318 l 656 1272 q 617 1162 656 1204 q 514 1119 578 1119 z "},"Z":{"ha":833,"x_min":110,"x_max":724,"o":"m 110 0 l 110 165 l 517 853 l 119 853 l 119 1014 l 708 1014 l 708 849 l 300 161 l 724 161 l 724 0 l 110 0 z "},"Ź":{"ha":833,"x_min":110,"x_max":724,"o":"m 110 0 l 110 165 l 517 853 l 119 853 l 119 1014 l 708 1014 l 708 849 l 300 161 l 724 161 l 724 0 l 110 0 m 311 1125 l 458 1319 l 644 1319 l 486 1125 l 311 1125 z "},"Ž":{"ha":833,"x_min":110,"x_max":724,"o":"m 110 0 l 110 165 l 517 853 l 119 853 l 119 1014 l 708 1014 l 708 849 l 300 161 l 724 161 l 724 0 l 110 0 m 336 1125 l 146 1319 l 313 1319 l 418 1218 l 519 1319 l 688 1319 l 497 1125 l 336 1125 z "},"Ż":{"ha":833,"x_min":110,"x_max":724,"o":"m 110 0 l 110 165 l 517 853 l 119 853 l 119 1014 l 708 1014 l 708 849 l 300 161 l 724 161 l 724 0 l 110 0 m 417 1122 q 333 1149 364 1122 q 303 1222 303 1176 q 333 1295 303 1268 q 417 1322 364 1322 q 500 1295 469 1322 q 531 1222 531 1268 q 500 1149 531 1176 q 417 1122 469 1122 z "},"a":{"ha":833,"x_min":78,"x_max":729,"o":"m 332 -14 q 146 48 214 -14 q 78 217 78 110 q 153 390 78 329 q 365 451 229 451 l 556 451 l 556 517 q 519 603 556 572 q 421 635 483 635 q 326 610 364 635 q 282 542 289 585 l 113 542 q 210 714 125 650 q 426 778 294 778 q 647 708 565 778 q 729 518 729 638 l 729 0 l 561 0 l 561 133 l 558 133 q 484 26 544 65 q 332 -14 424 -14 m 389 117 q 509 154 463 117 q 556 251 556 192 l 556 344 l 368 344 q 283 314 315 344 q 251 233 251 283 q 288 148 251 179 q 389 117 325 117 z "},"á":{"ha":833,"x_min":78,"x_max":729,"o":"m 332 -14 q 146 48 214 -14 q 78 217 78 110 q 153 390 78 329 q 365 451 229 451 l 556 451 l 556 517 q 519 603 556 572 q 421 635 483 635 q 326 610 364 635 q 282 542 289 585 l 113 542 q 210 714 125 650 q 426 778 294 778 q 647 708 565 778 q 729 518 729 638 l 729 0 l 561 0 l 561 133 l 558 133 q 484 26 544 65 q 332 -14 424 -14 m 389 117 q 509 154 463 117 q 556 251 556 192 l 556 344 l 368 344 q 283 314 315 344 q 251 233 251 283 q 288 148 251 179 q 389 117 325 117 m 318 896 l 465 1090 l 651 1090 l 493 896 l 318 896 z "},"ă":{"ha":833,"x_min":78,"x_max":729,"o":"m 332 -14 q 146 48 214 -14 q 78 217 78 110 q 153 390 78 329 q 365 451 229 451 l 556 451 l 556 517 q 519 603 556 572 q 421 635 483 635 q 326 610 364 635 q 282 542 289 585 l 113 542 q 210 714 125 650 q 426 778 294 778 q 647 708 565 778 q 729 518 729 638 l 729 0 l 561 0 l 561 133 l 558 133 q 484 26 544 65 q 332 -14 424 -14 m 389 117 q 509 154 463 117 q 556 251 556 192 l 556 344 l 368 344 q 283 314 315 344 q 251 233 251 283 q 288 148 251 179 q 389 117 325 117 m 424 885 q 248 941 315 885 q 181 1090 181 997 l 315 1090 q 345 1017 315 1044 q 424 989 375 989 q 502 1017 472 989 q 532 1090 532 1044 l 667 1090 q 600 941 667 997 q 424 885 533 885 z "},"ắ":{"ha":833,"x_min":78,"x_max":729,"o":"m 332 -14 q 146 48 214 -14 q 78 217 78 110 q 153 390 78 329 q 365 451 229 451 l 556 451 l 556 517 q 519 603 556 572 q 421 635 483 635 q 326 610 364 635 q 282 542 289 585 l 113 542 q 210 714 125 650 q 426 778 294 778 q 647 708 565 778 q 729 518 729 638 l 729 0 l 561 0 l 561 133 l 558 133 q 484 26 544 65 q 332 -14 424 -14 m 389 117 q 509 154 463 117 q 556 251 556 192 l 556 344 l 368 344 q 283 314 315 344 q 251 233 251 283 q 288 148 251 179 q 389 117 325 117 m 335 1081 l 494 1268 l 656 1268 l 485 1081 l 335 1081 m 424 889 q 244 941 314 889 q 175 1078 175 993 l 306 1078 q 337 1019 306 1040 q 422 997 368 997 q 510 1019 479 997 q 542 1078 542 1040 l 672 1078 q 603 941 672 993 q 424 889 533 889 z "},"ặ":{"ha":833,"x_min":78,"x_max":729,"o":"m 332 -14 q 146 48 214 -14 q 78 217 78 110 q 153 390 78 329 q 365 451 229 451 l 556 451 l 556 517 q 519 603 556 572 q 421 635 483 635 q 326 610 364 635 q 282 542 289 585 l 113 542 q 210 714 125 650 q 426 778 294 778 q 647 708 565 778 q 729 518 729 638 l 729 0 l 561 0 l 561 133 l 558 133 q 484 26 544 65 q 332 -14 424 -14 m 389 117 q 509 154 463 117 q 556 251 556 192 l 556 344 l 368 344 q 283 314 315 344 q 251 233 251 283 q 288 148 251 179 q 389 117 325 117 m 424 -312 q 340 -285 371 -312 q 310 -212 310 -258 q 340 -138 310 -165 q 424 -111 371 -111 q 507 -138 476 -111 q 538 -212 538 -165 q 507 -285 538 -258 q 424 -312 476 -312 m 424 885 q 248 941 315 885 q 181 1090 181 997 l 315 1090 q 345 1017 315 1044 q 424 989 375 989 q 502 1017 472 989 q 532 1090 532 1044 l 667 1090 q 600 941 667 997 q 424 885 533 885 z "},"ằ":{"ha":833,"x_min":78,"x_max":729,"o":"m 332 -14 q 146 48 214 -14 q 78 217 78 110 q 153 390 78 329 q 365 451 229 451 l 556 451 l 556 517 q 519 603 556 572 q 421 635 483 635 q 326 610 364 635 q 282 542 289 585 l 113 542 q 210 714 125 650 q 426 778 294 778 q 647 708 565 778 q 729 518 729 638 l 729 0 l 561 0 l 561 133 l 558 133 q 484 26 544 65 q 332 -14 424 -14 m 389 117 q 509 154 463 117 q 556 251 556 192 l 556 344 l 368 344 q 283 314 315 344 q 251 233 251 283 q 288 148 251 179 q 389 117 325 117 m 363 1081 l 192 1268 l 353 1268 l 513 1081 l 363 1081 m 424 889 q 244 941 314 889 q 175 1078 175 993 l 306 1078 q 337 1019 306 1040 q 422 997 368 997 q 510 1019 479 997 q 542 1078 542 1040 l 672 1078 q 603 941 672 993 q 424 889 533 889 z "},"ẳ":{"ha":833,"x_min":78,"x_max":729,"o":"m 332 -14 q 146 48 214 -14 q 78 217 78 110 q 153 390 78 329 q 365 451 229 451 l 556 451 l 556 517 q 519 603 556 572 q 421 635 483 635 q 326 610 364 635 q 282 542 289 585 l 113 542 q 210 714 125 650 q 426 778 294 778 q 647 708 565 778 q 729 518 729 638 l 729 0 l 561 0 l 561 133 l 558 133 q 484 26 544 65 q 332 -14 424 -14 m 389 117 q 509 154 463 117 q 556 251 556 192 l 556 344 l 368 344 q 283 314 315 344 q 251 233 251 283 q 288 148 251 179 q 389 117 325 117 m 347 1081 l 410 1158 q 428 1196 428 1179 q 390 1225 428 1225 l 299 1225 l 299 1328 l 417 1328 q 518 1297 479 1328 q 557 1218 557 1267 q 528 1139 557 1175 l 482 1081 l 347 1081 m 424 889 q 244 941 314 889 q 175 1078 175 993 l 306 1078 q 337 1019 306 1040 q 422 997 368 997 q 510 1019 479 997 q 542 1078 542 1040 l 672 1078 q 603 941 672 993 q 424 889 533 889 z "},"ẵ":{"ha":833,"x_min":78,"x_max":729,"o":"m 332 -14 q 146 48 214 -14 q 78 217 78 110 q 153 390 78 329 q 365 451 229 451 l 556 451 l 556 517 q 519 603 556 572 q 421 635 483 635 q 326 610 364 635 q 282 542 289 585 l 113 542 q 210 714 125 650 q 426 778 294 778 q 647 708 565 778 q 729 518 729 638 l 729 0 l 561 0 l 561 133 l 558 133 q 484 26 544 65 q 332 -14 424 -14 m 389 117 q 509 154 463 117 q 556 251 556 192 l 556 344 l 368 344 q 283 314 315 344 q 251 233 251 283 q 288 148 251 179 q 389 117 325 117 m 518 1122 q 448 1136 475 1122 q 403 1169 421 1150 q 371 1201 386 1188 q 333 1215 356 1215 q 292 1171 292 1215 l 292 1131 l 185 1131 l 185 1171 q 224 1276 185 1236 q 329 1315 264 1315 q 400 1301 374 1315 q 444 1268 426 1286 q 476 1236 461 1250 q 514 1222 492 1222 q 556 1261 556 1222 l 556 1306 l 663 1306 l 663 1267 q 623 1162 663 1201 q 518 1122 583 1122 m 424 892 q 249 944 317 892 q 181 1081 181 996 l 308 1081 q 339 1021 308 1043 q 422 999 369 999 q 508 1021 476 999 q 539 1081 539 1043 l 667 1081 q 599 944 667 996 q 424 892 531 892 z "},"ǎ":{"ha":833,"x_min":78,"x_max":729,"o":"m 332 -14 q 146 48 214 -14 q 78 217 78 110 q 153 390 78 329 q 365 451 229 451 l 556 451 l 556 517 q 519 603 556 572 q 421 635 483 635 q 326 610 364 635 q 282 542 289 585 l 113 542 q 210 714 125 650 q 426 778 294 778 q 647 708 565 778 q 729 518 729 638 l 729 0 l 561 0 l 561 133 l 558 133 q 484 26 544 65 q 332 -14 424 -14 m 389 117 q 509 154 463 117 q 556 251 556 192 l 556 344 l 368 344 q 283 314 315 344 q 251 233 251 283 q 288 148 251 179 q 389 117 325 117 m 343 896 l 153 1090 l 319 1090 l 425 989 l 526 1090 l 694 1090 l 504 896 l 343 896 z "},"â":{"ha":833,"x_min":78,"x_max":729,"o":"m 332 -14 q 146 48 214 -14 q 78 217 78 110 q 153 390 78 329 q 365 451 229 451 l 556 451 l 556 517 q 519 603 556 572 q 421 635 483 635 q 326 610 364 635 q 282 542 289 585 l 113 542 q 210 714 125 650 q 426 778 294 778 q 647 708 565 778 q 729 518 729 638 l 729 0 l 561 0 l 561 133 l 558 133 q 484 26 544 65 q 332 -14 424 -14 m 389 117 q 509 154 463 117 q 556 251 556 192 l 556 344 l 368 344 q 283 314 315 344 q 251 233 251 283 q 288 148 251 179 q 389 117 325 117 m 153 896 l 343 1090 l 504 1090 l 694 896 l 528 896 l 422 997 l 321 896 l 153 896 z "},"ấ":{"ha":833,"x_min":78,"x_max":924,"o":"m 332 -14 q 146 48 214 -14 q 78 217 78 110 q 153 390 78 329 q 365 451 229 451 l 556 451 l 556 517 q 519 603 556 572 q 421 635 483 635 q 326 610 364 635 q 282 542 289 585 l 113 542 q 210 714 125 650 q 426 778 294 778 q 647 708 565 778 q 729 518 729 638 l 729 0 l 561 0 l 561 133 l 558 133 q 484 26 544 65 q 332 -14 424 -14 m 389 117 q 509 154 463 117 q 556 251 556 192 l 556 344 l 368 344 q 283 314 315 344 q 251 233 251 283 q 288 148 251 179 q 389 117 325 117 m 585 1056 l 749 1250 l 924 1250 l 749 1056 l 585 1056 m 153 896 l 343 1090 l 504 1090 l 694 896 l 526 896 l 424 997 l 321 896 l 153 896 z "},"ậ":{"ha":833,"x_min":78,"x_max":729,"o":"m 332 -14 q 146 48 214 -14 q 78 217 78 110 q 153 390 78 329 q 365 451 229 451 l 556 451 l 556 517 q 519 603 556 572 q 421 635 483 635 q 326 610 364 635 q 282 542 289 585 l 113 542 q 210 714 125 650 q 426 778 294 778 q 647 708 565 778 q 729 518 729 638 l 729 0 l 561 0 l 561 133 l 558 133 q 484 26 544 65 q 332 -14 424 -14 m 389 117 q 509 154 463 117 q 556 251 556 192 l 556 344 l 368 344 q 283 314 315 344 q 251 233 251 283 q 288 148 251 179 q 389 117 325 117 m 424 -312 q 340 -285 371 -312 q 310 -212 310 -258 q 340 -138 310 -165 q 424 -111 371 -111 q 507 -138 476 -111 q 538 -212 538 -165 q 507 -285 538 -258 q 424 -312 476 -312 m 153 896 l 343 1090 l 504 1090 l 694 896 l 528 896 l 422 997 l 321 896 l 153 896 z "},"ầ":{"ha":833,"x_min":78,"x_max":817,"o":"m 332 -14 q 146 48 214 -14 q 78 217 78 110 q 153 390 78 329 q 365 451 229 451 l 556 451 l 556 517 q 519 603 556 572 q 421 635 483 635 q 326 610 364 635 q 282 542 289 585 l 113 542 q 210 714 125 650 q 426 778 294 778 q 647 708 565 778 q 729 518 729 638 l 729 0 l 561 0 l 561 133 l 558 133 q 484 26 544 65 q 332 -14 424 -14 m 389 117 q 509 154 463 117 q 556 251 556 192 l 556 344 l 368 344 q 283 314 315 344 q 251 233 251 283 q 288 148 251 179 q 389 117 325 117 m 653 1056 l 472 1250 l 647 1250 l 817 1056 l 653 1056 m 153 896 l 343 1090 l 504 1090 l 694 896 l 526 896 l 424 997 l 321 896 l 153 896 z "},"ẩ":{"ha":833,"x_min":78,"x_max":803,"o":"m 332 -14 q 146 48 214 -14 q 78 217 78 110 q 153 390 78 329 q 365 451 229 451 l 556 451 l 556 517 q 519 603 556 572 q 421 635 483 635 q 326 610 364 635 q 282 542 289 585 l 113 542 q 210 714 125 650 q 426 778 294 778 q 647 708 565 778 q 729 518 729 638 l 729 0 l 561 0 l 561 133 l 558 133 q 484 26 544 65 q 332 -14 424 -14 m 389 117 q 509 154 463 117 q 556 251 556 192 l 556 344 l 368 344 q 283 314 315 344 q 251 233 251 283 q 288 148 251 179 q 389 117 325 117 m 594 1056 l 660 1138 q 678 1175 678 1160 q 638 1203 678 1203 l 543 1203 l 543 1307 l 660 1307 q 764 1276 725 1307 q 803 1194 803 1246 q 775 1118 803 1154 l 726 1056 l 594 1056 m 153 896 l 343 1090 l 504 1090 l 694 896 l 526 896 l 424 997 l 321 896 l 153 896 z "},"ẫ":{"ha":833,"x_min":78,"x_max":729,"o":"m 332 -14 q 146 48 214 -14 q 78 217 78 110 q 153 390 78 329 q 365 451 229 451 l 556 451 l 556 517 q 519 603 556 572 q 421 635 483 635 q 326 610 364 635 q 282 542 289 585 l 113 542 q 210 714 125 650 q 426 778 294 778 q 647 708 565 778 q 729 518 729 638 l 729 0 l 561 0 l 561 133 l 558 133 q 484 26 544 65 q 332 -14 424 -14 m 389 117 q 509 154 463 117 q 556 251 556 192 l 556 344 l 368 344 q 283 314 315 344 q 251 233 251 283 q 288 148 251 179 q 389 117 325 117 m 518 1139 q 448 1152 475 1139 q 403 1182 421 1165 q 371 1211 386 1199 q 333 1224 356 1224 q 292 1179 292 1224 l 292 1147 l 185 1147 l 185 1179 q 224 1284 185 1244 q 329 1324 264 1324 q 400 1310 374 1324 q 444 1281 426 1297 q 476 1251 461 1264 q 514 1239 492 1239 q 556 1279 556 1239 l 556 1314 l 663 1314 l 663 1283 q 623 1178 663 1218 q 518 1139 583 1139 m 153 896 l 343 1090 l 504 1090 l 694 896 l 526 896 l 424 997 l 321 896 l 153 896 z "},"ä":{"ha":833,"x_min":78,"x_max":729,"o":"m 332 -14 q 146 48 214 -14 q 78 217 78 110 q 153 390 78 329 q 365 451 229 451 l 556 451 l 556 517 q 519 603 556 572 q 421 635 483 635 q 326 610 364 635 q 282 542 289 585 l 113 542 q 210 714 125 650 q 426 778 294 778 q 647 708 565 778 q 729 518 729 638 l 729 0 l 561 0 l 561 133 l 558 133 q 484 26 544 65 q 332 -14 424 -14 m 389 117 q 509 154 463 117 q 556 251 556 192 l 556 344 l 368 344 q 283 314 315 344 q 251 233 251 283 q 288 148 251 179 q 389 117 325 117 m 586 892 q 513 919 540 892 q 485 992 485 946 q 513 1065 485 1038 q 586 1092 540 1092 q 661 1065 633 1092 q 689 992 689 1038 q 661 919 689 946 q 586 892 633 892 m 261 892 q 186 919 214 892 q 158 992 158 946 q 186 1065 158 1038 q 261 1092 214 1092 q 335 1065 307 1092 q 363 992 363 1038 q 335 919 363 946 q 261 892 307 892 z "},"ạ":{"ha":833,"x_min":78,"x_max":729,"o":"m 332 -14 q 146 48 214 -14 q 78 217 78 110 q 153 390 78 329 q 365 451 229 451 l 556 451 l 556 517 q 519 603 556 572 q 421 635 483 635 q 326 610 364 635 q 282 542 289 585 l 113 542 q 210 714 125 650 q 426 778 294 778 q 647 708 565 778 q 729 518 729 638 l 729 0 l 561 0 l 561 133 l 558 133 q 484 26 544 65 q 332 -14 424 -14 m 389 117 q 509 154 463 117 q 556 251 556 192 l 556 344 l 368 344 q 283 314 315 344 q 251 233 251 283 q 288 148 251 179 q 389 117 325 117 m 424 -312 q 340 -285 371 -312 q 310 -212 310 -258 q 340 -138 310 -165 q 424 -111 371 -111 q 507 -138 476 -111 q 538 -212 538 -165 q 507 -285 538 -258 q 424 -312 476 -312 z "},"à":{"ha":833,"x_min":78,"x_max":729,"o":"m 332 -14 q 146 48 214 -14 q 78 217 78 110 q 153 390 78 329 q 365 451 229 451 l 556 451 l 556 517 q 519 603 556 572 q 421 635 483 635 q 326 610 364 635 q 282 542 289 585 l 113 542 q 210 714 125 650 q 426 778 294 778 q 647 708 565 778 q 729 518 729 638 l 729 0 l 561 0 l 561 133 l 558 133 q 484 26 544 65 q 332 -14 424 -14 m 389 117 q 509 154 463 117 q 556 251 556 192 l 556 344 l 368 344 q 283 314 315 344 q 251 233 251 283 q 288 148 251 179 q 389 117 325 117 m 353 896 l 192 1090 l 383 1090 l 532 896 l 353 896 z "},"ả":{"ha":833,"x_min":78,"x_max":729,"o":"m 332 -14 q 146 48 214 -14 q 78 217 78 110 q 153 390 78 329 q 365 451 229 451 l 556 451 l 556 517 q 519 603 556 572 q 421 635 483 635 q 326 610 364 635 q 282 542 289 585 l 113 542 q 210 714 125 650 q 426 778 294 778 q 647 708 565 778 q 729 518 729 638 l 729 0 l 561 0 l 561 133 l 558 133 q 484 26 544 65 q 332 -14 424 -14 m 389 117 q 509 154 463 117 q 556 251 556 192 l 556 344 l 368 344 q 283 314 315 344 q 251 233 251 283 q 288 148 251 179 q 389 117 325 117 m 353 896 l 422 979 q 442 1021 442 1004 q 401 1047 442 1047 l 290 1047 l 290 1153 l 436 1153 q 534 1122 497 1153 q 571 1040 571 1092 q 543 960 571 994 l 492 896 l 353 896 z "},"ā":{"ha":833,"x_min":78,"x_max":729,"o":"m 332 -14 q 146 48 214 -14 q 78 217 78 110 q 153 390 78 329 q 365 451 229 451 l 556 451 l 556 517 q 519 603 556 572 q 421 635 483 635 q 326 610 364 635 q 282 542 289 585 l 113 542 q 210 714 125 650 q 426 778 294 778 q 647 708 565 778 q 729 518 729 638 l 729 0 l 561 0 l 561 133 l 558 133 q 484 26 544 65 q 332 -14 424 -14 m 389 117 q 509 154 463 117 q 556 251 556 192 l 556 344 l 368 344 q 283 314 315 344 q 251 233 251 283 q 288 148 251 179 q 389 117 325 117 m 185 918 l 185 1051 l 663 1051 l 663 918 l 185 918 z "},"ą":{"ha":833,"x_min":78,"x_max":803,"o":"m 332 -14 q 146 48 214 -14 q 78 217 78 110 q 153 390 78 329 q 365 451 229 451 l 556 451 l 556 517 q 519 603 556 572 q 421 635 483 635 q 326 610 364 635 q 282 542 289 585 l 113 542 q 210 714 125 650 q 426 778 294 778 q 647 708 565 778 q 729 518 729 638 l 729 0 q 663 -70 682 -42 q 643 -121 643 -99 q 661 -163 643 -146 q 713 -181 679 -181 l 803 -181 l 803 -300 l 669 -300 q 541 -260 589 -300 q 493 -157 493 -219 q 607 0 493 -71 l 561 0 l 561 133 l 558 133 q 484 26 544 65 q 332 -14 424 -14 m 389 117 q 509 154 463 117 q 556 251 556 192 l 556 344 l 368 344 q 283 314 315 344 q 251 233 251 283 q 288 148 251 179 q 389 117 325 117 z "},"å":{"ha":833,"x_min":78,"x_max":729,"o":"m 332 -14 q 146 48 214 -14 q 78 217 78 110 q 153 390 78 329 q 365 451 229 451 l 556 451 l 556 517 q 519 603 556 572 q 421 635 483 635 q 326 610 364 635 q 282 542 289 585 l 113 542 q 210 714 125 650 q 426 778 294 778 q 647 708 565 778 q 729 518 729 638 l 729 0 l 561 0 l 561 133 l 558 133 q 484 26 544 65 q 332 -14 424 -14 m 389 117 q 509 154 463 117 q 556 251 556 192 l 556 344 l 368 344 q 283 314 315 344 q 251 233 251 283 q 288 148 251 179 q 389 117 325 117 m 424 838 q 291 884 342 838 q 240 1006 240 931 q 291 1128 240 1082 q 424 1175 342 1175 q 556 1128 506 1175 q 607 1006 607 1082 q 556 884 607 931 q 424 838 506 838 m 424 925 q 484 947 461 925 q 507 1006 507 969 q 484 1065 507 1043 q 424 1088 461 1088 q 363 1065 386 1088 q 340 1006 340 1043 q 363 947 340 969 q 424 925 386 925 z "},"ã":{"ha":833,"x_min":78,"x_max":729,"o":"m 332 -14 q 146 48 214 -14 q 78 217 78 110 q 153 390 78 329 q 365 451 229 451 l 556 451 l 556 517 q 519 603 556 572 q 421 635 483 635 q 326 610 364 635 q 282 542 289 585 l 113 542 q 210 714 125 650 q 426 778 294 778 q 647 708 565 778 q 729 518 729 638 l 729 0 l 561 0 l 561 133 l 558 133 q 484 26 544 65 q 332 -14 424 -14 m 389 117 q 509 154 463 117 q 556 251 556 192 l 556 344 l 368 344 q 283 314 315 344 q 251 233 251 283 q 288 148 251 179 q 389 117 325 117 m 521 890 q 451 904 478 890 q 406 935 424 918 q 372 966 388 953 q 333 979 356 979 q 292 933 292 979 l 292 897 l 185 897 l 185 943 q 224 1053 185 1011 q 326 1096 263 1096 q 397 1082 369 1096 q 442 1051 424 1068 q 476 1020 460 1033 q 514 1007 492 1007 q 556 1050 556 1007 l 556 1089 l 663 1089 l 663 1043 q 624 933 663 975 q 521 890 585 890 z "},"æ":{"ha":833,"x_min":49,"x_max":785,"o":"m 238 -14 q 100 42 151 -14 q 49 189 49 97 l 49 264 q 110 403 49 350 q 271 456 171 456 l 349 456 l 349 563 q 274 654 349 654 q 219 631 239 654 q 199 567 199 608 l 56 567 q 109 720 56 663 q 251 778 163 778 q 339 760 304 778 q 392 718 374 743 q 414 671 410 693 l 422 671 q 444 718 426 693 q 497 760 463 743 q 583 778 531 778 q 730 719 675 778 q 785 564 785 661 l 785 350 l 488 350 l 488 200 q 508 134 488 158 q 564 110 529 110 q 622 131 601 110 q 642 189 642 151 l 785 189 q 729 42 785 97 q 583 -14 674 -14 q 497 3 531 -14 q 444 46 463 21 q 422 93 426 71 l 414 93 q 390 46 410 71 q 333 3 371 21 q 238 -14 296 -14 m 488 456 l 642 456 l 642 564 q 622 630 642 606 q 564 654 601 654 q 508 630 528 654 q 488 564 488 606 l 488 456 m 271 110 q 328 134 307 110 q 349 200 349 158 l 349 350 l 272 350 q 215 327 235 350 q 194 264 194 304 l 194 189 q 215 131 194 151 q 271 110 235 110 z "},"ǽ":{"ha":833,"x_min":49,"x_max":785,"o":"m 238 -14 q 100 42 151 -14 q 49 189 49 97 l 49 264 q 110 403 49 350 q 271 456 171 456 l 349 456 l 349 563 q 274 654 349 654 q 219 631 239 654 q 199 567 199 608 l 56 567 q 109 720 56 663 q 251 778 163 778 q 339 760 304 778 q 392 718 374 743 q 414 671 410 693 l 422 671 q 444 718 426 693 q 497 760 463 743 q 583 778 531 778 q 730 719 675 778 q 785 564 785 661 l 785 350 l 488 350 l 488 200 q 508 134 488 158 q 564 110 529 110 q 622 131 601 110 q 642 189 642 151 l 785 189 q 729 42 785 97 q 583 -14 674 -14 q 497 3 531 -14 q 444 46 463 21 q 422 93 426 71 l 414 93 q 390 46 410 71 q 333 3 371 21 q 238 -14 296 -14 m 488 456 l 642 456 l 642 564 q 622 630 642 606 q 564 654 601 654 q 508 630 528 654 q 488 564 488 606 l 488 456 m 271 110 q 328 134 307 110 q 349 200 349 158 l 349 350 l 272 350 q 215 327 235 350 q 194 264 194 304 l 194 189 q 215 131 194 151 q 271 110 235 110 m 311 896 l 458 1090 l 644 1090 l 486 896 l 311 896 z "},"b":{"ha":833,"x_min":107,"x_max":736,"o":"m 482 -14 q 344 28 397 -14 q 279 146 290 69 l 276 146 l 276 0 l 107 0 l 107 1014 l 281 1014 l 281 800 l 275 618 l 279 618 q 344 735 292 693 q 482 778 397 778 q 667 699 597 778 q 736 485 736 619 l 736 278 q 667 65 736 143 q 482 -14 597 -14 m 421 136 q 525 175 488 136 q 563 286 563 214 l 563 478 q 525 589 563 550 q 421 628 488 628 q 317 588 354 628 q 281 478 281 549 l 281 286 q 317 176 281 215 q 421 136 354 136 z "},"c":{"ha":833,"x_min":97,"x_max":742,"o":"m 421 -14 q 251 23 324 -14 q 138 127 178 60 q 97 286 97 194 l 97 478 q 138 637 97 569 q 251 741 178 704 q 421 778 324 778 q 651 703 565 778 q 742 501 738 629 l 568 501 q 525 594 564 561 q 421 626 486 626 q 311 588 351 626 q 271 479 271 550 l 271 286 q 311 176 271 215 q 421 138 351 138 q 526 170 488 138 q 568 263 564 203 l 742 263 q 651 60 738 135 q 421 -14 565 -14 z "},"ć":{"ha":833,"x_min":97,"x_max":742,"o":"m 421 -14 q 251 23 324 -14 q 138 127 178 60 q 97 286 97 194 l 97 478 q 138 637 97 569 q 251 741 178 704 q 421 778 324 778 q 651 703 565 778 q 742 501 738 629 l 568 501 q 525 594 564 561 q 421 626 486 626 q 311 588 351 626 q 271 479 271 550 l 271 286 q 311 176 271 215 q 421 138 351 138 q 526 170 488 138 q 568 263 564 203 l 742 263 q 651 60 738 135 q 421 -14 565 -14 m 315 896 l 463 1090 l 649 1090 l 490 896 l 315 896 z "},"č":{"ha":833,"x_min":97,"x_max":742,"o":"m 421 -14 q 251 23 324 -14 q 138 127 178 60 q 97 286 97 194 l 97 478 q 138 637 97 569 q 251 741 178 704 q 421 778 324 778 q 651 703 565 778 q 742 501 738 629 l 568 501 q 525 594 564 561 q 421 626 486 626 q 311 588 351 626 q 271 479 271 550 l 271 286 q 311 176 271 215 q 421 138 351 138 q 526 170 488 138 q 568 263 564 203 l 742 263 q 651 60 738 135 q 421 -14 565 -14 m 340 896 l 150 1090 l 317 1090 l 422 989 l 524 1090 l 692 1090 l 501 896 l 340 896 z "},"ç":{"ha":833,"x_min":97,"x_max":742,"o":"m 278 -300 l 278 -211 l 382 -211 q 435 -195 415 -211 q 456 -161 456 -179 q 415 -114 456 -132 q 301 -96 374 -96 l 336 -6 q 162 93 226 17 q 97 286 97 169 l 97 478 q 138 637 97 569 q 251 741 178 704 q 421 778 324 778 q 651 703 565 778 q 742 501 738 629 l 568 501 q 525 594 564 561 q 421 626 486 626 q 311 588 351 626 q 271 479 271 550 l 271 286 q 311 176 271 215 q 421 138 351 138 q 526 170 488 138 q 568 263 564 203 l 742 263 q 652 60 738 135 q 428 -14 567 -14 l 414 -51 q 497 -70 454 -56 q 569 -111 539 -85 q 599 -178 599 -137 q 549 -263 599 -226 q 415 -300 499 -300 l 278 -300 z "},"ĉ":{"ha":833,"x_min":97,"x_max":742,"o":"m 421 -14 q 251 23 324 -14 q 138 127 178 60 q 97 286 97 194 l 97 478 q 138 637 97 569 q 251 741 178 704 q 421 778 324 778 q 651 703 565 778 q 742 501 738 629 l 568 501 q 525 594 564 561 q 421 626 486 626 q 311 588 351 626 q 271 479 271 550 l 271 286 q 311 176 271 215 q 421 138 351 138 q 526 170 488 138 q 568 263 564 203 l 742 263 q 651 60 738 135 q 421 -14 565 -14 m 150 896 l 340 1090 l 501 1090 l 692 896 l 525 896 l 419 997 l 318 896 l 150 896 z "},"ċ":{"ha":833,"x_min":97,"x_max":742,"o":"m 421 -14 q 251 23 324 -14 q 138 127 178 60 q 97 286 97 194 l 97 478 q 138 637 97 569 q 251 741 178 704 q 421 778 324 778 q 651 703 565 778 q 742 501 738 629 l 568 501 q 525 594 564 561 q 421 626 486 626 q 311 588 351 626 q 271 479 271 550 l 271 286 q 311 176 271 215 q 421 138 351 138 q 526 170 488 138 q 568 263 564 203 l 742 263 q 651 60 738 135 q 421 -14 565 -14 m 421 892 q 338 919 368 892 q 307 992 307 946 q 338 1065 307 1038 q 421 1092 368 1092 q 504 1065 474 1092 q 535 992 535 1038 q 504 919 535 946 q 421 892 474 892 z "},"d":{"ha":833,"x_min":97,"x_max":726,"o":"m 351 -14 q 167 65 236 -14 q 97 278 97 143 l 97 485 q 167 699 97 619 q 351 778 236 778 q 489 735 436 778 q 554 618 542 693 l 558 618 l 553 800 l 553 1014 l 726 1014 l 726 0 l 557 0 l 557 146 l 554 146 q 490 28 543 69 q 351 -14 436 -14 m 413 136 q 516 176 479 136 q 553 286 553 215 l 553 478 q 516 588 553 549 q 413 628 479 628 q 308 589 346 628 q 271 478 271 550 l 271 286 q 308 175 271 214 q 413 136 346 136 z "},"ð":{"ha":833,"x_min":72,"x_max":761,"o":"m 417 -6 q 235 35 313 -6 q 115 147 158 75 q 72 315 72 219 q 108 476 72 407 q 209 584 144 546 q 360 622 274 622 q 474 589 426 622 q 540 524 522 556 l 553 524 q 528 569 551 532 q 454 674 506 607 l 374 782 l 154 693 l 154 825 l 297 883 l 200 1014 l 396 1014 l 447 943 l 667 1031 l 667 899 l 524 842 l 613 721 q 724 520 688 618 q 761 332 761 422 q 718 153 761 229 q 598 36 675 78 q 417 -6 521 -6 m 417 142 q 540 189 493 142 q 586 315 586 236 q 540 440 586 393 q 417 488 493 488 q 293 440 339 488 q 247 315 247 393 q 293 189 247 236 q 417 142 339 142 z "},"ď":{"ha":833,"x_min":69,"x_max":846,"o":"m 704 764 l 704 1014 l 846 1014 l 832 764 l 704 764 m 296 -14 q 131 63 192 -14 q 69 271 69 140 l 69 493 q 131 701 69 624 q 296 778 192 778 q 417 735 369 778 q 474 618 464 692 l 478 618 l 472 800 l 472 1014 l 638 1014 l 638 0 l 476 0 l 476 146 l 474 146 q 417 29 464 72 q 296 -14 369 -14 m 357 129 q 442 169 411 129 q 472 279 472 208 l 472 486 q 442 596 472 557 q 357 635 411 635 q 267 596 300 635 q 235 486 235 557 l 235 279 q 267 169 235 208 q 357 129 300 129 z "},"đ":{"ha":833,"x_min":100,"x_max":833,"o":"m 351 -14 q 168 65 236 -14 q 100 278 100 143 l 100 401 q 168 615 100 536 q 351 694 236 694 q 489 652 436 694 q 553 535 542 610 l 557 535 l 551 717 l 551 779 l 339 779 l 339 896 l 551 896 l 551 1014 l 725 1014 l 725 896 l 833 896 l 833 779 l 725 779 l 725 0 l 556 0 l 556 146 l 553 146 q 489 28 542 69 q 351 -14 436 -14 m 413 136 q 515 176 479 136 q 551 286 551 215 l 551 394 q 515 505 551 465 q 413 544 479 544 q 310 506 346 544 q 275 394 275 467 l 275 286 q 310 175 275 214 q 413 136 346 136 z "},"e":{"ha":833,"x_min":97,"x_max":736,"o":"m 418 -14 q 249 24 321 -14 q 137 128 176 61 q 97 286 97 196 l 97 478 q 137 635 97 568 q 249 740 176 703 q 418 778 321 778 q 585 740 514 778 q 697 635 657 703 q 736 478 736 568 l 736 340 l 265 340 l 265 286 q 419 124 265 124 q 560 203 539 124 l 731 203 q 626 45 711 104 q 418 -14 540 -14 m 265 478 l 265 449 l 568 450 l 568 479 q 531 601 568 558 q 418 643 493 643 q 303 600 342 643 q 265 478 265 557 z "},"é":{"ha":833,"x_min":97,"x_max":736,"o":"m 418 -14 q 249 24 321 -14 q 137 128 176 61 q 97 286 97 196 l 97 478 q 137 635 97 568 q 249 740 176 703 q 418 778 321 778 q 585 740 514 778 q 697 635 657 703 q 736 478 736 568 l 736 340 l 265 340 l 265 286 q 419 124 265 124 q 560 203 539 124 l 731 203 q 626 45 711 104 q 418 -14 540 -14 m 265 478 l 265 449 l 568 450 l 568 479 q 531 601 568 558 q 418 643 493 643 q 303 600 342 643 q 265 478 265 557 m 311 896 l 458 1090 l 644 1090 l 486 896 l 311 896 z "},"ĕ":{"ha":833,"x_min":97,"x_max":736,"o":"m 418 -14 q 249 24 321 -14 q 137 128 176 61 q 97 286 97 196 l 97 478 q 137 635 97 568 q 249 740 176 703 q 418 778 321 778 q 585 740 514 778 q 697 635 657 703 q 736 478 736 568 l 736 340 l 265 340 l 265 286 q 419 124 265 124 q 560 203 539 124 l 731 203 q 626 45 711 104 q 418 -14 540 -14 m 265 478 l 265 449 l 568 450 l 568 479 q 531 601 568 558 q 418 643 493 643 q 303 600 342 643 q 265 478 265 557 m 417 885 q 241 941 308 885 q 174 1090 174 997 l 308 1090 q 338 1017 308 1044 q 417 989 368 989 q 495 1017 465 989 q 525 1090 525 1044 l 660 1090 q 593 941 660 997 q 417 885 526 885 z "},"ě":{"ha":833,"x_min":97,"x_max":736,"o":"m 418 -14 q 249 24 321 -14 q 137 128 176 61 q 97 286 97 196 l 97 478 q 137 635 97 568 q 249 740 176 703 q 418 778 321 778 q 585 740 514 778 q 697 635 657 703 q 736 478 736 568 l 736 340 l 265 340 l 265 286 q 419 124 265 124 q 560 203 539 124 l 731 203 q 626 45 711 104 q 418 -14 540 -14 m 265 478 l 265 449 l 568 450 l 568 479 q 531 601 568 558 q 418 643 493 643 q 303 600 342 643 q 265 478 265 557 m 336 896 l 146 1090 l 313 1090 l 418 989 l 519 1090 l 688 1090 l 497 896 l 336 896 z "},"ê":{"ha":833,"x_min":97,"x_max":736,"o":"m 418 -14 q 249 24 321 -14 q 137 128 176 61 q 97 286 97 196 l 97 478 q 137 635 97 568 q 249 740 176 703 q 418 778 321 778 q 585 740 514 778 q 697 635 657 703 q 736 478 736 568 l 736 340 l 265 340 l 265 286 q 419 124 265 124 q 560 203 539 124 l 731 203 q 626 45 711 104 q 418 -14 540 -14 m 265 478 l 265 449 l 568 450 l 568 479 q 531 601 568 558 q 418 643 493 643 q 303 600 342 643 q 265 478 265 557 m 146 896 l 336 1090 l 497 1090 l 688 896 l 521 896 l 415 997 l 314 896 l 146 896 z "},"ế":{"ha":833,"x_min":97,"x_max":917,"o":"m 418 -14 q 249 24 321 -14 q 137 128 176 61 q 97 286 97 196 l 97 478 q 137 635 97 568 q 249 740 176 703 q 418 778 321 778 q 585 740 514 778 q 697 635 657 703 q 736 478 736 568 l 736 340 l 265 340 l 265 286 q 419 124 265 124 q 560 203 539 124 l 731 203 q 626 45 711 104 q 418 -14 540 -14 m 265 478 l 265 449 l 568 450 l 568 479 q 531 601 568 558 q 418 643 493 643 q 303 600 342 643 q 265 478 265 557 m 578 1056 l 742 1250 l 917 1250 l 742 1056 l 578 1056 m 146 896 l 336 1090 l 497 1090 l 688 896 l 519 896 l 417 997 l 314 896 l 146 896 z "},"ệ":{"ha":833,"x_min":97,"x_max":736,"o":"m 418 -14 q 249 24 321 -14 q 137 128 176 61 q 97 286 97 196 l 97 478 q 137 635 97 568 q 249 740 176 703 q 418 778 321 778 q 585 740 514 778 q 697 635 657 703 q 736 478 736 568 l 736 340 l 265 340 l 265 286 q 419 124 265 124 q 560 203 539 124 l 731 203 q 626 45 711 104 q 418 -14 540 -14 m 265 478 l 265 449 l 568 450 l 568 479 q 531 601 568 558 q 418 643 493 643 q 303 600 342 643 q 265 478 265 557 m 417 -312 q 333 -285 364 -312 q 303 -212 303 -258 q 333 -138 303 -165 q 417 -111 364 -111 q 500 -138 469 -111 q 531 -212 531 -165 q 500 -285 531 -258 q 417 -312 469 -312 m 146 896 l 336 1090 l 497 1090 l 688 896 l 521 896 l 415 997 l 314 896 l 146 896 z "},"ề":{"ha":833,"x_min":97,"x_max":810,"o":"m 418 -14 q 249 24 321 -14 q 137 128 176 61 q 97 286 97 196 l 97 478 q 137 635 97 568 q 249 740 176 703 q 418 778 321 778 q 585 740 514 778 q 697 635 657 703 q 736 478 736 568 l 736 340 l 265 340 l 265 286 q 419 124 265 124 q 560 203 539 124 l 731 203 q 626 45 711 104 q 418 -14 540 -14 m 265 478 l 265 449 l 568 450 l 568 479 q 531 601 568 558 q 418 643 493 643 q 303 600 342 643 q 265 478 265 557 m 646 1056 l 465 1250 l 640 1250 l 810 1056 l 646 1056 m 146 896 l 336 1090 l 497 1090 l 688 896 l 519 896 l 417 997 l 314 896 l 146 896 z "},"ể":{"ha":833,"x_min":97,"x_max":796,"o":"m 418 -14 q 249 24 321 -14 q 137 128 176 61 q 97 286 97 196 l 97 478 q 137 635 97 568 q 249 740 176 703 q 418 778 321 778 q 585 740 514 778 q 697 635 657 703 q 736 478 736 568 l 736 340 l 265 340 l 265 286 q 419 124 265 124 q 560 203 539 124 l 731 203 q 626 45 711 104 q 418 -14 540 -14 m 265 478 l 265 449 l 568 450 l 568 479 q 531 601 568 558 q 418 643 493 643 q 303 600 342 643 q 265 478 265 557 m 588 1056 l 653 1138 q 671 1175 671 1160 q 631 1203 671 1203 l 536 1203 l 536 1307 l 653 1307 q 757 1276 718 1307 q 796 1194 796 1246 q 768 1118 796 1154 l 719 1056 l 588 1056 m 146 896 l 336 1090 l 497 1090 l 688 896 l 519 896 l 417 997 l 314 896 l 146 896 z "},"ễ":{"ha":833,"x_min":97,"x_max":736,"o":"m 418 -14 q 249 24 321 -14 q 137 128 176 61 q 97 286 97 196 l 97 478 q 137 635 97 568 q 249 740 176 703 q 418 778 321 778 q 585 740 514 778 q 697 635 657 703 q 736 478 736 568 l 736 340 l 265 340 l 265 286 q 419 124 265 124 q 560 203 539 124 l 731 203 q 626 45 711 104 q 418 -14 540 -14 m 265 478 l 265 449 l 568 450 l 568 479 q 531 601 568 558 q 418 643 493 643 q 303 600 342 643 q 265 478 265 557 m 511 1139 q 441 1152 468 1139 q 397 1182 414 1165 q 364 1211 379 1199 q 326 1224 349 1224 q 285 1179 285 1224 l 285 1147 l 178 1147 l 178 1179 q 217 1284 178 1244 q 322 1324 257 1324 q 393 1310 367 1324 q 437 1281 419 1297 q 469 1251 454 1264 q 507 1239 485 1239 q 549 1279 549 1239 l 549 1314 l 656 1314 l 656 1283 q 616 1178 656 1218 q 511 1139 576 1139 m 146 896 l 336 1090 l 497 1090 l 688 896 l 519 896 l 417 997 l 314 896 l 146 896 z "},"ë":{"ha":833,"x_min":97,"x_max":736,"o":"m 418 -14 q 249 24 321 -14 q 137 128 176 61 q 97 286 97 196 l 97 478 q 137 635 97 568 q 249 740 176 703 q 418 778 321 778 q 585 740 514 778 q 697 635 657 703 q 736 478 736 568 l 736 340 l 265 340 l 265 286 q 419 124 265 124 q 560 203 539 124 l 731 203 q 626 45 711 104 q 418 -14 540 -14 m 265 478 l 265 449 l 568 450 l 568 479 q 531 601 568 558 q 418 643 493 643 q 303 600 342 643 q 265 478 265 557 m 579 892 q 506 919 533 892 q 478 992 478 946 q 506 1065 478 1038 q 579 1092 533 1092 q 654 1065 626 1092 q 682 992 682 1038 q 654 919 682 946 q 579 892 626 892 m 254 892 q 179 919 207 892 q 151 992 151 946 q 179 1065 151 1038 q 254 1092 207 1092 q 328 1065 300 1092 q 356 992 356 1038 q 328 919 356 946 q 254 892 300 892 z "},"ė":{"ha":833,"x_min":97,"x_max":736,"o":"m 418 -14 q 249 24 321 -14 q 137 128 176 61 q 97 286 97 196 l 97 478 q 137 635 97 568 q 249 740 176 703 q 418 778 321 778 q 585 740 514 778 q 697 635 657 703 q 736 478 736 568 l 736 340 l 265 340 l 265 286 q 419 124 265 124 q 560 203 539 124 l 731 203 q 626 45 711 104 q 418 -14 540 -14 m 265 478 l 265 449 l 568 450 l 568 479 q 531 601 568 558 q 418 643 493 643 q 303 600 342 643 q 265 478 265 557 m 417 892 q 333 919 364 892 q 303 992 303 946 q 333 1065 303 1038 q 417 1092 364 1092 q 500 1065 469 1092 q 531 992 531 1038 q 500 919 531 946 q 417 892 469 892 z "},"ẹ":{"ha":833,"x_min":97,"x_max":736,"o":"m 418 -14 q 249 24 321 -14 q 137 128 176 61 q 97 286 97 196 l 97 478 q 137 635 97 568 q 249 740 176 703 q 418 778 321 778 q 585 740 514 778 q 697 635 657 703 q 736 478 736 568 l 736 340 l 265 340 l 265 286 q 419 124 265 124 q 560 203 539 124 l 731 203 q 626 45 711 104 q 418 -14 540 -14 m 265 478 l 265 449 l 568 450 l 568 479 q 531 601 568 558 q 418 643 493 643 q 303 600 342 643 q 265 478 265 557 m 417 -312 q 333 -285 364 -312 q 303 -212 303 -258 q 333 -138 303 -165 q 417 -111 364 -111 q 500 -138 469 -111 q 531 -212 531 -165 q 500 -285 531 -258 q 417 -312 469 -312 z "},"è":{"ha":833,"x_min":97,"x_max":736,"o":"m 418 -14 q 249 24 321 -14 q 137 128 176 61 q 97 286 97 196 l 97 478 q 137 635 97 568 q 249 740 176 703 q 418 778 321 778 q 585 740 514 778 q 697 635 657 703 q 736 478 736 568 l 736 340 l 265 340 l 265 286 q 419 124 265 124 q 560 203 539 124 l 731 203 q 626 45 711 104 q 418 -14 540 -14 m 265 478 l 265 449 l 568 450 l 568 479 q 531 601 568 558 q 418 643 493 643 q 303 600 342 643 q 265 478 265 557 m 346 896 l 185 1090 l 376 1090 l 525 896 l 346 896 z "},"ẻ":{"ha":833,"x_min":97,"x_max":736,"o":"m 418 -14 q 249 24 321 -14 q 137 128 176 61 q 97 286 97 196 l 97 478 q 137 635 97 568 q 249 740 176 703 q 418 778 321 778 q 585 740 514 778 q 697 635 657 703 q 736 478 736 568 l 736 340 l 265 340 l 265 286 q 419 124 265 124 q 560 203 539 124 l 731 203 q 626 45 711 104 q 418 -14 540 -14 m 265 478 l 265 449 l 568 450 l 568 479 q 531 601 568 558 q 418 643 493 643 q 303 600 342 643 q 265 478 265 557 m 346 896 l 415 979 q 435 1021 435 1004 q 394 1047 435 1047 l 283 1047 l 283 1153 l 429 1153 q 527 1122 490 1153 q 564 1040 564 1092 q 536 960 564 994 l 485 896 l 346 896 z "},"ē":{"ha":833,"x_min":97,"x_max":736,"o":"m 418 -14 q 249 24 321 -14 q 137 128 176 61 q 97 286 97 196 l 97 478 q 137 635 97 568 q 249 740 176 703 q 418 778 321 778 q 585 740 514 778 q 697 635 657 703 q 736 478 736 568 l 736 340 l 265 340 l 265 286 q 419 124 265 124 q 560 203 539 124 l 731 203 q 626 45 711 104 q 418 -14 540 -14 m 265 478 l 265 449 l 568 450 l 568 479 q 531 601 568 558 q 418 643 493 643 q 303 600 342 643 q 265 478 265 557 m 178 918 l 178 1051 l 656 1051 l 656 918 l 178 918 z "},"ę":{"ha":833,"x_min":100,"x_max":733,"o":"m 507 -300 q 378 -260 426 -300 q 331 -157 331 -219 q 425 -14 331 -86 l 418 -14 q 249 24 321 -14 q 139 128 178 61 q 100 286 100 196 l 100 478 q 139 635 100 568 q 249 740 178 703 q 418 778 321 778 q 585 740 514 778 q 695 635 657 703 q 733 478 733 568 l 733 340 l 267 340 l 267 286 q 419 124 267 124 q 557 203 538 124 l 729 203 q 684 103 718 147 q 601 32 650 60 l 550 -14 q 481 -121 481 -75 q 499 -163 481 -146 q 550 -181 517 -181 l 640 -181 l 640 -300 l 507 -300 m 267 478 l 267 449 l 567 450 l 567 479 q 530 601 567 558 q 418 643 493 643 q 304 600 342 643 q 267 478 267 557 z "},"ẽ":{"ha":833,"x_min":97,"x_max":736,"o":"m 418 -14 q 249 24 321 -14 q 137 128 176 61 q 97 286 97 196 l 97 478 q 137 635 97 568 q 249 740 176 703 q 418 778 321 778 q 585 740 514 778 q 697 635 657 703 q 736 478 736 568 l 736 340 l 265 340 l 265 286 q 419 124 265 124 q 560 203 539 124 l 731 203 q 626 45 711 104 q 418 -14 540 -14 m 265 478 l 265 449 l 568 450 l 568 479 q 531 601 568 558 q 418 643 493 643 q 303 600 342 643 q 265 478 265 557 m 514 890 q 444 904 471 890 q 399 935 417 918 q 365 966 381 953 q 326 979 349 979 q 285 933 285 979 l 285 897 l 178 897 l 178 943 q 217 1053 178 1011 q 319 1096 256 1096 q 390 1082 363 1096 q 435 1051 417 1068 q 469 1020 453 1033 q 507 1007 485 1007 q 549 1050 549 1007 l 549 1089 l 656 1089 l 656 1043 q 617 933 656 975 q 514 890 578 890 z "},"ə":{"ha":833,"x_min":100,"x_max":733,"o":"m 415 -14 q 249 24 319 -14 q 139 128 178 61 q 100 286 100 196 l 100 424 l 565 424 l 565 478 q 414 640 565 640 q 278 561 297 640 l 106 561 q 209 719 125 660 q 415 778 293 778 q 584 740 513 778 q 694 635 656 703 q 733 478 733 568 l 733 286 q 694 128 733 196 q 584 24 656 61 q 415 -14 513 -14 m 415 122 q 528 165 492 122 q 565 286 565 207 l 565 315 l 268 315 l 268 286 q 304 165 268 207 q 415 122 340 122 z "},"f":{"ha":833,"x_min":75,"x_max":751,"o":"m 285 0 l 285 522 l 75 522 l 75 679 l 285 679 l 285 794 q 351 954 285 894 q 528 1014 418 1014 l 751 1014 l 751 861 l 532 861 q 478 842 499 861 q 458 792 458 824 l 458 679 l 751 679 l 751 522 l 458 522 l 458 0 l 285 0 z "},"g":{"ha":833,"x_min":100,"x_max":726,"o":"m 211 -250 l 211 -106 l 438 -106 q 554 4 554 -106 l 554 61 l 557 204 l 554 204 q 490 87 543 129 q 354 44 438 44 q 169 124 238 44 q 100 338 100 203 l 100 486 q 169 699 100 619 q 354 778 238 778 q 490 735 438 778 q 554 618 543 693 l 557 618 l 553 764 l 726 764 l 726 0 q 650 -183 726 -117 q 440 -250 574 -250 l 211 -250 m 413 194 q 516 234 479 194 q 553 344 553 274 l 553 478 q 516 588 553 549 q 413 628 479 628 q 310 589 346 628 q 274 478 274 550 l 274 344 q 310 233 274 272 q 413 194 346 194 z "},"ǵ":{"ha":833,"x_min":100,"x_max":726,"o":"m 211 -250 l 211 -106 l 438 -106 q 554 4 554 -106 l 554 61 l 557 204 l 554 204 q 490 87 543 129 q 354 44 438 44 q 169 124 238 44 q 100 338 100 203 l 100 486 q 169 699 100 619 q 354 778 238 778 q 490 735 438 778 q 554 618 543 693 l 557 618 l 553 764 l 726 764 l 726 0 q 650 -183 726 -117 q 440 -250 574 -250 l 211 -250 m 413 194 q 516 234 479 194 q 553 344 553 274 l 553 478 q 516 588 553 549 q 413 628 479 628 q 310 589 346 628 q 274 478 274 550 l 274 344 q 310 233 274 272 q 413 194 346 194 m 307 896 l 454 1090 l 640 1090 l 482 896 l 307 896 z "},"ğ":{"ha":833,"x_min":100,"x_max":726,"o":"m 211 -250 l 211 -106 l 438 -106 q 554 4 554 -106 l 554 61 l 557 204 l 554 204 q 490 87 543 129 q 354 44 438 44 q 169 124 238 44 q 100 338 100 203 l 100 486 q 169 699 100 619 q 354 778 238 778 q 490 735 438 778 q 554 618 543 693 l 557 618 l 553 764 l 726 764 l 726 0 q 650 -183 726 -117 q 440 -250 574 -250 l 211 -250 m 413 194 q 516 234 479 194 q 553 344 553 274 l 553 478 q 516 588 553 549 q 413 628 479 628 q 310 589 346 628 q 274 478 274 550 l 274 344 q 310 233 274 272 q 413 194 346 194 m 413 885 q 237 941 304 885 q 169 1090 169 997 l 304 1090 q 334 1017 304 1044 q 413 989 364 989 q 491 1017 461 989 q 521 1090 521 1044 l 656 1090 q 589 941 656 997 q 413 885 522 885 z "},"ǧ":{"ha":833,"x_min":100,"x_max":726,"o":"m 211 -250 l 211 -106 l 438 -106 q 554 4 554 -106 l 554 61 l 557 204 l 554 204 q 490 87 543 129 q 354 44 438 44 q 169 124 238 44 q 100 338 100 203 l 100 486 q 169 699 100 619 q 354 778 238 778 q 490 735 438 778 q 554 618 543 693 l 557 618 l 553 764 l 726 764 l 726 0 q 650 -183 726 -117 q 440 -250 574 -250 l 211 -250 m 413 194 q 516 234 479 194 q 553 344 553 274 l 553 478 q 516 588 553 549 q 413 628 479 628 q 310 589 346 628 q 274 478 274 550 l 274 344 q 310 233 274 272 q 413 194 346 194 m 332 896 l 142 1090 l 308 1090 l 414 989 l 515 1090 l 683 1090 l 493 896 l 332 896 z "},"ĝ":{"ha":833,"x_min":100,"x_max":726,"o":"m 211 -250 l 211 -106 l 438 -106 q 554 4 554 -106 l 554 61 l 557 204 l 554 204 q 490 87 543 129 q 354 44 438 44 q 169 124 238 44 q 100 338 100 203 l 100 486 q 169 699 100 619 q 354 778 238 778 q 490 735 438 778 q 554 618 543 693 l 557 618 l 553 764 l 726 764 l 726 0 q 650 -183 726 -117 q 440 -250 574 -250 l 211 -250 m 413 194 q 516 234 479 194 q 553 344 553 274 l 553 478 q 516 588 553 549 q 413 628 479 628 q 310 589 346 628 q 274 478 274 550 l 274 344 q 310 233 274 272 q 413 194 346 194 m 142 896 l 332 1090 l 493 1090 l 683 896 l 517 896 l 411 997 l 310 896 l 142 896 z "},"ģ":{"ha":833,"x_min":100,"x_max":726,"o":"m 211 -250 l 211 -106 l 438 -106 q 554 4 554 -106 l 554 61 l 557 204 l 554 204 q 490 87 543 129 q 354 44 438 44 q 169 124 238 44 q 100 338 100 203 l 100 486 q 169 699 100 619 q 354 778 238 778 q 490 735 438 778 q 554 618 543 693 l 557 618 l 553 764 l 726 764 l 726 0 q 650 -183 726 -117 q 440 -250 574 -250 l 211 -250 m 413 194 q 516 234 479 194 q 553 344 553 274 l 553 478 q 516 588 553 549 q 413 628 479 628 q 310 589 346 628 q 274 478 274 550 l 274 344 q 310 233 274 272 q 413 194 346 194 m 593 1222 l 482 896 l 271 896 l 451 1222 l 593 1222 z "},"ġ":{"ha":833,"x_min":100,"x_max":726,"o":"m 211 -250 l 211 -106 l 438 -106 q 554 4 554 -106 l 554 61 l 557 204 l 554 204 q 490 87 543 129 q 354 44 438 44 q 169 124 238 44 q 100 338 100 203 l 100 486 q 169 699 100 619 q 354 778 238 778 q 490 735 438 778 q 554 618 543 693 l 557 618 l 553 764 l 726 764 l 726 0 q 650 -183 726 -117 q 440 -250 574 -250 l 211 -250 m 413 194 q 516 234 479 194 q 553 344 553 274 l 553 478 q 516 588 553 549 q 413 628 479 628 q 310 589 346 628 q 274 478 274 550 l 274 344 q 310 233 274 272 q 413 194 346 194 m 413 892 q 329 919 360 892 q 299 992 299 946 q 329 1065 299 1038 q 413 1092 360 1092 q 496 1065 465 1092 q 526 992 526 1038 q 496 919 526 946 q 413 892 465 892 z "},"h":{"ha":833,"x_min":107,"x_max":729,"o":"m 107 0 l 107 1014 l 281 1014 l 281 764 l 276 618 l 279 618 q 344 735 290 693 q 482 778 397 778 q 662 703 594 778 q 729 501 729 628 l 729 0 l 556 0 l 556 483 q 519 590 556 553 q 418 628 482 628 q 317 589 354 628 q 281 478 281 550 l 281 0 l 107 0 z "},"ħ":{"ha":833,"x_min":0,"x_max":729,"o":"m 0 779 l 0 896 l 107 896 l 107 1014 l 281 1014 l 281 896 l 494 896 l 494 779 l 281 779 l 281 681 l 276 535 l 279 535 q 344 652 292 610 q 482 694 397 694 q 662 619 594 694 q 729 418 729 544 l 729 0 l 556 0 l 556 400 q 519 507 556 469 q 418 544 482 544 q 317 506 354 544 q 281 394 281 467 l 281 0 l 107 0 l 107 779 l 0 779 z "},"ĥ":{"ha":833,"x_min":-62,"x_max":729,"o":"m 107 0 l 107 1014 l 281 1014 l 281 764 l 276 618 l 279 618 q 344 735 290 693 q 482 778 397 778 q 662 703 594 778 q 729 501 729 628 l 729 0 l 556 0 l 556 483 q 519 590 556 553 q 418 628 482 628 q 317 589 354 628 q 281 478 281 550 l 281 0 l 107 0 m -62 1118 l 128 1313 l 289 1313 l 479 1118 l 313 1118 l 207 1219 l 106 1118 l -62 1118 z "},"i":{"ha":833,"x_min":106,"x_max":775,"o":"m 106 0 l 106 158 l 372 158 l 372 607 l 140 607 l 140 764 l 539 764 l 539 158 l 775 158 l 775 0 l 106 0 m 442 892 q 358 919 389 892 q 328 992 328 946 q 358 1065 328 1038 q 442 1092 389 1092 q 525 1065 494 1092 q 556 992 556 1038 q 525 919 556 946 q 442 892 494 892 z "},"ı":{"ha":833,"x_min":106,"x_max":775,"o":"m 106 0 l 106 158 l 372 158 l 372 607 l 140 607 l 140 764 l 539 764 l 539 158 l 775 158 l 775 0 l 106 0 z "},"í":{"ha":833,"x_min":106,"x_max":775,"o":"m 106 0 l 106 158 l 372 158 l 372 607 l 140 607 l 140 764 l 539 764 l 539 158 l 775 158 l 775 0 l 106 0 m 336 896 l 483 1090 l 669 1090 l 511 896 l 336 896 z "},"ĭ":{"ha":833,"x_min":106,"x_max":775,"o":"m 106 0 l 106 158 l 372 158 l 372 607 l 140 607 l 140 764 l 539 764 l 539 158 l 775 158 l 775 0 l 106 0 m 442 885 q 266 941 333 885 q 199 1090 199 997 l 333 1090 q 363 1017 333 1044 q 442 989 393 989 q 520 1017 490 989 q 550 1090 550 1044 l 685 1090 q 618 941 685 997 q 442 885 551 885 z "},"î":{"ha":833,"x_min":106,"x_max":775,"o":"m 106 0 l 106 158 l 372 158 l 372 607 l 140 607 l 140 764 l 539 764 l 539 158 l 775 158 l 775 0 l 106 0 m 171 896 l 361 1090 l 522 1090 l 713 896 l 546 896 l 440 997 l 339 896 l 171 896 z "},"ï":{"ha":833,"x_min":106,"x_max":775,"o":"m 106 0 l 106 158 l 372 158 l 372 607 l 140 607 l 140 764 l 539 764 l 539 158 l 775 158 l 775 0 l 106 0 m 604 892 q 531 919 558 892 q 503 992 503 946 q 531 1065 503 1038 q 604 1092 558 1092 q 679 1065 651 1092 q 707 992 707 1038 q 679 919 707 946 q 604 892 651 892 m 279 892 q 204 919 232 892 q 176 992 176 946 q 204 1065 176 1038 q 279 1092 232 1092 q 353 1065 325 1092 q 381 992 381 1038 q 353 919 381 946 q 279 892 325 892 z "},"ị":{"ha":833,"x_min":106,"x_max":775,"o":"m 106 0 l 106 158 l 372 158 l 372 607 l 140 607 l 140 764 l 539 764 l 539 158 l 775 158 l 775 0 l 106 0 m 442 892 q 358 919 389 892 q 328 992 328 946 q 358 1065 328 1038 q 442 1092 389 1092 q 525 1065 494 1092 q 556 992 556 1038 q 525 919 556 946 q 442 892 494 892 m 442 -312 q 358 -285 389 -312 q 328 -212 328 -258 q 358 -138 328 -165 q 442 -111 389 -111 q 525 -138 494 -111 q 556 -212 556 -165 q 525 -285 556 -258 q 442 -312 494 -312 z "},"ì":{"ha":833,"x_min":106,"x_max":775,"o":"m 106 0 l 106 158 l 372 158 l 372 607 l 140 607 l 140 764 l 539 764 l 539 158 l 775 158 l 775 0 l 106 0 m 371 896 l 210 1090 l 401 1090 l 550 896 l 371 896 z "},"ỉ":{"ha":833,"x_min":106,"x_max":775,"o":"m 106 0 l 106 158 l 372 158 l 372 607 l 140 607 l 140 764 l 539 764 l 539 158 l 775 158 l 775 0 l 106 0 m 371 896 l 440 979 q 460 1021 460 1004 q 419 1047 460 1047 l 308 1047 l 308 1153 l 454 1153 q 552 1122 515 1153 q 589 1040 589 1092 q 561 960 589 994 l 510 896 l 371 896 z "},"ī":{"ha":833,"x_min":106,"x_max":775,"o":"m 106 0 l 106 158 l 372 158 l 372 607 l 140 607 l 140 764 l 539 764 l 539 158 l 775 158 l 775 0 l 106 0 m 203 918 l 203 1051 l 681 1051 l 681 918 l 203 918 z "},"į":{"ha":833,"x_min":106,"x_max":775,"o":"m 442 892 q 358 919 389 892 q 328 992 328 946 q 358 1065 328 1038 q 442 1092 389 1092 q 525 1065 494 1092 q 556 992 556 1038 q 525 919 556 946 q 442 892 494 892 m 106 0 l 106 158 l 372 158 l 372 607 l 140 607 l 140 764 l 539 764 l 539 158 l 775 158 l 775 0 l 501 0 l 486 -14 q 415 -121 415 -75 q 433 -163 415 -146 q 485 -181 451 -181 l 575 -181 l 575 -300 l 442 -300 q 313 -260 361 -300 q 265 -157 265 -219 q 379 0 265 -71 l 106 0 z "},"ĩ":{"ha":833,"x_min":106,"x_max":775,"o":"m 106 0 l 106 158 l 372 158 l 372 607 l 140 607 l 140 764 l 539 764 l 539 158 l 775 158 l 775 0 l 106 0 m 539 890 q 469 904 496 890 q 424 935 442 918 q 390 966 406 953 q 351 979 374 979 q 310 933 310 979 l 310 897 l 203 897 l 203 943 q 242 1053 203 1011 q 344 1096 281 1096 q 415 1082 388 1096 q 460 1051 442 1068 q 494 1020 478 1033 q 532 1007 510 1007 q 574 1050 574 1007 l 574 1089 l 681 1089 l 681 1043 q 642 933 681 975 q 539 890 603 890 z "},"j":{"ha":833,"x_min":89,"x_max":657,"o":"m 89 -250 l 89 -89 l 314 -89 q 421 -51 383 -89 q 458 54 458 -14 l 458 603 l 117 603 l 117 764 l 632 764 l 632 50 q 549 -169 632 -89 q 324 -250 465 -250 l 89 -250 m 543 892 q 460 919 490 892 q 429 992 429 946 q 460 1065 429 1038 q 543 1092 490 1092 q 626 1065 596 1092 q 657 992 657 1038 q 626 919 657 946 q 543 892 596 892 z "},"ȷ":{"ha":833,"x_min":89,"x_max":632,"o":"m 89 -250 l 89 -89 l 314 -89 q 421 -51 383 -89 q 458 54 458 -14 l 458 603 l 117 603 l 117 764 l 632 764 l 632 50 q 549 -169 632 -89 q 324 -250 465 -250 l 89 -250 z "},"ĵ":{"ha":833,"x_min":89,"x_max":814,"o":"m 89 -250 l 89 -89 l 314 -89 q 421 -51 383 -89 q 458 54 458 -14 l 458 603 l 117 603 l 117 764 l 632 764 l 632 50 q 549 -169 632 -89 q 324 -250 465 -250 l 89 -250 m 272 896 l 463 1090 l 624 1090 l 814 896 l 647 896 l 542 997 l 440 896 l 272 896 z "},"k":{"ha":833,"x_min":111,"x_max":790,"o":"m 111 0 l 111 1014 l 285 1014 l 285 464 l 406 464 l 592 764 l 786 764 l 556 394 l 790 0 l 592 0 l 406 317 l 285 317 l 285 0 l 111 0 z "},"ķ":{"ha":833,"x_min":111,"x_max":790,"o":"m 111 0 l 111 1014 l 285 1014 l 285 464 l 406 464 l 592 764 l 786 764 l 556 394 l 790 0 l 592 0 l 406 317 l 285 317 l 285 0 l 111 0 m 251 -333 l 383 -132 l 567 -132 l 413 -333 l 251 -333 z "},"ĸ":{"ha":833,"x_min":113,"x_max":785,"o":"m 113 0 l 113 764 l 286 764 l 286 464 l 400 464 l 586 764 l 781 764 l 550 394 l 785 0 l 586 0 l 400 317 l 286 317 l 286 0 l 113 0 z "},"l":{"ha":833,"x_min":38,"x_max":776,"o":"m 540 0 q 358 68 426 0 q 289 247 289 136 l 289 857 l 38 857 l 38 1014 l 463 1014 l 463 247 q 487 182 463 207 q 553 157 511 157 l 776 157 l 776 0 l 540 0 z "},"ĺ":{"ha":833,"x_min":38,"x_max":776,"o":"m 540 0 q 358 68 426 0 q 289 247 289 136 l 289 857 l 38 857 l 38 1014 l 463 1014 l 463 247 q 487 182 463 207 q 553 157 511 157 l 776 157 l 776 0 l 540 0 m 258 1125 l 406 1319 l 592 1319 l 433 1125 l 258 1125 z "},"ľ":{"ha":833,"x_min":38,"x_max":794,"o":"m 540 0 q 358 68 426 0 q 289 247 289 136 l 289 857 l 38 857 l 38 1014 l 463 1014 l 463 247 q 487 182 463 207 q 553 157 511 157 l 776 157 l 776 0 l 540 0 m 618 764 l 632 1014 l 794 1014 l 767 764 l 618 764 z "},"ļ":{"ha":833,"x_min":38,"x_max":776,"o":"m 540 0 q 358 68 426 0 q 289 247 289 136 l 289 857 l 38 857 l 38 1014 l 463 1014 l 463 247 q 487 182 463 207 q 553 157 511 157 l 776 157 l 776 0 l 540 0 m 279 -333 l 411 -132 l 594 -132 l 440 -333 l 279 -333 z "},"ŀ":{"ha":833,"x_min":10,"x_max":908,"o":"m 513 0 q 330 68 399 0 q 261 247 261 136 l 261 857 l 10 857 l 10 1014 l 435 1014 l 435 247 q 459 182 435 207 q 525 157 483 157 l 749 157 l 749 0 l 513 0 m 778 368 q 683 403 718 368 q 647 497 647 438 q 683 592 647 557 q 778 628 718 628 q 873 592 838 628 q 908 497 908 557 q 873 403 908 438 q 778 368 838 368 z "},"ł":{"ha":833,"x_min":38,"x_max":776,"o":"m 139 319 l 139 479 l 289 565 l 289 857 l 38 857 l 38 1014 l 463 1014 l 463 665 l 661 778 l 661 618 l 463 504 l 463 247 q 487 182 463 207 q 553 157 511 157 l 776 157 l 776 0 l 540 0 q 358 68 426 0 q 289 247 289 136 l 289 406 l 139 319 z "},"m":{"ha":833,"x_min":72,"x_max":763,"o":"m 72 0 l 72 764 l 214 764 l 214 661 l 221 661 q 261 746 228 714 q 346 778 294 778 q 428 747 394 778 q 472 661 461 715 l 478 661 q 521 746 486 714 q 608 778 556 778 q 720 724 678 778 q 763 582 763 669 l 763 0 l 610 0 l 610 569 q 544 650 610 650 q 479 569 479 650 l 479 0 l 354 0 l 354 569 q 289 650 354 650 q 225 569 225 650 l 225 0 l 72 0 z "},"n":{"ha":833,"x_min":107,"x_max":729,"o":"m 107 0 l 107 764 l 276 764 l 276 618 l 279 618 q 344 735 292 693 q 482 778 397 778 q 662 703 594 778 q 729 501 729 628 l 729 0 l 556 0 l 556 483 q 519 590 556 553 q 419 628 482 628 q 317 589 354 628 q 281 478 281 550 l 281 0 l 107 0 z "},"ń":{"ha":833,"x_min":107,"x_max":729,"o":"m 107 0 l 107 764 l 276 764 l 276 618 l 279 618 q 344 735 292 693 q 482 778 397 778 q 662 703 594 778 q 729 501 729 628 l 729 0 l 556 0 l 556 483 q 519 590 556 553 q 419 628 482 628 q 317 589 354 628 q 281 478 281 550 l 281 0 l 107 0 m 318 896 l 465 1090 l 651 1090 l 493 896 l 318 896 z "},"ŉ":{"ha":833,"x_min":-26,"x_max":729,"o":"m 107 0 l 107 764 l 276 764 l 276 618 l 279 618 q 344 735 292 693 q 482 778 397 778 q 662 703 594 778 q 729 501 729 628 l 729 0 l 556 0 l 556 483 q 519 590 556 553 q 419 628 482 628 q 317 589 354 628 q 281 478 281 550 l 281 0 l 107 0 m -26 896 l 106 1097 l 289 1097 l 135 896 l -26 896 z "},"ň":{"ha":833,"x_min":107,"x_max":729,"o":"m 107 0 l 107 764 l 276 764 l 276 618 l 279 618 q 344 735 292 693 q 482 778 397 778 q 662 703 594 778 q 729 501 729 628 l 729 0 l 556 0 l 556 483 q 519 590 556 553 q 419 628 482 628 q 317 589 354 628 q 281 478 281 550 l 281 0 l 107 0 m 343 896 l 153 1090 l 319 1090 l 425 989 l 526 1090 l 694 1090 l 504 896 l 343 896 z "},"ņ":{"ha":833,"x_min":107,"x_max":729,"o":"m 107 0 l 107 764 l 276 764 l 276 618 l 279 618 q 344 735 292 693 q 482 778 397 778 q 662 703 594 778 q 729 501 729 628 l 729 0 l 556 0 l 556 483 q 519 590 556 553 q 419 628 482 628 q 317 589 354 628 q 281 478 281 550 l 281 0 l 107 0 m 251 -333 l 383 -132 l 567 -132 l 413 -333 l 251 -333 z "},"ŋ":{"ha":833,"x_min":108,"x_max":728,"o":"m 339 -250 l 339 -85 l 424 -85 q 519 -51 485 -85 q 554 42 554 -18 l 554 483 q 518 590 554 553 q 418 628 482 628 q 318 589 354 628 q 282 478 282 550 l 282 0 l 108 0 l 108 764 l 278 764 l 278 618 l 281 618 q 344 735 292 693 q 482 778 397 778 q 661 703 594 778 q 728 501 728 628 l 728 29 q 688 -117 728 -54 q 578 -215 649 -179 q 415 -250 508 -250 l 339 -250 z "},"ñ":{"ha":833,"x_min":107,"x_max":729,"o":"m 107 0 l 107 764 l 276 764 l 276 618 l 279 618 q 344 735 292 693 q 482 778 397 778 q 662 703 594 778 q 729 501 729 628 l 729 0 l 556 0 l 556 483 q 519 590 556 553 q 419 628 482 628 q 317 589 354 628 q 281 478 281 550 l 281 0 l 107 0 m 521 890 q 451 904 478 890 q 406 935 424 918 q 372 966 388 953 q 333 979 356 979 q 292 933 292 979 l 292 897 l 185 897 l 185 943 q 224 1053 185 1011 q 326 1096 263 1096 q 397 1082 369 1096 q 442 1051 424 1068 q 476 1020 460 1033 q 514 1007 492 1007 q 556 1050 556 1007 l 556 1089 l 663 1089 l 663 1043 q 624 933 663 975 q 521 890 585 890 z "},"o":{"ha":833,"x_min":97,"x_max":736,"o":"m 417 -12 q 183 69 269 -12 q 97 288 97 150 l 97 476 q 183 695 97 614 q 417 776 269 776 q 650 695 564 776 q 736 478 736 614 l 736 288 q 650 69 736 150 q 417 -12 564 -12 m 417 139 q 524 177 486 139 q 563 288 563 215 l 563 476 q 524 587 563 549 q 417 625 486 625 q 309 587 347 625 q 271 476 271 549 l 271 288 q 309 177 271 215 q 417 139 347 139 z "},"ó":{"ha":833,"x_min":97,"x_max":736,"o":"m 417 -12 q 183 69 269 -12 q 97 288 97 150 l 97 476 q 183 695 97 614 q 417 776 269 776 q 650 695 564 776 q 736 478 736 614 l 736 288 q 650 69 736 150 q 417 -12 564 -12 m 417 139 q 524 177 486 139 q 563 288 563 215 l 563 476 q 524 587 563 549 q 417 625 486 625 q 309 587 347 625 q 271 476 271 549 l 271 288 q 309 177 271 215 q 417 139 347 139 m 311 896 l 458 1090 l 644 1090 l 486 896 l 311 896 z "},"ŏ":{"ha":833,"x_min":97,"x_max":736,"o":"m 417 -12 q 183 69 269 -12 q 97 288 97 150 l 97 476 q 183 695 97 614 q 417 776 269 776 q 650 695 564 776 q 736 478 736 614 l 736 288 q 650 69 736 150 q 417 -12 564 -12 m 417 139 q 524 177 486 139 q 563 288 563 215 l 563 476 q 524 587 563 549 q 417 625 486 625 q 309 587 347 625 q 271 476 271 549 l 271 288 q 309 177 271 215 q 417 139 347 139 m 417 885 q 241 941 308 885 q 174 1090 174 997 l 308 1090 q 338 1017 308 1044 q 417 989 368 989 q 495 1017 465 989 q 525 1090 525 1044 l 660 1090 q 593 941 660 997 q 417 885 526 885 z "},"ô":{"ha":833,"x_min":97,"x_max":736,"o":"m 417 -12 q 183 69 269 -12 q 97 288 97 150 l 97 476 q 183 695 97 614 q 417 776 269 776 q 650 695 564 776 q 736 478 736 614 l 736 288 q 650 69 736 150 q 417 -12 564 -12 m 417 139 q 524 177 486 139 q 563 288 563 215 l 563 476 q 524 587 563 549 q 417 625 486 625 q 309 587 347 625 q 271 476 271 549 l 271 288 q 309 177 271 215 q 417 139 347 139 m 146 896 l 336 1090 l 497 1090 l 688 896 l 521 896 l 415 997 l 314 896 l 146 896 z "},"ố":{"ha":833,"x_min":97,"x_max":917,"o":"m 417 -12 q 183 69 269 -12 q 97 288 97 150 l 97 476 q 183 695 97 614 q 417 776 269 776 q 650 695 564 776 q 736 478 736 614 l 736 288 q 650 69 736 150 q 417 -12 564 -12 m 417 139 q 524 177 486 139 q 563 288 563 215 l 563 476 q 524 587 563 549 q 417 625 486 625 q 309 587 347 625 q 271 476 271 549 l 271 288 q 309 177 271 215 q 417 139 347 139 m 578 1056 l 742 1250 l 917 1250 l 742 1056 l 578 1056 m 146 896 l 336 1090 l 497 1090 l 688 896 l 519 896 l 417 997 l 314 896 l 146 896 z "},"ộ":{"ha":833,"x_min":97,"x_max":736,"o":"m 417 -12 q 183 69 269 -12 q 97 288 97 150 l 97 476 q 183 695 97 614 q 417 776 269 776 q 650 695 564 776 q 736 478 736 614 l 736 288 q 650 69 736 150 q 417 -12 564 -12 m 417 139 q 524 177 486 139 q 563 288 563 215 l 563 476 q 524 587 563 549 q 417 625 486 625 q 309 587 347 625 q 271 476 271 549 l 271 288 q 309 177 271 215 q 417 139 347 139 m 417 -312 q 333 -285 364 -312 q 303 -212 303 -258 q 333 -138 303 -165 q 417 -111 364 -111 q 500 -138 469 -111 q 531 -212 531 -165 q 500 -285 531 -258 q 417 -312 469 -312 m 146 896 l 336 1090 l 497 1090 l 688 896 l 521 896 l 415 997 l 314 896 l 146 896 z "},"ồ":{"ha":833,"x_min":97,"x_max":810,"o":"m 417 -12 q 183 69 269 -12 q 97 288 97 150 l 97 476 q 183 695 97 614 q 417 776 269 776 q 650 695 564 776 q 736 478 736 614 l 736 288 q 650 69 736 150 q 417 -12 564 -12 m 417 139 q 524 177 486 139 q 563 288 563 215 l 563 476 q 524 587 563 549 q 417 625 486 625 q 309 587 347 625 q 271 476 271 549 l 271 288 q 309 177 271 215 q 417 139 347 139 m 646 1056 l 465 1250 l 640 1250 l 810 1056 l 646 1056 m 146 896 l 336 1090 l 497 1090 l 688 896 l 519 896 l 417 997 l 314 896 l 146 896 z "},"ổ":{"ha":833,"x_min":97,"x_max":796,"o":"m 417 -12 q 183 69 269 -12 q 97 288 97 150 l 97 476 q 183 695 97 614 q 417 776 269 776 q 650 695 564 776 q 736 478 736 614 l 736 288 q 650 69 736 150 q 417 -12 564 -12 m 417 139 q 524 177 486 139 q 563 288 563 215 l 563 476 q 524 587 563 549 q 417 625 486 625 q 309 587 347 625 q 271 476 271 549 l 271 288 q 309 177 271 215 q 417 139 347 139 m 588 1056 l 653 1138 q 671 1175 671 1160 q 631 1203 671 1203 l 536 1203 l 536 1307 l 653 1307 q 757 1276 718 1307 q 796 1194 796 1246 q 768 1118 796 1154 l 719 1056 l 588 1056 m 146 896 l 336 1090 l 497 1090 l 688 896 l 519 896 l 417 997 l 314 896 l 146 896 z "},"ỗ":{"ha":833,"x_min":97,"x_max":736,"o":"m 417 -12 q 183 69 269 -12 q 97 288 97 150 l 97 476 q 183 695 97 614 q 417 776 269 776 q 650 695 564 776 q 736 478 736 614 l 736 288 q 650 69 736 150 q 417 -12 564 -12 m 417 139 q 524 177 486 139 q 563 288 563 215 l 563 476 q 524 587 563 549 q 417 625 486 625 q 309 587 347 625 q 271 476 271 549 l 271 288 q 309 177 271 215 q 417 139 347 139 m 511 1139 q 441 1152 468 1139 q 397 1182 414 1165 q 364 1211 379 1199 q 326 1224 349 1224 q 285 1179 285 1224 l 285 1147 l 178 1147 l 178 1179 q 217 1284 178 1244 q 322 1324 257 1324 q 393 1310 367 1324 q 437 1281 419 1297 q 469 1251 454 1264 q 507 1239 485 1239 q 549 1279 549 1239 l 549 1314 l 656 1314 l 656 1283 q 616 1178 656 1218 q 511 1139 576 1139 m 146 896 l 336 1090 l 497 1090 l 688 896 l 519 896 l 417 997 l 314 896 l 146 896 z "},"ö":{"ha":833,"x_min":97,"x_max":736,"o":"m 417 -12 q 183 69 269 -12 q 97 288 97 150 l 97 476 q 183 695 97 614 q 417 776 269 776 q 650 695 564 776 q 736 478 736 614 l 736 288 q 650 69 736 150 q 417 -12 564 -12 m 417 139 q 524 177 486 139 q 563 288 563 215 l 563 476 q 524 587 563 549 q 417 625 486 625 q 309 587 347 625 q 271 476 271 549 l 271 288 q 309 177 271 215 q 417 139 347 139 m 579 892 q 506 919 533 892 q 478 992 478 946 q 506 1065 478 1038 q 579 1092 533 1092 q 654 1065 626 1092 q 682 992 682 1038 q 654 919 682 946 q 579 892 626 892 m 254 892 q 179 919 207 892 q 151 992 151 946 q 179 1065 151 1038 q 254 1092 207 1092 q 328 1065 300 1092 q 356 992 356 1038 q 328 919 356 946 q 254 892 300 892 z "},"ọ":{"ha":833,"x_min":97,"x_max":736,"o":"m 417 -12 q 183 69 269 -12 q 97 288 97 150 l 97 476 q 183 695 97 614 q 417 776 269 776 q 650 695 564 776 q 736 478 736 614 l 736 288 q 650 69 736 150 q 417 -12 564 -12 m 417 139 q 524 177 486 139 q 563 288 563 215 l 563 476 q 524 587 563 549 q 417 625 486 625 q 309 587 347 625 q 271 476 271 549 l 271 288 q 309 177 271 215 q 417 139 347 139 m 417 -312 q 333 -285 364 -312 q 303 -212 303 -258 q 333 -138 303 -165 q 417 -111 364 -111 q 500 -138 469 -111 q 531 -212 531 -165 q 500 -285 531 -258 q 417 -312 469 -312 z "},"ò":{"ha":833,"x_min":97,"x_max":736,"o":"m 417 -12 q 183 69 269 -12 q 97 288 97 150 l 97 476 q 183 695 97 614 q 417 776 269 776 q 650 695 564 776 q 736 478 736 614 l 736 288 q 650 69 736 150 q 417 -12 564 -12 m 417 139 q 524 177 486 139 q 563 288 563 215 l 563 476 q 524 587 563 549 q 417 625 486 625 q 309 587 347 625 q 271 476 271 549 l 271 288 q 309 177 271 215 q 417 139 347 139 m 346 896 l 185 1090 l 376 1090 l 525 896 l 346 896 z "},"ỏ":{"ha":833,"x_min":97,"x_max":736,"o":"m 417 -12 q 183 69 269 -12 q 97 288 97 150 l 97 476 q 183 695 97 614 q 417 776 269 776 q 650 695 564 776 q 736 478 736 614 l 736 288 q 650 69 736 150 q 417 -12 564 -12 m 417 139 q 524 177 486 139 q 563 288 563 215 l 563 476 q 524 587 563 549 q 417 625 486 625 q 309 587 347 625 q 271 476 271 549 l 271 288 q 309 177 271 215 q 417 139 347 139 m 346 896 l 415 979 q 435 1021 435 1004 q 394 1047 435 1047 l 283 1047 l 283 1153 l 429 1153 q 527 1122 490 1153 q 564 1040 564 1092 q 536 960 564 994 l 485 896 l 346 896 z "},"ơ":{"ha":833,"x_min":97,"x_max":782,"o":"m 417 -12 q 183 69 269 -12 q 97 288 97 150 l 97 476 q 183 695 97 614 q 417 776 269 776 q 593 736 518 776 l 593 736 q 642 785 642 736 l 642 889 l 782 889 l 782 782 q 759 694 782 732 q 696 638 736 657 q 736 478 736 568 l 736 288 q 650 69 736 150 q 417 -12 564 -12 m 417 139 q 524 177 486 139 q 563 288 563 215 l 563 476 q 524 587 563 549 q 417 625 486 625 q 309 587 347 625 q 271 476 271 549 l 271 288 q 309 177 271 215 q 417 139 347 139 z "},"ớ":{"ha":833,"x_min":97,"x_max":782,"o":"m 417 -12 q 183 69 269 -12 q 97 288 97 150 l 97 476 q 183 695 97 614 q 417 776 269 776 q 593 736 518 776 l 593 736 q 642 785 642 736 l 642 889 l 782 889 l 782 782 q 759 694 782 732 q 696 638 736 657 q 736 478 736 568 l 736 288 q 650 69 736 150 q 417 -12 564 -12 m 417 139 q 524 177 486 139 q 563 288 563 215 l 563 476 q 524 587 563 549 q 417 625 486 625 q 309 587 347 625 q 271 476 271 549 l 271 288 q 309 177 271 215 q 417 139 347 139 m 297 896 l 444 1090 l 631 1090 l 472 896 l 297 896 z "},"ợ":{"ha":833,"x_min":97,"x_max":782,"o":"m 417 -12 q 183 69 269 -12 q 97 288 97 150 l 97 476 q 183 695 97 614 q 417 776 269 776 q 593 736 518 776 l 593 736 q 642 785 642 736 l 642 889 l 782 889 l 782 782 q 759 694 782 732 q 696 638 736 657 q 736 478 736 568 l 736 288 q 650 69 736 150 q 417 -12 564 -12 m 417 139 q 524 177 486 139 q 563 288 563 215 l 563 476 q 524 587 563 549 q 417 625 486 625 q 309 587 347 625 q 271 476 271 549 l 271 288 q 309 177 271 215 q 417 139 347 139 m 417 -312 q 333 -285 364 -312 q 303 -212 303 -258 q 333 -138 303 -165 q 417 -111 364 -111 q 500 -138 469 -111 q 531 -212 531 -165 q 500 -285 531 -258 q 417 -312 469 -312 z "},"ờ":{"ha":833,"x_min":97,"x_max":782,"o":"m 417 -12 q 183 69 269 -12 q 97 288 97 150 l 97 476 q 183 695 97 614 q 417 776 269 776 q 593 736 518 776 l 593 736 q 642 785 642 736 l 642 889 l 782 889 l 782 782 q 759 694 782 732 q 696 638 736 657 q 736 478 736 568 l 736 288 q 650 69 736 150 q 417 -12 564 -12 m 417 139 q 524 177 486 139 q 563 288 563 215 l 563 476 q 524 587 563 549 q 417 625 486 625 q 309 587 347 625 q 271 476 271 549 l 271 288 q 309 177 271 215 q 417 139 347 139 m 332 896 l 171 1090 l 363 1090 l 511 896 l 332 896 z "},"ở":{"ha":833,"x_min":97,"x_max":782,"o":"m 417 -12 q 183 69 269 -12 q 97 288 97 150 l 97 476 q 183 695 97 614 q 417 776 269 776 q 593 736 518 776 l 593 736 q 642 785 642 736 l 642 889 l 782 889 l 782 782 q 759 694 782 732 q 696 638 736 657 q 736 478 736 568 l 736 288 q 650 69 736 150 q 417 -12 564 -12 m 417 139 q 524 177 486 139 q 563 288 563 215 l 563 476 q 524 587 563 549 q 417 625 486 625 q 309 587 347 625 q 271 476 271 549 l 271 288 q 309 177 271 215 q 417 139 347 139 m 332 896 l 401 979 q 421 1021 421 1004 q 381 1047 421 1047 l 269 1047 l 269 1153 l 415 1153 q 513 1122 476 1153 q 550 1040 550 1092 q 522 960 550 994 l 471 896 l 332 896 z "},"ỡ":{"ha":833,"x_min":97,"x_max":782,"o":"m 417 -12 q 183 69 269 -12 q 97 288 97 150 l 97 476 q 183 695 97 614 q 417 776 269 776 q 593 736 518 776 l 593 736 q 642 785 642 736 l 642 889 l 782 889 l 782 782 q 759 694 782 732 q 696 638 736 657 q 736 478 736 568 l 736 288 q 650 69 736 150 q 417 -12 564 -12 m 417 139 q 524 177 486 139 q 563 288 563 215 l 563 476 q 524 587 563 549 q 417 625 486 625 q 309 587 347 625 q 271 476 271 549 l 271 288 q 309 177 271 215 q 417 139 347 139 m 500 890 q 430 904 457 890 q 385 935 403 918 q 351 966 367 953 q 313 979 335 979 q 271 933 271 979 l 271 897 l 164 897 l 164 943 q 203 1053 164 1011 q 306 1096 242 1096 q 376 1082 349 1096 q 421 1051 403 1068 q 455 1020 439 1033 q 493 1007 471 1007 q 535 1050 535 1007 l 535 1089 l 642 1089 l 642 1043 q 603 933 642 975 q 500 890 564 890 z "},"ő":{"ha":833,"x_min":97,"x_max":768,"o":"m 417 -12 q 183 69 269 -12 q 97 288 97 150 l 97 476 q 183 695 97 614 q 417 776 269 776 q 650 695 564 776 q 736 478 736 614 l 736 288 q 650 69 736 150 q 417 -12 564 -12 m 417 139 q 524 177 486 139 q 563 288 563 215 l 563 476 q 524 587 563 549 q 417 625 486 625 q 309 587 347 625 q 271 476 271 549 l 271 288 q 309 177 271 215 q 417 139 347 139 m 450 896 l 599 1090 l 768 1090 l 608 896 l 450 896 m 169 896 l 319 1090 l 488 1090 l 328 896 l 169 896 z "},"ō":{"ha":833,"x_min":97,"x_max":736,"o":"m 417 -12 q 183 69 269 -12 q 97 288 97 150 l 97 476 q 183 695 97 614 q 417 776 269 776 q 650 695 564 776 q 736 478 736 614 l 736 288 q 650 69 736 150 q 417 -12 564 -12 m 417 139 q 524 177 486 139 q 563 288 563 215 l 563 476 q 524 587 563 549 q 417 625 486 625 q 309 587 347 625 q 271 476 271 549 l 271 288 q 309 177 271 215 q 417 139 347 139 m 178 918 l 178 1051 l 656 1051 l 656 918 l 178 918 z "},"ǫ":{"ha":833,"x_min":100,"x_max":733,"o":"m 506 -300 q 377 -260 425 -300 q 329 -157 329 -219 q 353 -87 329 -122 q 426 -12 376 -51 q 417 -14 421 -14 q 185 67 271 -14 q 100 286 100 149 l 100 478 q 185 697 100 615 q 417 778 271 778 q 648 697 563 778 q 733 479 733 615 l 733 286 q 700 140 733 204 q 608 38 667 76 l 549 -14 q 479 -121 479 -72 q 497 -163 479 -146 q 549 -181 515 -181 l 639 -181 l 639 -300 l 506 -300 m 417 138 q 523 176 486 138 q 560 286 560 214 l 560 478 q 523 588 560 550 q 417 626 486 626 q 310 588 347 626 q 274 478 274 550 l 274 286 q 310 176 274 214 q 417 138 347 138 z "},"ø":{"ha":833,"x_min":40,"x_max":793,"o":"m 40 -42 l 149 111 q 100 286 100 183 l 100 478 q 185 697 100 615 q 417 778 271 778 q 590 739 517 778 l 647 819 l 793 819 l 681 660 q 733 479 733 585 l 733 286 q 648 67 733 149 q 417 -14 563 -14 q 236 29 313 -14 l 186 -42 l 40 -42 m 263 286 q 263 285 263 286 q 263 274 263 283 l 499 608 q 417 626 464 626 q 303 587 343 626 q 263 478 263 547 l 263 286 m 417 138 q 531 177 490 138 q 571 286 571 217 l 571 478 q 569 503 571 492 l 328 158 q 417 138 364 138 z "},"ǿ":{"ha":833,"x_min":40,"x_max":793,"o":"m 40 -42 l 149 111 q 100 286 100 183 l 100 478 q 185 697 100 615 q 417 778 271 778 q 590 739 517 778 l 647 819 l 793 819 l 681 660 q 733 479 733 585 l 733 286 q 648 67 733 149 q 417 -14 563 -14 q 236 29 313 -14 l 186 -42 l 40 -42 m 263 286 q 263 285 263 286 q 263 274 263 283 l 499 608 q 417 626 464 626 q 303 587 343 626 q 263 478 263 547 l 263 286 m 417 138 q 531 177 490 138 q 571 286 571 217 l 571 478 q 569 503 571 492 l 328 158 q 417 138 364 138 m 311 896 l 458 1090 l 644 1090 l 486 896 l 311 896 z "},"õ":{"ha":833,"x_min":97,"x_max":736,"o":"m 417 -12 q 183 69 269 -12 q 97 288 97 150 l 97 476 q 183 695 97 614 q 417 776 269 776 q 650 695 564 776 q 736 478 736 614 l 736 288 q 650 69 736 150 q 417 -12 564 -12 m 417 139 q 524 177 486 139 q 563 288 563 215 l 563 476 q 524 587 563 549 q 417 625 486 625 q 309 587 347 625 q 271 476 271 549 l 271 288 q 309 177 271 215 q 417 139 347 139 m 514 890 q 444 904 471 890 q 399 935 417 918 q 365 966 381 953 q 326 979 349 979 q 285 933 285 979 l 285 897 l 178 897 l 178 943 q 217 1053 178 1011 q 319 1096 256 1096 q 390 1082 363 1096 q 435 1051 417 1068 q 469 1020 453 1033 q 507 1007 485 1007 q 549 1050 549 1007 l 549 1089 l 656 1089 l 656 1043 q 617 933 656 975 q 514 890 578 890 z "},"œ":{"ha":833,"x_min":49,"x_max":785,"o":"m 250 -14 q 103 44 158 -14 q 49 200 49 103 l 49 564 q 103 719 49 661 q 250 778 158 778 q 338 760 303 778 q 390 718 372 743 q 413 671 408 693 l 421 671 q 442 718 424 693 q 494 760 460 743 q 583 778 529 778 q 730 719 675 778 q 785 564 785 661 l 785 347 l 488 347 l 488 200 q 508 134 488 158 q 564 110 529 110 q 617 130 597 110 q 640 186 638 150 l 783 186 q 723 40 778 94 q 583 -14 668 -14 q 494 3 529 -14 q 442 46 460 21 q 421 93 424 71 l 413 93 q 390 46 408 71 q 338 3 372 21 q 250 -14 303 -14 m 269 110 q 326 133 306 110 q 346 200 346 157 l 346 564 q 326 631 346 607 q 269 654 306 654 q 213 630 233 654 q 192 564 192 606 l 192 200 q 213 134 192 158 q 269 110 233 110 m 488 454 l 642 454 l 642 564 q 622 631 642 607 q 564 654 601 654 q 508 630 529 654 q 488 564 488 606 l 488 454 z "},"p":{"ha":833,"x_min":107,"x_max":736,"o":"m 107 -250 l 107 764 l 276 764 l 276 618 l 279 618 q 345 736 292 694 q 482 778 399 778 q 667 699 597 778 q 736 486 736 619 l 736 279 q 667 65 736 144 q 482 -14 597 -14 q 345 28 399 -14 q 279 146 292 71 l 275 146 l 281 -36 l 281 -250 l 107 -250 m 421 136 q 525 175 488 136 q 563 286 563 214 l 563 478 q 525 589 563 550 q 421 628 488 628 q 318 588 356 628 q 281 478 281 549 l 281 286 q 318 176 281 215 q 421 136 356 136 z "},"þ":{"ha":833,"x_min":104,"x_max":733,"o":"m 104 -236 l 104 1014 l 278 1014 l 278 800 l 272 618 l 276 618 q 341 735 288 693 q 479 778 394 778 q 664 699 594 778 q 733 485 733 619 l 733 278 q 663 65 733 143 q 479 -14 593 -14 q 341 28 394 -14 q 276 146 288 69 l 274 146 l 274 -236 l 104 -236 m 418 136 q 522 175 485 136 q 558 286 558 214 l 558 478 q 522 589 558 550 q 418 628 485 628 q 315 588 351 628 q 278 478 278 549 l 278 286 q 315 176 278 215 q 418 136 351 136 z "},"q":{"ha":833,"x_min":100,"x_max":726,"o":"m 553 -250 l 553 -36 l 558 146 l 553 146 q 488 28 540 71 q 351 -14 436 -14 q 168 65 236 -14 q 100 279 100 144 l 100 486 q 168 699 100 619 q 351 778 236 778 q 489 736 436 778 q 553 618 542 694 l 557 618 l 557 764 l 726 764 l 726 -250 l 553 -250 m 413 136 q 516 176 479 136 q 553 286 553 215 l 553 478 q 516 588 553 549 q 413 628 479 628 q 310 589 346 628 q 274 478 274 550 l 274 286 q 310 175 274 214 q 413 136 346 136 z "},"r":{"ha":833,"x_min":131,"x_max":771,"o":"m 131 0 l 131 764 l 294 764 l 294 618 l 296 618 q 506 778 332 778 q 700 701 629 778 q 771 490 771 625 l 771 435 l 589 435 l 589 478 q 551 592 589 551 q 446 632 513 632 q 342 592 379 632 q 304 478 304 551 l 304 0 l 131 0 z "},"ŕ":{"ha":833,"x_min":131,"x_max":771,"o":"m 131 0 l 131 764 l 294 764 l 294 618 l 296 618 q 506 778 332 778 q 700 701 629 778 q 771 490 771 625 l 771 435 l 589 435 l 589 478 q 551 592 589 551 q 446 632 513 632 q 342 592 379 632 q 304 478 304 551 l 304 0 l 131 0 m 339 896 l 486 1090 l 672 1090 l 514 896 l 339 896 z "},"ř":{"ha":833,"x_min":131,"x_max":771,"o":"m 131 0 l 131 764 l 294 764 l 294 618 l 296 618 q 506 778 332 778 q 700 701 629 778 q 771 490 771 625 l 771 435 l 589 435 l 589 478 q 551 592 589 551 q 446 632 513 632 q 342 592 379 632 q 304 478 304 551 l 304 0 l 131 0 m 364 896 l 174 1090 l 340 1090 l 446 989 l 547 1090 l 715 1090 l 525 896 l 364 896 z "},"ŗ":{"ha":833,"x_min":22,"x_max":771,"o":"m 131 0 l 131 764 l 294 764 l 294 618 l 296 618 q 506 778 332 778 q 700 701 629 778 q 771 490 771 625 l 771 435 l 589 435 l 589 478 q 551 592 589 551 q 446 632 513 632 q 342 592 379 632 q 304 478 304 551 l 304 0 l 131 0 m 22 -333 l 154 -132 l 338 -132 l 183 -333 l 22 -333 z "},"s":{"ha":833,"x_min":93,"x_max":747,"o":"m 388 -12 q 177 47 257 -12 q 93 208 97 107 l 267 208 q 302 149 269 171 q 388 128 335 128 l 449 128 q 544 153 513 128 q 576 221 576 178 q 460 314 576 297 l 365 328 q 174 397 235 346 q 113 551 113 449 q 185 717 113 658 q 397 776 257 776 l 450 776 q 653 719 576 776 q 736 567 731 663 l 563 567 q 528 617 558 597 q 450 636 499 636 l 397 636 q 310 615 338 636 q 283 551 283 593 q 307 493 283 513 q 383 467 331 474 l 482 453 q 683 380 618 433 q 747 222 747 326 q 672 49 747 110 q 449 -12 596 -12 l 388 -12 z "},"ś":{"ha":833,"x_min":93,"x_max":747,"o":"m 388 -12 q 177 47 257 -12 q 93 208 97 107 l 267 208 q 302 149 269 171 q 388 128 335 128 l 449 128 q 544 153 513 128 q 576 221 576 178 q 460 314 576 297 l 365 328 q 174 397 235 346 q 113 551 113 449 q 185 717 113 658 q 397 776 257 776 l 450 776 q 653 719 576 776 q 736 567 731 663 l 563 567 q 528 617 558 597 q 450 636 499 636 l 397 636 q 310 615 338 636 q 283 551 283 593 q 307 493 283 513 q 383 467 331 474 l 482 453 q 683 380 618 433 q 747 222 747 326 q 672 49 747 110 q 449 -12 596 -12 l 388 -12 m 311 896 l 458 1090 l 644 1090 l 486 896 l 311 896 z "},"š":{"ha":833,"x_min":93,"x_max":747,"o":"m 388 -12 q 177 47 257 -12 q 93 208 97 107 l 267 208 q 302 149 269 171 q 388 128 335 128 l 449 128 q 544 153 513 128 q 576 221 576 178 q 460 314 576 297 l 365 328 q 174 397 235 346 q 113 551 113 449 q 185 717 113 658 q 397 776 257 776 l 450 776 q 653 719 576 776 q 736 567 731 663 l 563 567 q 528 617 558 597 q 450 636 499 636 l 397 636 q 310 615 338 636 q 283 551 283 593 q 307 493 283 513 q 383 467 331 474 l 482 453 q 683 380 618 433 q 747 222 747 326 q 672 49 747 110 q 449 -12 596 -12 l 388 -12 m 336 896 l 146 1090 l 313 1090 l 418 989 l 519 1090 l 688 1090 l 497 896 l 336 896 z "},"ş":{"ha":833,"x_min":93,"x_max":747,"o":"m 286 -300 l 286 -211 l 392 -211 q 445 -195 425 -211 q 465 -161 465 -179 q 424 -114 465 -132 q 310 -96 383 -96 l 343 -11 q 163 58 231 0 q 93 208 96 117 l 267 208 q 302 149 269 171 q 388 128 335 128 l 449 128 q 544 153 513 128 q 576 221 576 178 q 460 314 576 297 l 365 328 q 174 397 235 346 q 113 551 113 449 q 185 717 113 658 q 397 776 257 776 l 450 776 q 653 719 576 776 q 736 567 731 663 l 563 567 q 528 617 558 597 q 450 636 499 636 l 397 636 q 310 615 338 636 q 283 551 283 593 q 307 493 283 513 q 383 467 331 474 l 482 453 q 683 380 618 433 q 747 222 747 326 q 672 49 747 110 q 449 -12 596 -12 l 436 -12 l 424 -51 q 506 -70 463 -56 q 578 -111 549 -85 q 608 -178 608 -137 q 558 -263 608 -226 q 425 -300 507 -300 l 286 -300 z "},"ŝ":{"ha":833,"x_min":93,"x_max":747,"o":"m 388 -12 q 177 47 257 -12 q 93 208 97 107 l 267 208 q 302 149 269 171 q 388 128 335 128 l 449 128 q 544 153 513 128 q 576 221 576 178 q 460 314 576 297 l 365 328 q 174 397 235 346 q 113 551 113 449 q 185 717 113 658 q 397 776 257 776 l 450 776 q 653 719 576 776 q 736 567 731 663 l 563 567 q 528 617 558 597 q 450 636 499 636 l 397 636 q 310 615 338 636 q 283 551 283 593 q 307 493 283 513 q 383 467 331 474 l 482 453 q 683 380 618 433 q 747 222 747 326 q 672 49 747 110 q 449 -12 596 -12 l 388 -12 m 146 896 l 336 1090 l 497 1090 l 688 896 l 521 896 l 415 997 l 314 896 l 146 896 z "},"ș":{"ha":833,"x_min":93,"x_max":747,"o":"m 388 -12 q 177 47 257 -12 q 93 208 97 107 l 267 208 q 302 149 269 171 q 388 128 335 128 l 449 128 q 544 153 513 128 q 576 221 576 178 q 460 314 576 297 l 365 328 q 174 397 235 346 q 113 551 113 449 q 185 717 113 658 q 397 776 257 776 l 450 776 q 653 719 576 776 q 736 567 731 663 l 563 567 q 528 617 558 597 q 450 636 499 636 l 397 636 q 310 615 338 636 q 283 551 283 593 q 307 493 283 513 q 383 467 331 474 l 482 453 q 683 380 618 433 q 747 222 747 326 q 672 49 747 110 q 449 -12 596 -12 l 388 -12 m 251 -333 l 383 -132 l 567 -132 l 413 -333 l 251 -333 z "},"ß":{"ha":833,"x_min":101,"x_max":761,"o":"m 101 0 l 101 726 q 140 885 101 817 q 250 990 179 953 q 415 1028 321 1028 q 652 956 563 1028 q 742 763 742 885 q 697 619 742 676 q 572 540 653 561 q 710 452 658 518 q 761 290 761 386 q 720 139 761 204 q 606 37 679 74 q 435 0 533 0 l 354 0 l 354 149 l 425 149 q 541 190 499 149 q 583 301 583 232 q 541 411 583 371 q 425 451 499 451 l 361 451 l 361 586 l 422 586 q 527 626 489 586 q 565 729 565 665 q 524 839 565 799 q 414 879 483 879 q 305 838 346 879 q 264 726 264 797 l 264 0 l 101 0 z "},"ſ":{"ha":833,"x_min":204,"x_max":729,"o":"m 204 0 l 204 756 q 278 944 204 874 q 476 1014 353 1014 l 729 1014 l 729 863 l 485 863 q 408 833 438 863 q 379 756 379 803 l 379 0 l 204 0 z "},"t":{"ha":833,"x_min":60,"x_max":735,"o":"m 500 0 q 328 61 390 0 q 267 229 267 122 l 267 607 l 60 607 l 60 764 l 267 764 l 267 979 l 442 979 l 442 764 l 735 764 l 735 607 l 442 607 l 442 229 q 513 157 442 157 l 721 157 l 721 0 l 500 0 z "},"ŧ":{"ha":833,"x_min":60,"x_max":735,"o":"m 106 317 l 106 453 l 267 453 l 267 607 l 60 607 l 60 764 l 267 764 l 267 979 l 442 979 l 442 764 l 735 764 l 735 607 l 442 607 l 442 453 l 672 453 l 672 317 l 442 317 l 442 229 q 513 157 442 157 l 721 157 l 721 0 l 500 0 q 328 61 390 0 q 267 229 267 122 l 267 317 l 106 317 z "},"ť":{"ha":833,"x_min":60,"x_max":789,"o":"m 524 861 l 640 1076 l 789 1076 l 658 861 l 524 861 m 500 0 q 328 61 390 0 q 267 229 267 122 l 267 607 l 60 607 l 60 764 l 267 764 l 267 979 l 442 979 l 442 764 l 735 764 l 735 607 l 442 607 l 442 229 q 513 157 442 157 l 721 157 l 721 0 l 500 0 z "},"ţ":{"ha":833,"x_min":60,"x_max":735,"o":"m 356 -300 l 356 -211 l 461 -211 q 515 -195 494 -211 q 535 -161 535 -179 q 494 -114 535 -132 q 379 -96 453 -96 l 421 10 q 307 86 347 29 q 267 229 267 143 l 267 607 l 60 607 l 60 764 l 267 764 l 267 979 l 442 979 l 442 764 l 735 764 l 735 607 l 442 607 l 442 229 q 513 157 442 157 l 721 157 l 721 0 l 511 0 l 493 -51 q 575 -70 532 -56 q 648 -111 618 -85 q 678 -178 678 -137 q 627 -263 678 -226 q 494 -300 576 -300 l 356 -300 z "},"ț":{"ha":833,"x_min":60,"x_max":735,"o":"m 500 0 q 328 61 390 0 q 267 229 267 122 l 267 607 l 60 607 l 60 764 l 267 764 l 267 979 l 442 979 l 442 764 l 735 764 l 735 607 l 442 607 l 442 229 q 513 157 442 157 l 721 157 l 721 0 l 500 0 m 335 -333 l 467 -132 l 650 -132 l 496 -333 l 335 -333 z "},"u":{"ha":833,"x_min":104,"x_max":729,"o":"m 417 -14 q 188 67 271 -14 q 104 289 104 149 l 104 764 l 278 764 l 278 290 q 314 177 278 217 q 417 138 350 138 q 519 177 482 138 q 556 290 556 217 l 556 764 l 729 764 l 729 289 q 644 67 729 149 q 417 -14 560 -14 z "},"ú":{"ha":833,"x_min":104,"x_max":729,"o":"m 417 -14 q 188 67 271 -14 q 104 289 104 149 l 104 764 l 278 764 l 278 290 q 314 177 278 217 q 417 138 350 138 q 519 177 482 138 q 556 290 556 217 l 556 764 l 729 764 l 729 289 q 644 67 729 149 q 417 -14 560 -14 m 311 896 l 458 1090 l 644 1090 l 486 896 l 311 896 z "},"ŭ":{"ha":833,"x_min":104,"x_max":729,"o":"m 417 -14 q 188 67 271 -14 q 104 289 104 149 l 104 764 l 278 764 l 278 290 q 314 177 278 217 q 417 138 350 138 q 519 177 482 138 q 556 290 556 217 l 556 764 l 729 764 l 729 289 q 644 67 729 149 q 417 -14 560 -14 m 417 885 q 241 941 308 885 q 174 1090 174 997 l 308 1090 q 338 1017 308 1044 q 417 989 368 989 q 495 1017 465 989 q 525 1090 525 1044 l 660 1090 q 593 941 660 997 q 417 885 526 885 z "},"û":{"ha":833,"x_min":104,"x_max":729,"o":"m 417 -14 q 188 67 271 -14 q 104 289 104 149 l 104 764 l 278 764 l 278 290 q 314 177 278 217 q 417 138 350 138 q 519 177 482 138 q 556 290 556 217 l 556 764 l 729 764 l 729 289 q 644 67 729 149 q 417 -14 560 -14 m 146 896 l 336 1090 l 497 1090 l 688 896 l 521 896 l 415 997 l 314 896 l 146 896 z "},"ü":{"ha":833,"x_min":104,"x_max":729,"o":"m 417 -14 q 188 67 271 -14 q 104 289 104 149 l 104 764 l 278 764 l 278 290 q 314 177 278 217 q 417 138 350 138 q 519 177 482 138 q 556 290 556 217 l 556 764 l 729 764 l 729 289 q 644 67 729 149 q 417 -14 560 -14 m 579 892 q 506 919 533 892 q 478 992 478 946 q 506 1065 478 1038 q 579 1092 533 1092 q 654 1065 626 1092 q 682 992 682 1038 q 654 919 682 946 q 579 892 626 892 m 254 892 q 179 919 207 892 q 151 992 151 946 q 179 1065 151 1038 q 254 1092 207 1092 q 328 1065 300 1092 q 356 992 356 1038 q 328 919 356 946 q 254 892 300 892 z "},"ụ":{"ha":833,"x_min":104,"x_max":729,"o":"m 417 -14 q 188 67 271 -14 q 104 289 104 149 l 104 764 l 278 764 l 278 290 q 314 177 278 217 q 417 138 350 138 q 519 177 482 138 q 556 290 556 217 l 556 764 l 729 764 l 729 289 q 644 67 729 149 q 417 -14 560 -14 m 417 -312 q 333 -285 364 -312 q 303 -212 303 -258 q 333 -138 303 -165 q 417 -111 364 -111 q 500 -138 469 -111 q 531 -212 531 -165 q 500 -285 531 -258 q 417 -312 469 -312 z "},"ù":{"ha":833,"x_min":104,"x_max":729,"o":"m 417 -14 q 188 67 271 -14 q 104 289 104 149 l 104 764 l 278 764 l 278 290 q 314 177 278 217 q 417 138 350 138 q 519 177 482 138 q 556 290 556 217 l 556 764 l 729 764 l 729 289 q 644 67 729 149 q 417 -14 560 -14 m 346 896 l 185 1090 l 376 1090 l 525 896 l 346 896 z "},"ủ":{"ha":833,"x_min":104,"x_max":729,"o":"m 417 -14 q 188 67 271 -14 q 104 289 104 149 l 104 764 l 278 764 l 278 290 q 314 177 278 217 q 417 138 350 138 q 519 177 482 138 q 556 290 556 217 l 556 764 l 729 764 l 729 289 q 644 67 729 149 q 417 -14 560 -14 m 346 896 l 415 979 q 435 1021 435 1004 q 394 1047 435 1047 l 283 1047 l 283 1153 l 429 1153 q 527 1122 490 1153 q 564 1040 564 1092 q 536 960 564 994 l 485 896 l 346 896 z "},"ư":{"ha":833,"x_min":104,"x_max":861,"o":"m 104 285 l 104 764 l 278 764 l 278 283 q 310 175 278 213 q 400 138 342 138 q 491 175 458 138 q 524 283 524 213 l 524 764 l 672 764 q 721 813 721 764 l 721 917 l 861 917 l 861 810 q 819 691 861 736 q 697 646 778 646 l 697 285 q 617 66 697 146 q 400 -14 538 -14 q 183 66 263 -14 q 104 285 104 146 z "},"ứ":{"ha":833,"x_min":104,"x_max":861,"o":"m 104 285 l 104 764 l 278 764 l 278 283 q 310 175 278 213 q 400 138 342 138 q 491 175 458 138 q 524 283 524 213 l 524 764 l 672 764 q 721 813 721 764 l 721 917 l 861 917 l 861 810 q 819 691 861 736 q 697 646 778 646 l 697 285 q 617 66 697 146 q 400 -14 538 -14 q 183 66 263 -14 q 104 285 104 146 m 294 896 l 442 1090 l 628 1090 l 469 896 l 294 896 z "},"ự":{"ha":833,"x_min":104,"x_max":861,"o":"m 104 285 l 104 764 l 278 764 l 278 283 q 310 175 278 213 q 400 138 342 138 q 491 175 458 138 q 524 283 524 213 l 524 764 l 672 764 q 721 813 721 764 l 721 917 l 861 917 l 861 810 q 819 691 861 736 q 697 646 778 646 l 697 285 q 617 66 697 146 q 400 -14 538 -14 q 183 66 263 -14 q 104 285 104 146 m 400 -312 q 317 -285 347 -312 q 286 -212 286 -258 q 317 -138 286 -165 q 400 -111 347 -111 q 483 -138 453 -111 q 514 -212 514 -165 q 483 -285 514 -258 q 400 -312 453 -312 z "},"ừ":{"ha":833,"x_min":104,"x_max":861,"o":"m 104 285 l 104 764 l 278 764 l 278 283 q 310 175 278 213 q 400 138 342 138 q 491 175 458 138 q 524 283 524 213 l 524 764 l 672 764 q 721 813 721 764 l 721 917 l 861 917 l 861 810 q 819 691 861 736 q 697 646 778 646 l 697 285 q 617 66 697 146 q 400 -14 538 -14 q 183 66 263 -14 q 104 285 104 146 m 329 896 l 168 1090 l 360 1090 l 508 896 l 329 896 z "},"ử":{"ha":833,"x_min":104,"x_max":861,"o":"m 104 285 l 104 764 l 278 764 l 278 283 q 310 175 278 213 q 400 138 342 138 q 491 175 458 138 q 524 283 524 213 l 524 764 l 672 764 q 721 813 721 764 l 721 917 l 861 917 l 861 810 q 819 691 861 736 q 697 646 778 646 l 697 285 q 617 66 697 146 q 400 -14 538 -14 q 183 66 263 -14 q 104 285 104 146 m 329 896 l 399 979 q 418 1021 418 1004 q 378 1047 418 1047 l 267 1047 l 267 1153 l 413 1153 q 510 1122 474 1153 q 547 1040 547 1092 q 519 960 547 994 l 468 896 l 329 896 z "},"ữ":{"ha":833,"x_min":104,"x_max":861,"o":"m 104 285 l 104 764 l 278 764 l 278 283 q 310 175 278 213 q 400 138 342 138 q 491 175 458 138 q 524 283 524 213 l 524 764 l 672 764 q 721 813 721 764 l 721 917 l 861 917 l 861 810 q 819 691 861 736 q 697 646 778 646 l 697 285 q 617 66 697 146 q 400 -14 538 -14 q 183 66 263 -14 q 104 285 104 146 m 497 890 q 427 904 454 890 q 382 935 400 918 q 348 966 364 953 q 310 979 332 979 q 268 933 268 979 l 268 897 l 161 897 l 161 943 q 200 1053 161 1011 q 303 1096 239 1096 q 373 1082 346 1096 q 418 1051 400 1068 q 452 1020 436 1033 q 490 1007 468 1007 q 532 1050 532 1007 l 532 1089 l 639 1089 l 639 1043 q 600 933 639 975 q 497 890 561 890 z "},"ű":{"ha":833,"x_min":104,"x_max":768,"o":"m 417 -14 q 188 67 271 -14 q 104 289 104 149 l 104 764 l 278 764 l 278 290 q 314 177 278 217 q 417 138 350 138 q 519 177 482 138 q 556 290 556 217 l 556 764 l 729 764 l 729 289 q 644 67 729 149 q 417 -14 560 -14 m 450 896 l 599 1090 l 768 1090 l 608 896 l 450 896 m 169 896 l 319 1090 l 488 1090 l 328 896 l 169 896 z "},"ū":{"ha":833,"x_min":104,"x_max":729,"o":"m 417 -14 q 188 67 271 -14 q 104 289 104 149 l 104 764 l 278 764 l 278 290 q 314 177 278 217 q 417 138 350 138 q 519 177 482 138 q 556 290 556 217 l 556 764 l 729 764 l 729 289 q 644 67 729 149 q 417 -14 560 -14 m 178 918 l 178 1051 l 656 1051 l 656 918 l 178 918 z "},"ų":{"ha":833,"x_min":104,"x_max":729,"o":"m 506 -300 q 377 -260 425 -300 q 329 -157 329 -219 q 353 -87 329 -122 q 426 -12 376 -51 q 417 -14 421 -14 q 188 67 271 -14 q 104 286 104 149 l 104 764 l 278 764 l 278 286 q 417 138 278 138 q 556 286 556 138 l 556 764 l 729 764 l 729 286 q 698 140 729 204 q 608 38 667 76 l 549 -14 q 479 -121 479 -72 q 497 -163 479 -146 q 549 -181 515 -181 l 639 -181 l 639 -300 l 506 -300 z "},"ů":{"ha":833,"x_min":104,"x_max":729,"o":"m 417 -14 q 188 67 271 -14 q 104 289 104 149 l 104 764 l 278 764 l 278 290 q 314 177 278 217 q 417 138 350 138 q 519 177 482 138 q 556 290 556 217 l 556 764 l 729 764 l 729 289 q 644 67 729 149 q 417 -14 560 -14 m 417 838 q 284 884 335 838 q 233 1006 233 931 q 284 1128 233 1082 q 417 1175 335 1175 q 549 1128 499 1175 q 600 1006 600 1082 q 549 884 600 931 q 417 838 499 838 m 417 925 q 477 947 454 925 q 500 1006 500 969 q 477 1065 500 1043 q 417 1088 454 1088 q 356 1065 379 1088 q 333 1006 333 1043 q 356 947 333 969 q 417 925 379 925 z "},"ũ":{"ha":833,"x_min":104,"x_max":729,"o":"m 417 -14 q 188 67 271 -14 q 104 289 104 149 l 104 764 l 278 764 l 278 290 q 314 177 278 217 q 417 138 350 138 q 519 177 482 138 q 556 290 556 217 l 556 764 l 729 764 l 729 289 q 644 67 729 149 q 417 -14 560 -14 m 514 890 q 444 904 471 890 q 399 935 417 918 q 365 966 381 953 q 326 979 349 979 q 285 933 285 979 l 285 897 l 178 897 l 178 943 q 217 1053 178 1011 q 319 1096 256 1096 q 390 1082 363 1096 q 435 1051 417 1068 q 469 1020 453 1033 q 507 1007 485 1007 q 549 1050 549 1007 l 549 1089 l 656 1089 l 656 1043 q 617 933 656 975 q 514 890 578 890 z "},"v":{"ha":833,"x_min":54,"x_max":779,"o":"m 306 0 l 54 764 l 235 764 l 381 300 q 403 214 393 258 q 419 143 414 169 q 437 214 426 169 q 460 299 447 258 l 603 764 l 779 764 l 529 0 l 306 0 z "},"w":{"ha":833,"x_min":28,"x_max":806,"o":"m 144 0 l 28 764 l 172 764 l 236 296 q 247 207 242 256 q 254 126 251 158 q 265 207 258 158 q 278 296 272 256 l 350 764 l 485 764 l 556 296 q 568 206 561 256 q 579 125 575 157 q 588 208 582 158 q 599 296 594 257 l 667 764 l 806 764 l 686 0 l 507 0 l 440 471 q 428 558 435 510 q 417 636 421 606 q 406 558 413 606 q 393 471 399 510 l 324 0 l 144 0 z "},"ẃ":{"ha":833,"x_min":28,"x_max":806,"o":"m 144 0 l 28 764 l 172 764 l 236 296 q 247 207 242 256 q 254 126 251 158 q 265 207 258 158 q 278 296 272 256 l 350 764 l 485 764 l 556 296 q 568 206 561 256 q 579 125 575 157 q 588 208 582 158 q 599 296 594 257 l 667 764 l 806 764 l 686 0 l 507 0 l 440 471 q 428 558 435 510 q 417 636 421 606 q 406 558 413 606 q 393 471 399 510 l 324 0 l 144 0 m 311 896 l 458 1090 l 644 1090 l 486 896 l 311 896 z "},"ŵ":{"ha":833,"x_min":28,"x_max":806,"o":"m 144 0 l 28 764 l 172 764 l 236 296 q 247 207 242 256 q 254 126 251 158 q 265 207 258 158 q 278 296 272 256 l 350 764 l 485 764 l 556 296 q 568 206 561 256 q 579 125 575 157 q 588 208 582 158 q 599 296 594 257 l 667 764 l 806 764 l 686 0 l 507 0 l 440 471 q 428 558 435 510 q 417 636 421 606 q 406 558 413 606 q 393 471 399 510 l 324 0 l 144 0 m 146 896 l 336 1090 l 497 1090 l 688 896 l 521 896 l 415 997 l 314 896 l 146 896 z "},"ẅ":{"ha":833,"x_min":28,"x_max":806,"o":"m 144 0 l 28 764 l 172 764 l 236 296 q 247 207 242 256 q 254 126 251 158 q 265 207 258 158 q 278 296 272 256 l 350 764 l 485 764 l 556 296 q 568 206 561 256 q 579 125 575 157 q 588 208 582 158 q 599 296 594 257 l 667 764 l 806 764 l 686 0 l 507 0 l 440 471 q 428 558 435 510 q 417 636 421 606 q 406 558 413 606 q 393 471 399 510 l 324 0 l 144 0 m 579 892 q 506 919 533 892 q 478 992 478 946 q 506 1065 478 1038 q 579 1092 533 1092 q 654 1065 626 1092 q 682 992 682 1038 q 654 919 682 946 q 579 892 626 892 m 254 892 q 179 919 207 892 q 151 992 151 946 q 179 1065 151 1038 q 254 1092 207 1092 q 328 1065 300 1092 q 356 992 356 1038 q 328 919 356 946 q 254 892 300 892 z "},"ẁ":{"ha":833,"x_min":28,"x_max":806,"o":"m 144 0 l 28 764 l 172 764 l 236 296 q 247 207 242 256 q 254 126 251 158 q 265 207 258 158 q 278 296 272 256 l 350 764 l 485 764 l 556 296 q 568 206 561 256 q 579 125 575 157 q 588 208 582 158 q 599 296 594 257 l 667 764 l 806 764 l 686 0 l 507 0 l 440 471 q 428 558 435 510 q 417 636 421 606 q 406 558 413 606 q 393 471 399 510 l 324 0 l 144 0 m 346 896 l 185 1090 l 376 1090 l 525 896 l 346 896 z "},"x":{"ha":833,"x_min":50,"x_max":783,"o":"m 50 0 l 317 394 l 68 764 l 264 764 l 382 576 q 403 539 393 560 q 417 506 413 518 q 432 539 422 518 q 451 576 442 560 l 571 764 l 767 764 l 518 394 l 783 0 l 586 0 l 454 210 q 433 248 443 226 q 417 282 422 269 q 401 248 411 269 q 381 210 392 226 l 246 0 l 50 0 z "},"y":{"ha":833,"x_min":53,"x_max":781,"o":"m 231 -250 l 338 42 l 53 764 l 243 764 l 385 374 q 407 297 396 342 q 424 222 418 251 q 442 297 431 251 q 464 374 453 342 l 597 764 l 781 764 l 413 -250 l 231 -250 z "},"ý":{"ha":833,"x_min":53,"x_max":781,"o":"m 231 -250 l 338 42 l 53 764 l 243 764 l 385 374 q 407 297 396 342 q 424 222 418 251 q 442 297 431 251 q 464 374 453 342 l 597 764 l 781 764 l 413 -250 l 231 -250 m 311 896 l 458 1090 l 644 1090 l 486 896 l 311 896 z "},"ŷ":{"ha":833,"x_min":53,"x_max":781,"o":"m 231 -250 l 338 42 l 53 764 l 243 764 l 385 374 q 407 297 396 342 q 424 222 418 251 q 442 297 431 251 q 464 374 453 342 l 597 764 l 781 764 l 413 -250 l 231 -250 m 146 896 l 336 1090 l 497 1090 l 688 896 l 521 896 l 415 997 l 314 896 l 146 896 z "},"ÿ":{"ha":833,"x_min":53,"x_max":781,"o":"m 231 -250 l 338 42 l 53 764 l 243 764 l 385 374 q 407 297 396 342 q 424 222 418 251 q 442 297 431 251 q 464 374 453 342 l 597 764 l 781 764 l 413 -250 l 231 -250 m 579 892 q 506 919 533 892 q 478 992 478 946 q 506 1065 478 1038 q 579 1092 533 1092 q 654 1065 626 1092 q 682 992 682 1038 q 654 919 682 946 q 579 892 626 892 m 254 892 q 179 919 207 892 q 151 992 151 946 q 179 1065 151 1038 q 254 1092 207 1092 q 328 1065 300 1092 q 356 992 356 1038 q 328 919 356 946 q 254 892 300 892 z "},"ỵ":{"ha":833,"x_min":53,"x_max":785,"o":"m 231 -250 l 338 42 l 53 764 l 243 764 l 385 374 q 407 297 396 342 q 424 222 418 251 q 442 297 431 251 q 464 374 453 342 l 597 764 l 781 764 l 413 -250 l 231 -250 m 671 -312 q 588 -285 618 -312 q 557 -212 557 -258 q 588 -138 557 -165 q 671 -111 618 -111 q 754 -138 724 -111 q 785 -212 785 -165 q 754 -285 785 -258 q 671 -312 724 -312 z "},"ỳ":{"ha":833,"x_min":53,"x_max":781,"o":"m 231 -250 l 338 42 l 53 764 l 243 764 l 385 374 q 407 297 396 342 q 424 222 418 251 q 442 297 431 251 q 464 374 453 342 l 597 764 l 781 764 l 413 -250 l 231 -250 m 346 896 l 185 1090 l 376 1090 l 525 896 l 346 896 z "},"ỷ":{"ha":833,"x_min":53,"x_max":781,"o":"m 231 -250 l 338 42 l 53 764 l 243 764 l 385 374 q 407 297 396 342 q 424 222 418 251 q 442 297 431 251 q 464 374 453 342 l 597 764 l 781 764 l 413 -250 l 231 -250 m 346 896 l 415 979 q 435 1021 435 1004 q 394 1047 435 1047 l 283 1047 l 283 1153 l 429 1153 q 527 1122 490 1153 q 564 1040 564 1092 q 536 960 564 994 l 485 896 l 346 896 z "},"ȳ":{"ha":833,"x_min":53,"x_max":781,"o":"m 231 -250 l 338 42 l 53 764 l 243 764 l 385 374 q 407 297 396 342 q 424 222 418 251 q 442 297 431 251 q 464 374 453 342 l 597 764 l 781 764 l 413 -250 l 231 -250 m 178 918 l 178 1051 l 656 1051 l 656 918 l 178 918 z "},"ỹ":{"ha":833,"x_min":53,"x_max":781,"o":"m 231 -250 l 338 42 l 53 764 l 243 764 l 385 374 q 407 297 396 342 q 424 222 418 251 q 442 297 431 251 q 464 374 453 342 l 597 764 l 781 764 l 413 -250 l 231 -250 m 514 890 q 444 904 471 890 q 399 935 417 918 q 365 966 381 953 q 326 979 349 979 q 285 933 285 979 l 285 897 l 178 897 l 178 943 q 217 1053 178 1011 q 319 1096 256 1096 q 390 1082 363 1096 q 435 1051 417 1068 q 469 1020 453 1033 q 507 1007 485 1007 q 549 1050 549 1007 l 549 1089 l 656 1089 l 656 1043 q 617 933 656 975 q 514 890 578 890 z "},"z":{"ha":833,"x_min":108,"x_max":725,"o":"m 108 0 l 108 157 l 507 611 l 121 611 l 121 764 l 710 764 l 710 607 l 307 153 l 725 153 l 725 0 l 108 0 z "},"ź":{"ha":833,"x_min":108,"x_max":725,"o":"m 108 0 l 108 157 l 507 611 l 121 611 l 121 764 l 710 764 l 710 607 l 307 153 l 725 153 l 725 0 l 108 0 m 311 896 l 458 1090 l 644 1090 l 486 896 l 311 896 z "},"ž":{"ha":833,"x_min":108,"x_max":725,"o":"m 108 0 l 108 157 l 507 611 l 121 611 l 121 764 l 710 764 l 710 607 l 307 153 l 725 153 l 725 0 l 108 0 m 336 896 l 146 1090 l 313 1090 l 418 989 l 519 1090 l 688 1090 l 497 896 l 336 896 z "},"ż":{"ha":833,"x_min":108,"x_max":725,"o":"m 108 0 l 108 157 l 507 611 l 121 611 l 121 764 l 710 764 l 710 607 l 307 153 l 725 153 l 725 0 l 108 0 m 417 892 q 333 919 364 892 q 303 992 303 946 q 333 1065 303 1038 q 417 1092 364 1092 q 500 1065 469 1092 q 531 992 531 1038 q 500 919 531 946 q 417 892 469 892 z "},"ª":{"ha":833,"x_min":235,"x_max":592,"o":"m 372 625 q 273 658 311 625 q 235 746 235 692 q 276 833 235 800 q 389 865 318 865 l 497 865 l 497 903 q 477 942 497 928 q 424 956 457 956 q 373 944 393 956 q 350 913 353 932 l 256 913 q 310 997 265 965 q 424 1028 356 1028 q 546 994 500 1028 q 592 903 592 960 l 592 632 l 501 632 l 501 708 l 497 708 q 449 647 482 669 q 372 625 417 625 m 399 692 q 470 713 443 692 q 497 771 497 735 l 497 801 l 389 801 q 345 788 361 801 q 329 747 329 774 q 349 707 329 722 q 399 692 368 692 z "},"º":{"ha":833,"x_min":240,"x_max":593,"o":"m 417 622 q 289 667 338 622 q 240 781 240 711 l 240 867 q 289 981 240 938 q 417 1025 338 1025 q 544 981 496 1025 q 593 867 593 938 l 593 781 q 544 667 593 711 q 417 622 496 622 m 417 701 q 476 724 454 701 q 499 781 499 746 l 499 867 q 476 923 499 901 q 417 944 454 944 q 357 923 379 944 q 335 867 335 901 l 335 781 q 357 724 335 746 q 417 701 379 701 z "},"А":{"ha":833,"x_min":49,"x_max":785,"o":"m 49 0 l 304 1014 l 528 1014 l 785 0 l 607 0 l 551 246 l 282 246 l 226 0 l 49 0 m 314 388 l 519 388 l 458 660 q 432 783 443 728 q 417 863 421 838 q 401 783 413 838 q 375 661 390 728 l 314 388 z "},"Б":{"ha":833,"x_min":108,"x_max":761,"o":"m 108 0 l 108 1014 l 717 1014 l 717 853 l 278 853 l 278 607 l 426 607 q 603 569 528 607 q 719 464 678 532 q 761 304 761 396 q 719 144 761 213 q 603 38 678 75 q 428 0 529 0 l 108 0 m 278 149 l 428 149 q 542 190 500 149 q 585 303 585 232 q 542 417 585 375 q 428 458 500 458 l 278 458 l 278 149 z "},"В":{"ha":833,"x_min":107,"x_max":761,"o":"m 107 0 l 107 1014 l 418 1014 q 651 944 565 1014 q 738 753 738 874 q 685 604 738 663 q 551 532 633 546 q 702 458 643 521 q 761 289 761 394 q 673 78 761 157 q 433 0 585 0 l 107 0 m 276 596 l 415 596 q 524 633 483 596 q 564 733 564 669 q 524 833 564 796 q 415 869 485 869 l 276 869 l 276 596 m 276 144 l 422 144 q 542 185 499 144 q 586 297 586 226 q 542 412 586 368 q 422 456 499 456 l 276 456 l 276 144 z "},"Г":{"ha":833,"x_min":140,"x_max":747,"o":"m 140 0 l 140 1014 l 747 1014 l 747 853 l 314 853 l 314 0 l 140 0 z "},"Ѓ":{"ha":833,"x_min":140,"x_max":747,"o":"m 140 0 l 140 1014 l 747 1014 l 747 853 l 314 853 l 314 0 l 140 0 m 311 1125 l 458 1319 l 644 1319 l 486 1125 l 311 1125 z "},"Ґ":{"ha":833,"x_min":140,"x_max":747,"o":"m 140 0 l 140 1014 l 581 1014 l 581 1146 l 747 1146 l 747 853 l 314 853 l 314 0 l 140 0 z "},"Д":{"ha":833,"x_min":32,"x_max":801,"o":"m 32 -194 l 32 149 l 83 149 q 132 268 107 188 q 158 449 157 349 l 167 1014 l 713 1014 l 713 149 l 801 149 l 801 -194 l 642 -194 l 642 0 l 192 0 l 192 -194 l 32 -194 m 257 149 l 546 149 l 546 864 l 329 864 l 322 449 q 300 267 322 347 q 257 149 278 186 z "},"Е":{"ha":833,"x_min":122,"x_max":731,"o":"m 122 0 l 122 1014 l 731 1014 l 731 863 l 293 863 l 293 599 l 682 599 l 682 449 l 293 449 l 293 151 l 731 151 l 731 0 l 122 0 z "},"Ё":{"ha":833,"x_min":122,"x_max":731,"o":"m 122 0 l 122 1014 l 731 1014 l 731 863 l 293 863 l 293 599 l 682 599 l 682 449 l 293 449 l 293 151 l 731 151 l 731 0 l 122 0 m 607 1122 q 533 1149 561 1122 q 506 1222 506 1176 q 533 1297 506 1269 q 607 1324 561 1324 q 682 1297 654 1324 q 710 1222 710 1269 q 682 1149 710 1176 q 607 1122 654 1122 m 282 1122 q 207 1149 235 1122 q 179 1222 179 1176 q 207 1297 179 1269 q 282 1324 235 1324 q 356 1297 328 1324 q 383 1222 383 1269 q 356 1149 383 1176 q 282 1122 328 1122 z "},"Ж":{"ha":833,"x_min":15,"x_max":818,"o":"m 15 0 l 168 517 l 25 1014 l 178 1014 l 301 557 l 351 557 l 351 1014 l 478 1014 l 478 557 l 531 557 l 654 1014 l 804 1014 l 664 518 l 818 0 l 667 0 l 533 476 l 478 476 l 482 0 l 356 0 l 351 476 l 299 476 l 167 0 l 15 0 z "},"З":{"ha":833,"x_min":61,"x_max":761,"o":"m 410 -14 q 230 21 307 -14 q 108 119 153 56 q 61 269 64 183 l 235 269 q 286 173 239 208 q 410 138 333 138 q 536 180 489 138 q 583 289 583 222 q 538 401 583 360 q 410 442 492 442 l 272 442 l 272 599 l 410 599 q 527 639 485 599 q 569 742 569 679 q 527 840 569 804 q 410 876 485 876 q 299 841 343 876 q 249 743 256 806 l 74 743 q 125 893 81 829 q 244 992 169 957 q 417 1028 319 1028 q 651 959 563 1028 q 739 774 739 890 q 692 624 739 685 q 561 542 644 563 q 707 455 653 521 q 761 292 761 389 q 717 131 761 200 q 594 24 674 63 q 410 -14 515 -14 z "},"И":{"ha":833,"x_min":100,"x_max":733,"o":"m 100 0 l 100 1014 l 258 1014 l 258 518 q 256 408 258 468 q 249 292 253 349 q 242 194 244 235 l 521 1014 l 733 1014 l 733 0 l 575 0 l 575 481 q 578 592 575 529 q 586 715 582 654 q 594 819 590 775 l 313 0 l 100 0 z "},"Й":{"ha":833,"x_min":100,"x_max":733,"o":"m 100 0 l 100 1014 l 258 1014 l 258 518 q 256 408 258 468 q 249 292 253 349 q 242 194 244 235 l 521 1014 l 733 1014 l 733 0 l 575 0 l 575 481 q 578 592 575 529 q 586 715 582 654 q 594 819 590 775 l 313 0 l 100 0 m 417 1114 q 242 1170 308 1114 q 175 1319 175 1226 l 310 1319 q 339 1246 310 1274 q 417 1218 368 1218 q 495 1246 465 1218 q 525 1319 525 1274 l 660 1319 q 593 1170 660 1226 q 417 1114 526 1114 z "},"К":{"ha":833,"x_min":106,"x_max":790,"o":"m 106 0 l 106 1014 l 279 1014 l 279 604 l 400 604 l 590 1014 l 779 1014 l 553 528 l 790 0 l 597 0 l 397 446 l 279 446 l 279 0 l 106 0 z "},"Ќ":{"ha":833,"x_min":106,"x_max":790,"o":"m 106 0 l 106 1014 l 279 1014 l 279 604 l 400 604 l 590 1014 l 779 1014 l 553 528 l 790 0 l 597 0 l 397 446 l 279 446 l 279 0 l 106 0 m 311 1125 l 458 1319 l 644 1319 l 486 1125 l 311 1125 z "},"Л":{"ha":833,"x_min":24,"x_max":725,"o":"m 24 -7 l 24 151 l 58 151 q 157 333 154 151 l 168 1014 l 725 1014 l 725 0 l 551 0 l 551 853 l 339 853 l 329 333 q 259 81 326 168 q 69 -7 192 -7 l 24 -7 z "},"М":{"ha":833,"x_min":78,"x_max":756,"o":"m 78 0 l 78 1014 l 283 1014 l 383 692 q 406 603 397 643 q 418 544 415 564 q 430 603 421 564 q 454 692 439 643 l 550 1014 l 756 1014 l 756 0 l 593 0 l 593 315 q 597 467 593 385 q 606 631 600 549 q 617 786 611 713 q 629 915 624 860 l 492 436 l 340 436 l 200 915 q 214 791 207 863 q 226 638 221 719 q 236 473 232 556 q 240 315 240 390 l 240 0 l 78 0 z "},"Н":{"ha":833,"x_min":107,"x_max":726,"o":"m 107 0 l 107 1014 l 281 1014 l 281 607 l 553 607 l 553 1014 l 726 1014 l 726 0 l 553 0 l 553 446 l 281 446 l 281 0 l 107 0 z "},"О":{"ha":833,"x_min":100,"x_max":733,"o":"m 417 -14 q 185 67 271 -14 q 100 286 100 149 l 100 728 q 185 947 100 865 q 417 1028 271 1028 q 648 947 563 1028 q 733 729 733 865 l 733 286 q 648 67 733 149 q 417 -14 563 -14 m 417 139 q 524 177 488 139 q 560 286 560 215 l 560 728 q 524 837 560 799 q 417 875 488 875 q 310 837 346 875 q 274 728 274 799 l 274 286 q 310 177 274 215 q 417 139 346 139 z "},"П":{"ha":833,"x_min":108,"x_max":725,"o":"m 108 0 l 108 1014 l 725 1014 l 725 0 l 551 0 l 551 853 l 282 853 l 282 0 l 108 0 z "},"Р":{"ha":833,"x_min":107,"x_max":781,"o":"m 107 0 l 107 1014 l 444 1014 q 622 975 546 1014 q 739 866 697 936 q 781 701 781 796 q 739 537 781 607 q 622 428 697 467 q 444 389 546 389 l 281 389 l 281 0 l 107 0 m 281 546 l 444 546 q 561 588 518 546 q 604 701 604 631 q 561 815 604 772 q 444 857 518 857 l 281 857 l 281 546 z "},"С":{"ha":833,"x_min":100,"x_max":744,"o":"m 422 -14 q 251 23 324 -14 q 140 127 179 60 q 100 286 100 194 l 100 728 q 140 887 100 819 q 251 991 179 954 q 422 1028 324 1028 q 592 991 519 1028 q 704 887 664 954 q 744 728 744 819 l 569 728 q 531 837 569 799 q 422 875 493 875 q 313 838 351 875 q 274 729 274 800 l 274 286 q 313 177 274 215 q 422 139 351 139 q 531 177 493 139 q 569 286 569 215 l 744 286 q 704 127 744 194 q 592 23 664 60 q 422 -14 519 -14 z "},"Т":{"ha":833,"x_min":64,"x_max":769,"o":"m 329 0 l 329 853 l 64 853 l 64 1014 l 769 1014 l 769 853 l 504 853 l 504 0 l 329 0 z "},"У":{"ha":833,"x_min":49,"x_max":785,"o":"m 240 0 l 344 260 l 49 1014 l 238 1014 l 390 567 q 415 485 404 528 q 428 417 425 443 q 440 485 431 443 q 460 567 449 528 l 600 1014 l 785 1014 l 424 0 l 240 0 z "},"Ў":{"ha":833,"x_min":49,"x_max":785,"o":"m 240 0 l 344 260 l 49 1014 l 238 1014 l 390 567 q 415 485 404 528 q 428 417 425 443 q 440 485 431 443 q 460 567 449 528 l 600 1014 l 785 1014 l 424 0 l 240 0 m 417 1114 q 242 1170 308 1114 q 175 1319 175 1226 l 310 1319 q 339 1246 310 1274 q 417 1218 368 1218 q 495 1246 465 1218 q 525 1319 525 1274 l 660 1319 q 593 1170 660 1226 q 417 1114 526 1114 z "},"Ф":{"ha":833,"x_min":56,"x_max":778,"o":"m 343 -35 l 343 63 q 192 99 257 63 q 92 203 128 136 q 56 360 56 271 l 56 671 q 92 830 56 763 q 192 935 128 897 q 343 972 257 972 l 343 1069 l 490 1069 l 490 972 q 641 935 576 972 q 742 830 706 897 q 778 671 778 763 l 778 360 q 742 203 778 271 q 641 99 706 136 q 490 63 576 63 l 490 -35 l 343 -35 m 349 200 l 349 835 q 245 790 283 835 q 207 671 207 746 l 207 360 q 245 244 207 288 q 349 200 283 200 m 485 200 q 588 244 550 200 q 626 360 626 288 l 626 671 q 588 790 626 746 q 485 835 550 835 l 485 200 z "},"Х":{"ha":833,"x_min":39,"x_max":794,"o":"m 39 0 l 319 519 l 56 1014 l 250 1014 l 378 760 q 403 706 392 732 q 419 667 414 681 q 435 706 424 681 q 460 760 446 732 l 589 1014 l 778 1014 l 514 524 l 794 0 l 600 0 l 457 281 q 431 334 443 307 q 414 376 419 361 q 397 335 408 361 q 372 281 386 308 l 228 0 l 39 0 z "},"Ч":{"ha":833,"x_min":83,"x_max":722,"o":"m 549 0 l 549 385 q 487 376 531 381 q 381 371 443 371 q 164 451 244 371 q 83 668 83 532 l 83 1014 l 257 1014 l 257 675 q 301 568 257 608 q 418 528 344 528 q 501 533 468 528 q 549 542 535 538 l 549 1014 l 722 1014 l 722 0 l 549 0 z "},"Ц":{"ha":833,"x_min":108,"x_max":796,"o":"m 636 -194 l 636 0 l 108 0 l 108 1014 l 282 1014 l 282 160 l 518 160 l 518 1014 l 692 1014 l 692 160 l 796 160 l 796 -194 l 636 -194 z "},"Ш":{"ha":833,"x_min":69,"x_max":764,"o":"m 71 0 l 69 1014 l 218 1014 l 218 121 l 354 121 l 354 1014 l 481 1014 l 481 121 l 617 121 l 617 1014 l 764 1014 l 764 0 l 71 0 z "},"Щ":{"ha":833,"x_min":68,"x_max":808,"o":"m 657 -194 l 657 0 l 68 0 l 68 1014 l 207 1014 l 207 125 l 338 125 l 338 1014 l 458 1014 l 458 125 l 590 125 l 590 1014 l 728 1014 l 728 125 l 808 125 l 808 -194 l 657 -194 z "},"Џ":{"ha":833,"x_min":108,"x_max":725,"o":"m 329 -174 l 329 0 l 108 0 l 108 1014 l 282 1014 l 282 161 l 551 161 l 551 1014 l 725 1014 l 725 0 l 504 0 l 504 -174 l 329 -174 z "},"Ь":{"ha":833,"x_min":108,"x_max":781,"o":"m 108 0 l 108 1014 l 282 1014 l 282 610 l 442 610 q 620 572 544 610 q 738 465 696 533 q 781 306 781 397 q 738 145 781 214 q 620 38 696 76 q 442 0 544 0 l 108 0 m 282 153 l 439 153 q 559 194 514 153 q 604 304 604 236 q 559 415 604 374 q 439 457 514 457 l 282 457 l 282 153 z "},"Ъ":{"ha":833,"x_min":-7,"x_max":781,"o":"m 167 0 l 167 869 l -7 869 l -7 1014 l 340 1014 l 340 610 l 442 610 q 620 572 544 610 q 738 465 696 533 q 781 306 781 397 q 738 145 781 214 q 620 38 696 76 q 442 0 544 0 l 167 0 m 340 153 l 439 153 q 559 194 514 153 q 604 304 604 236 q 559 415 604 374 q 439 457 514 457 l 340 457 l 340 153 z "},"Ы":{"ha":833,"x_min":69,"x_max":764,"o":"m 69 0 l 69 1014 l 219 1014 l 219 610 l 264 610 q 459 538 388 610 q 531 344 531 467 l 531 264 q 460 70 531 140 q 264 0 389 0 l 69 0 m 614 0 l 614 1014 l 764 1014 l 764 0 l 614 0 m 219 139 l 264 139 q 353 172 321 139 q 385 265 385 204 l 385 343 q 353 438 385 404 q 264 471 321 471 l 219 471 l 219 139 z "},"Љ":{"ha":833,"x_min":-11,"x_max":814,"o":"m -11 -7 l -11 132 l 15 132 q 74 172 53 132 q 97 278 96 211 l 106 1014 l 528 1014 l 528 610 l 567 610 q 747 545 681 610 q 814 369 814 481 l 814 240 q 747 65 814 129 q 567 0 681 0 l 385 0 l 385 882 l 247 882 l 240 278 q 178 71 238 149 q 22 -7 119 -7 l -11 -7 m 528 132 l 567 132 q 642 161 615 132 q 669 240 669 190 l 669 367 q 642 447 669 418 q 567 476 615 476 l 528 476 l 528 132 z "},"Њ":{"ha":833,"x_min":63,"x_max":814,"o":"m 63 0 l 63 1014 l 207 1014 l 207 618 l 385 618 l 385 1014 l 528 1014 l 528 618 l 567 618 q 748 553 682 618 q 814 376 814 489 l 814 240 q 748 65 814 129 q 567 0 682 0 l 385 0 l 385 485 l 207 485 l 207 0 l 63 0 m 528 132 l 567 132 q 643 161 617 132 q 669 240 669 190 l 669 375 q 642 456 669 428 q 567 485 615 485 l 528 485 l 528 132 z "},"Ѕ":{"ha":833,"x_min":79,"x_max":754,"o":"m 419 -14 q 172 63 264 -14 q 79 272 81 140 l 253 272 q 298 174 253 210 q 421 139 343 139 q 538 174 496 139 q 581 269 581 208 q 550 358 581 321 q 465 411 519 396 l 349 443 q 165 553 229 474 q 100 744 100 632 q 139 894 100 831 q 249 993 178 958 q 418 1028 321 1028 q 651 952 565 1028 q 739 749 738 876 l 565 749 q 526 842 565 808 q 417 876 488 876 q 310 844 347 876 q 274 754 274 811 q 302 665 274 701 q 385 613 331 628 l 506 579 q 690 470 626 549 q 754 276 754 392 q 713 124 754 190 q 595 22 671 58 q 419 -14 519 -14 z "},"Є":{"ha":833,"x_min":100,"x_max":743,"o":"m 422 -14 q 251 23 324 -14 q 140 127 179 60 q 100 286 100 194 l 100 728 q 188 947 100 865 q 422 1028 275 1028 q 592 991 519 1028 q 703 887 664 954 q 743 728 743 819 l 569 728 q 531 838 569 799 q 422 876 493 876 q 313 838 351 876 q 275 729 275 800 l 275 589 l 571 589 l 571 432 l 275 432 l 275 286 q 313 176 275 215 q 422 138 351 138 q 531 176 493 138 q 569 286 569 215 l 743 286 q 703 127 743 194 q 592 23 664 60 q 422 -14 519 -14 z "},"Э":{"ha":833,"x_min":90,"x_max":733,"o":"m 411 -14 q 242 23 314 -14 q 130 127 169 60 q 90 286 90 194 l 264 286 q 302 176 264 215 q 411 138 340 138 q 520 176 482 138 q 558 286 558 215 l 558 432 l 263 432 l 263 589 l 558 589 l 558 729 q 520 838 558 800 q 411 876 482 876 q 302 838 340 876 q 264 728 264 799 l 90 728 q 130 887 90 819 q 242 991 169 954 q 411 1028 314 1028 q 646 947 558 1028 q 733 728 733 865 l 733 286 q 694 127 733 194 q 582 23 654 60 q 411 -14 510 -14 z "},"І":{"ha":833,"x_min":125,"x_max":708,"o":"m 125 0 l 125 153 l 329 153 l 329 861 l 125 861 l 125 1014 l 708 1014 l 708 861 l 504 861 l 504 153 l 708 153 l 708 0 l 125 0 z "},"Ї":{"ha":833,"x_min":125,"x_max":708,"o":"m 125 0 l 125 153 l 329 153 l 329 861 l 125 861 l 125 1014 l 708 1014 l 708 861 l 504 861 l 504 153 l 708 153 l 708 0 l 125 0 m 579 1122 q 506 1149 533 1122 q 478 1222 478 1176 q 506 1297 478 1269 q 579 1324 533 1324 q 654 1297 626 1324 q 682 1222 682 1269 q 654 1149 682 1176 q 579 1122 626 1122 m 254 1122 q 179 1149 207 1122 q 151 1222 151 1176 q 179 1297 151 1269 q 254 1324 207 1324 q 328 1297 300 1324 q 356 1222 356 1269 q 328 1149 356 1176 q 254 1122 300 1122 z "},"Ј":{"ha":833,"x_min":42,"x_max":708,"o":"m 375 -15 q 131 69 221 -15 q 42 300 42 154 l 215 300 q 258 181 215 224 q 375 138 300 138 q 492 180 449 138 q 535 299 535 222 l 535 853 l 250 853 l 250 1014 l 708 1014 l 708 299 q 619 69 708 153 q 375 -15 529 -15 z "},"Ћ":{"ha":833,"x_min":0,"x_max":775,"o":"m 144 0 l 144 854 l 0 854 l 0 1014 l 476 1014 l 476 854 l 318 854 l 318 569 l 339 590 q 544 688 432 688 q 712 614 649 688 q 775 418 775 540 l 775 0 l 601 0 l 601 403 q 501 538 601 538 q 371 468 438 538 l 318 414 l 318 0 l 144 0 z "},"Ю":{"ha":833,"x_min":67,"x_max":786,"o":"m 543 -14 q 379 55 440 -14 q 318 242 318 124 l 318 454 l 215 454 l 215 0 l 67 0 l 67 1014 l 215 1014 l 215 586 l 318 586 l 318 772 q 378 959 318 890 q 543 1028 439 1028 q 721 959 656 1028 q 786 772 786 890 l 786 242 q 721 55 786 124 q 543 -14 656 -14 m 543 121 q 613 151 588 121 q 638 233 638 181 l 638 781 q 613 863 638 833 q 543 893 588 893 q 474 863 499 893 q 449 781 449 833 l 449 233 q 474 151 449 181 q 543 121 499 121 z "},"Я":{"ha":833,"x_min":63,"x_max":725,"o":"m 63 0 l 258 428 q 123 535 172 460 q 74 713 74 611 q 115 872 74 804 q 231 976 156 939 q 406 1014 306 1014 l 725 1014 l 725 0 l 551 0 l 551 403 l 428 403 l 253 0 l 63 0 m 406 554 l 551 554 l 551 863 l 406 863 q 291 820 333 863 q 249 707 249 778 q 291 595 249 636 q 406 554 333 554 z "},"Ђ":{"ha":833,"x_min":0,"x_max":775,"o":"m 382 -250 l 382 -85 l 471 -85 q 567 -51 532 -85 q 601 42 601 -18 l 601 403 q 501 538 601 538 q 371 468 438 538 l 318 414 l 318 0 l 144 0 l 144 854 l 0 854 l 0 1014 l 476 1014 l 476 854 l 318 854 l 318 569 l 339 590 q 544 688 432 688 q 712 614 649 688 q 775 418 775 540 l 775 29 q 735 -117 775 -54 q 626 -215 696 -179 q 463 -250 556 -250 l 382 -250 z "},"Ү":{"ha":833,"x_min":32,"x_max":801,"o":"m 329 0 l 329 368 l 32 1014 l 214 1014 l 372 663 q 403 581 390 621 q 419 518 415 540 q 437 581 425 540 q 467 663 449 621 l 621 1014 l 801 1014 l 504 368 l 504 0 l 329 0 z "},"Ө":{"ha":833,"x_min":100,"x_max":733,"o":"m 417 -14 q 184 69 268 -14 q 100 290 100 151 l 100 725 q 184 946 100 864 q 417 1028 268 1028 q 649 946 565 1028 q 733 725 733 864 l 733 290 q 649 69 733 153 q 417 -14 564 -14 m 265 592 l 568 592 l 568 719 q 530 835 568 793 q 417 876 492 876 q 303 835 342 876 q 265 719 265 793 l 265 592 m 417 138 q 530 180 492 138 q 568 294 568 222 l 568 444 l 265 444 l 265 294 q 303 180 265 222 q 417 138 342 138 z "},"а":{"ha":833,"x_min":78,"x_max":729,"o":"m 332 -14 q 146 48 214 -14 q 78 217 78 110 q 153 390 78 329 q 365 451 229 451 l 556 451 l 556 517 q 519 603 556 572 q 421 635 483 635 q 326 610 364 635 q 282 542 289 585 l 113 542 q 210 714 125 650 q 426 778 294 778 q 647 708 565 778 q 729 518 729 638 l 729 0 l 561 0 l 561 133 l 558 133 q 484 26 544 65 q 332 -14 424 -14 m 389 117 q 509 154 463 117 q 556 251 556 192 l 556 344 l 368 344 q 283 314 315 344 q 251 233 251 283 q 288 148 251 179 q 389 117 325 117 z "},"б":{"ha":833,"x_min":100,"x_max":733,"o":"m 417 -14 q 185 68 271 -12 q 100 289 100 149 l 100 632 q 199 915 100 815 q 479 1014 297 1014 l 694 1014 l 694 844 l 479 844 q 327 790 379 844 q 275 632 275 736 l 275 538 l 278 538 q 336 647 285 607 q 478 686 388 686 q 666 608 599 686 q 733 390 733 529 l 733 289 q 648 67 733 149 q 417 -14 563 -15 m 417 138 q 522 176 485 138 q 558 289 558 215 l 558 390 q 522 503 558 464 q 417 542 485 542 q 311 503 347 542 q 275 390 275 464 l 275 289 q 312 176 275 215 q 417 138 349 138 z "},"в":{"ha":833,"x_min":107,"x_max":749,"o":"m 107 0 l 107 764 l 449 764 q 649 710 575 764 q 722 568 722 657 q 677 456 722 499 q 556 411 632 414 l 556 403 q 696 351 643 401 q 749 218 749 301 q 673 59 749 118 q 468 0 597 0 l 107 0 m 276 450 l 444 450 q 525 474 496 450 q 554 542 554 499 q 525 609 554 585 q 444 633 496 633 l 276 633 l 276 450 m 276 131 l 458 131 q 547 158 515 131 q 579 233 579 185 q 547 309 579 282 q 458 336 515 336 l 276 336 l 276 131 z "},"г":{"ha":833,"x_min":168,"x_max":738,"o":"m 168 0 l 168 764 l 738 764 l 738 603 l 342 603 l 342 0 l 168 0 z "},"ѓ":{"ha":833,"x_min":168,"x_max":738,"o":"m 168 0 l 168 764 l 738 764 l 738 603 l 342 603 l 342 0 l 168 0 m 353 896 l 500 1090 l 686 1090 l 528 896 l 353 896 z "},"ґ":{"ha":833,"x_min":168,"x_max":738,"o":"m 168 0 l 168 764 l 571 764 l 571 910 l 738 910 l 738 603 l 342 603 l 342 0 l 168 0 z "},"д":{"ha":833,"x_min":35,"x_max":796,"o":"m 35 -194 l 35 147 l 86 147 q 135 235 110 171 q 163 392 161 299 l 171 764 l 706 764 l 706 147 l 796 147 l 796 -194 l 636 -194 l 636 0 l 194 0 l 194 -194 l 35 -194 m 263 147 l 540 147 l 540 613 l 332 613 l 326 392 q 303 235 325 299 q 263 147 282 171 z "},"е":{"ha":833,"x_min":97,"x_max":736,"o":"m 418 -14 q 249 24 321 -14 q 137 128 176 61 q 97 286 97 196 l 97 478 q 137 635 97 568 q 249 740 176 703 q 418 778 321 778 q 585 740 514 778 q 697 635 657 703 q 736 478 736 568 l 736 340 l 265 340 l 265 286 q 419 124 265 124 q 560 203 539 124 l 731 203 q 626 45 711 104 q 418 -14 540 -14 m 265 478 l 265 449 l 568 450 l 568 479 q 531 601 568 558 q 418 643 493 643 q 303 600 342 643 q 265 478 265 557 z "},"ё":{"ha":833,"x_min":97,"x_max":736,"o":"m 418 -14 q 249 24 321 -14 q 137 128 176 61 q 97 286 97 196 l 97 478 q 137 635 97 568 q 249 740 176 703 q 418 778 321 778 q 585 740 514 778 q 697 635 657 703 q 736 478 736 568 l 736 340 l 265 340 l 265 286 q 419 124 265 124 q 560 203 539 124 l 731 203 q 626 45 711 104 q 418 -14 540 -14 m 265 478 l 265 449 l 568 450 l 568 479 q 531 601 568 558 q 418 643 493 643 q 303 600 342 643 q 265 478 265 557 m 579 892 q 506 919 533 892 q 478 992 478 946 q 506 1065 478 1038 q 579 1092 533 1092 q 654 1065 626 1092 q 682 992 682 1038 q 654 919 682 946 q 579 892 626 892 m 254 892 q 179 919 207 892 q 151 992 151 946 q 179 1065 151 1038 q 254 1092 207 1092 q 328 1065 300 1092 q 356 992 356 1038 q 328 919 356 946 q 254 892 300 892 z "},"ж":{"ha":833,"x_min":13,"x_max":821,"o":"m 13 0 l 167 392 l 24 764 l 179 764 l 301 426 l 353 426 l 353 764 l 481 764 l 481 426 l 532 426 l 661 764 l 810 764 l 667 396 l 821 0 l 667 0 l 533 351 l 481 351 l 481 0 l 353 0 l 353 351 l 299 351 l 172 0 l 13 0 z "},"з":{"ha":833,"x_min":74,"x_max":747,"o":"m 376 -10 q 172 48 253 -10 q 74 206 90 106 l 247 206 q 290 151 254 171 q 376 132 325 132 l 453 132 q 538 158 507 132 q 569 228 569 185 q 539 298 569 272 q 453 324 508 324 l 283 324 l 283 461 l 443 461 q 522 484 494 461 q 550 547 550 507 q 443 632 550 632 l 379 632 q 297 612 331 632 q 254 556 263 592 l 82 556 q 177 715 97 657 q 379 774 257 774 l 443 774 q 649 718 574 774 q 725 565 725 663 q 685 456 725 500 q 571 403 644 413 q 701 343 656 392 q 747 217 747 294 q 667 51 747 113 q 453 -10 588 -10 l 376 -10 z "},"и":{"ha":833,"x_min":108,"x_max":725,"o":"m 108 0 l 108 764 l 265 764 l 265 388 q 261 301 265 350 q 252 206 257 253 q 242 124 247 158 l 511 764 l 725 764 l 725 0 l 568 0 l 568 376 q 572 460 568 414 q 580 550 575 506 q 590 625 585 594 l 322 0 l 108 0 z "},"й":{"ha":833,"x_min":108,"x_max":725,"o":"m 108 0 l 108 764 l 265 764 l 265 388 q 261 301 265 350 q 252 206 257 253 q 242 124 247 158 l 511 764 l 725 764 l 725 0 l 568 0 l 568 376 q 572 460 568 414 q 580 550 575 506 q 590 625 585 594 l 322 0 l 108 0 m 417 885 q 241 941 308 885 q 174 1090 174 997 l 308 1090 q 338 1017 308 1044 q 417 989 368 989 q 495 1017 465 989 q 525 1090 525 1044 l 660 1090 q 593 941 660 997 q 417 885 526 885 z "},"к":{"ha":833,"x_min":113,"x_max":785,"o":"m 113 0 l 113 764 l 286 764 l 286 464 l 400 464 l 586 764 l 781 764 l 550 394 l 785 0 l 586 0 l 400 317 l 286 317 l 286 0 l 113 0 z "},"ќ":{"ha":833,"x_min":113,"x_max":785,"o":"m 113 0 l 113 764 l 286 764 l 286 464 l 400 464 l 586 764 l 781 764 l 550 394 l 785 0 l 586 0 l 400 317 l 286 317 l 286 0 l 113 0 m 311 896 l 458 1090 l 644 1090 l 486 896 l 311 896 z "},"л":{"ha":833,"x_min":32,"x_max":725,"o":"m 32 -10 l 32 149 l 67 149 q 138 187 114 149 q 164 308 163 225 l 172 764 l 725 764 l 725 0 l 551 0 l 551 603 l 343 603 l 338 299 q 267 69 335 147 q 78 -10 200 -10 l 32 -10 z "},"м":{"ha":833,"x_min":78,"x_max":756,"o":"m 78 0 l 78 764 l 286 764 l 381 476 q 406 388 396 429 q 419 325 415 346 q 432 388 422 346 q 457 476 442 429 l 547 764 l 756 764 l 756 0 l 594 0 l 594 131 q 597 290 594 200 q 604 467 600 379 q 613 617 608 554 l 497 221 l 339 221 l 219 615 q 228 472 224 556 q 236 297 233 388 q 239 131 239 207 l 239 0 l 78 0 z "},"н":{"ha":833,"x_min":108,"x_max":725,"o":"m 108 0 l 108 764 l 282 764 l 282 468 l 551 468 l 551 764 l 725 764 l 725 0 l 551 0 l 551 307 l 282 307 l 282 0 l 108 0 z "},"о":{"ha":833,"x_min":97,"x_max":736,"o":"m 417 -12 q 183 69 269 -12 q 97 288 97 150 l 97 476 q 183 695 97 614 q 417 776 269 776 q 650 695 564 776 q 736 478 736 614 l 736 288 q 650 69 736 150 q 417 -12 564 -12 m 417 139 q 524 177 486 139 q 563 288 563 215 l 563 476 q 524 587 563 549 q 417 625 486 625 q 309 587 347 625 q 271 476 271 549 l 271 288 q 309 177 271 215 q 417 139 347 139 z "},"п":{"ha":833,"x_min":108,"x_max":725,"o":"m 108 0 l 108 764 l 725 764 l 725 0 l 551 0 l 551 603 l 282 603 l 282 0 l 108 0 z "},"р":{"ha":833,"x_min":107,"x_max":736,"o":"m 107 -250 l 107 764 l 276 764 l 276 618 l 279 618 q 345 736 292 694 q 482 778 399 778 q 667 699 597 778 q 736 486 736 619 l 736 279 q 667 65 736 144 q 482 -14 597 -14 q 345 28 399 -14 q 279 146 292 71 l 275 146 l 281 -36 l 281 -250 l 107 -250 m 421 136 q 525 175 488 136 q 563 286 563 214 l 563 478 q 525 589 563 550 q 421 628 488 628 q 318 588 356 628 q 281 478 281 549 l 281 286 q 318 176 281 215 q 421 136 356 136 z "},"с":{"ha":833,"x_min":96,"x_max":740,"o":"m 419 -14 q 249 23 322 -14 q 136 127 176 60 q 96 286 96 194 l 96 478 q 136 637 96 569 q 249 741 176 704 q 419 778 322 778 q 650 703 564 778 q 740 501 736 629 l 567 501 q 524 594 563 561 q 419 626 485 626 q 310 588 350 626 q 269 479 269 550 l 269 286 q 310 176 269 215 q 419 138 350 138 q 524 170 486 138 q 567 263 563 203 l 740 263 q 650 60 736 135 q 419 -14 564 -14 z "},"т":{"ha":833,"x_min":68,"x_max":765,"o":"m 329 0 l 329 604 l 68 604 l 68 764 l 765 764 l 765 604 l 504 604 l 504 0 l 329 0 z "},"у":{"ha":833,"x_min":53,"x_max":781,"o":"m 231 -250 l 338 42 l 53 764 l 243 764 l 385 374 q 407 297 396 342 q 424 222 418 251 q 442 297 431 251 q 464 374 453 342 l 597 764 l 781 764 l 413 -250 l 231 -250 z "},"ў":{"ha":833,"x_min":53,"x_max":781,"o":"m 231 -250 l 338 42 l 53 764 l 243 764 l 385 374 q 407 297 396 342 q 424 222 418 251 q 442 297 431 251 q 464 374 453 342 l 597 764 l 781 764 l 413 -250 l 231 -250 m 417 885 q 241 941 308 885 q 174 1090 174 997 l 308 1090 q 338 1017 308 1044 q 417 989 368 989 q 495 1017 465 989 q 525 1090 525 1044 l 660 1090 q 593 941 660 997 q 417 885 526 885 z "},"ф":{"ha":833,"x_min":60,"x_max":774,"o":"m 344 -250 l 344 0 q 135 76 211 0 q 60 285 60 153 l 60 481 q 136 688 60 613 q 344 764 213 764 l 344 1014 l 489 1014 l 489 764 q 698 688 622 764 q 774 481 774 611 l 774 285 q 697 76 774 153 q 489 0 621 0 l 489 -250 l 344 -250 m 351 136 l 351 628 q 249 589 286 628 q 211 481 211 550 l 211 285 q 249 176 211 215 q 351 136 286 136 m 482 136 q 585 176 547 136 q 622 285 622 215 l 622 481 q 585 589 622 550 q 482 628 547 628 l 482 136 z "},"х":{"ha":833,"x_min":50,"x_max":783,"o":"m 50 0 l 317 394 l 68 764 l 264 764 l 382 576 q 403 539 393 560 q 417 506 413 518 q 432 539 422 518 q 451 576 442 560 l 571 764 l 767 764 l 518 394 l 783 0 l 586 0 l 454 210 q 433 248 443 226 q 417 282 422 269 q 401 248 411 269 q 381 210 392 226 l 246 0 l 50 0 z "},"ч":{"ha":833,"x_min":86,"x_max":719,"o":"m 544 0 l 544 257 q 487 248 526 253 q 400 243 447 243 q 169 316 253 243 q 86 519 86 389 l 86 764 l 260 764 l 260 528 q 301 434 260 468 q 415 400 343 400 q 497 405 463 400 q 544 414 532 410 l 544 764 l 719 764 l 719 0 l 544 0 z "},"ц":{"ha":833,"x_min":108,"x_max":796,"o":"m 636 -194 l 636 0 l 108 0 l 108 764 l 282 764 l 282 160 l 518 160 l 518 764 l 692 764 l 692 160 l 796 160 l 796 -194 l 636 -194 z "},"ш":{"ha":833,"x_min":69,"x_max":764,"o":"m 71 0 l 69 764 l 218 764 l 218 121 l 354 121 l 354 764 l 481 764 l 481 121 l 617 121 l 617 764 l 764 764 l 764 0 l 71 0 z "},"щ":{"ha":833,"x_min":68,"x_max":808,"o":"m 657 -194 l 657 0 l 68 0 l 68 764 l 207 764 l 207 125 l 338 125 l 338 764 l 458 764 l 458 125 l 590 125 l 590 764 l 728 764 l 728 125 l 808 125 l 808 -194 l 657 -194 z "},"џ":{"ha":833,"x_min":108,"x_max":725,"o":"m 329 -174 l 329 0 l 108 0 l 108 764 l 282 764 l 282 161 l 551 161 l 551 764 l 725 764 l 725 0 l 504 0 l 504 -174 l 329 -174 z "},"ь":{"ha":833,"x_min":114,"x_max":781,"o":"m 114 0 l 114 764 l 288 764 l 288 514 l 485 514 q 702 445 624 514 q 781 256 781 376 q 701 69 781 138 q 486 0 622 0 l 114 0 m 288 153 l 478 153 q 572 180 539 153 q 604 257 604 207 q 572 334 604 307 q 478 361 539 361 l 288 361 l 288 153 z "},"ъ":{"ha":833,"x_min":0,"x_max":781,"o":"m 178 0 l 178 604 l 0 604 l 0 764 l 351 764 l 351 514 l 485 514 q 702 445 624 514 q 781 256 781 376 q 701 69 781 138 q 486 0 622 0 l 178 0 m 351 153 l 478 153 q 572 180 539 153 q 604 257 604 207 q 572 334 604 307 q 478 361 539 361 l 351 361 l 351 153 z "},"ы":{"ha":833,"x_min":69,"x_max":764,"o":"m 69 0 l 69 764 l 219 764 l 219 506 l 271 506 q 466 436 393 506 q 539 250 539 367 q 466 68 539 136 q 271 0 393 0 l 69 0 m 614 0 l 614 764 l 764 764 l 764 0 l 614 0 m 219 135 l 271 135 q 363 165 329 135 q 396 250 396 196 q 363 339 396 307 q 271 371 329 371 l 219 371 l 219 135 z "},"љ":{"ha":833,"x_min":-1,"x_max":821,"o":"m -1 -7 l -1 136 l 25 136 q 83 174 61 136 q 106 278 104 213 l 113 764 l 529 764 l 529 507 l 592 507 q 758 447 694 507 q 821 289 821 388 l 821 211 q 758 58 821 115 q 593 0 696 0 l 390 0 l 390 631 l 256 631 l 251 275 q 191 69 250 146 q 31 -7 132 -7 l -1 -7 m 529 132 l 592 132 q 652 153 629 132 q 675 211 675 175 l 675 289 q 652 351 675 328 q 592 374 629 374 l 529 374 l 529 132 z "},"њ":{"ha":833,"x_min":69,"x_max":817,"o":"m 69 0 l 69 764 l 217 764 l 217 503 l 389 503 l 389 764 l 524 764 l 524 503 l 588 503 q 753 443 690 503 q 817 283 817 383 l 817 211 q 753 58 817 117 q 589 0 690 0 l 389 0 l 389 369 l 217 369 l 217 0 l 69 0 m 524 132 l 588 132 q 647 154 625 132 q 669 213 669 176 l 669 286 q 647 347 669 324 q 588 369 625 369 l 524 369 l 524 132 z "},"ѕ":{"ha":833,"x_min":93,"x_max":747,"o":"m 388 -12 q 177 47 257 -12 q 93 208 97 107 l 267 208 q 302 149 269 171 q 388 128 335 128 l 449 128 q 544 153 513 128 q 576 221 576 178 q 460 314 576 297 l 365 328 q 174 397 235 346 q 113 551 113 449 q 185 717 113 658 q 397 776 257 776 l 450 776 q 653 719 576 776 q 736 567 731 663 l 563 567 q 528 617 558 597 q 450 636 499 636 l 397 636 q 310 615 338 636 q 283 551 283 593 q 307 493 283 513 q 383 467 331 474 l 482 453 q 683 380 618 433 q 747 222 747 326 q 672 49 747 110 q 449 -12 596 -12 l 388 -12 z "},"є":{"ha":833,"x_min":107,"x_max":747,"o":"m 428 -14 q 194 67 281 -14 q 107 286 107 149 l 107 478 q 194 697 107 615 q 428 778 281 778 q 656 703 571 778 q 747 501 742 629 l 574 501 q 531 594 569 561 q 428 626 492 626 q 319 588 357 626 q 281 479 281 550 l 281 456 l 519 456 l 519 317 l 281 317 l 281 286 q 319 176 281 215 q 428 138 357 138 q 531 170 493 138 q 574 263 569 203 l 747 263 q 656 60 742 135 q 428 -14 571 -14 z "},"э":{"ha":833,"x_min":92,"x_max":733,"o":"m 413 -14 q 183 60 268 -14 q 92 263 97 135 l 267 263 q 308 170 271 203 q 413 138 346 138 q 520 176 482 138 q 558 286 558 215 l 558 317 l 319 317 l 319 456 l 558 456 l 558 479 q 520 588 558 550 q 413 626 482 626 q 309 594 347 626 q 267 501 271 561 l 92 501 q 183 703 97 629 q 413 778 268 778 q 646 697 558 778 q 733 478 733 615 l 733 286 q 646 67 733 149 q 413 -14 558 -14 z "}}}
